<?xml version="1.0" encoding="UTF-8" standalone="no"?><svg xmlns="http://www.w3.org/2000/svg" xmlns:xlink="http://www.w3.org/1999/xlink" contentScriptType="application/ecmascript" contentStyleType="text/css" height="467px" preserveAspectRatio="none" style="width:534px;height:467px;" version="1.1" viewBox="0 0 534 467" width="534px" zoomAndPan="magnify"><defs><filter height="300%" id="f1evjo5haqbe2j" width="300%" x="-1" y="-1"><feGaussianBlur result="blurOut" stdDeviation="2.0"/><feColorMatrix in="blurOut" result="blurOut2" type="matrix" values="0 0 0 0 0 0 0 0 0 0 0 0 0 0 0 0 0 0 .4 0"/><feOffset dx="4.0" dy="4.0" in="blurOut2" result="blurOut3"/><feBlend in="SourceGraphic" in2="blurOut3" mode="normal"/></filter></defs><g><!--MD5=[411c9672cbc43f9185df31beb613b987]
entity OIS--><rect fill="#FEFECE" filter="url(#f1evjo5haqbe2j)" height="47.6094" style="stroke: #A80036; stroke-width: 1.5;" width="119" x="209.5" y="401"/><rect fill="#FEFECE" height="10" style="stroke: #A80036; stroke-width: 1.5;" width="15" x="308.5" y="406"/><rect fill="#FEFECE" height="2" style="stroke: #A80036; stroke-width: 1.5;" width="4" x="306.5" y="408"/><rect fill="#FEFECE" height="2" style="stroke: #A80036; stroke-width: 1.5;" width="4" x="306.5" y="412"/><text fill="#000000" font-family="sans-serif" font-size="14" lengthAdjust="spacingAndGlyphs" textLength="79" x="224.5" y="435.5332">OIS Platform</text><!--MD5=[277af81c43435f3e1e7d98246e8611f4]
entity MIS--><rect fill="#FEFECE" filter="url(#f1evjo5haqbe2j)" height="47.6094" style="stroke: #A80036; stroke-width: 1.5;" width="119" x="209.5" y="7"/><rect fill="#FEFECE" height="10" style="stroke: #A80036; stroke-width: 1.5;" width="15" x="308.5" y="12"/><rect fill="#FEFECE" height="2" style="stroke: #A80036; stroke-width: 1.5;" width="4" x="306.5" y="14"/><rect fill="#FEFECE" height="2" style="stroke: #A80036; stroke-width: 1.5;" width="4" x="306.5" y="18"/><text fill="#000000" font-family="sans-serif" font-size="14" lengthAdjust="spacingAndGlyphs" textLength="79" x="224.5" y="41.5332">MIS Platform</text><ellipse cx="315.8726" cy="163.4745" fill="#FEFECE" filter="url(#f1evjo5haqbe2j)" rx="70.3726" ry="16.4745" style="stroke: #A80036; stroke-width: 1.5;"/><text fill="#000000" font-family="sans-serif" font-size="14" lengthAdjust="spacingAndGlyphs" textLength="102" x="264.8726" y="168.7792">MIS api gateway</text><ellipse cx="443.949" cy="323.0898" fill="#FEFECE" filter="url(#f1evjo5haqbe2j)" rx="73.449" ry="17.0898" style="stroke: #A80036; stroke-width: 1.5;"/><text fill="#000000" font-family="sans-serif" font-size="14" lengthAdjust="spacingAndGlyphs" textLength="110" x="388.949" y="328.3945">Outbound Queue</text><ellipse cx="74.8716" cy="31.1743" fill="#FEFECE" filter="url(#f1evjo5haqbe2j)" rx="68.8716" ry="16.1743" style="stroke: #A80036; stroke-width: 1.5;"/><text fill="#000000" font-family="sans-serif" font-size="14" lengthAdjust="spacingAndGlyphs" textLength="98" x="25.8716" y="36.479">Inbound Queue</text><!--MD5=[348ec2ed24420c00ad5d20dbaebecd7c]
reverse link gateway to OIS--><path d="M312.235,185.287 C303.57,233.131 282.265,350.7611 273.196,400.8312 " fill="none" id="gateway-backto-OIS" style="stroke: #A80036; stroke-width: 1.0;"/><polygon fill="#A80036" points="313.131,180.342,307.5905,188.4847,312.2396,185.2619,315.4624,189.9109,313.131,180.342" style="stroke: #A80036; stroke-width: 1.0;"/><text fill="#000000" font-family="sans-serif" font-size="13" lengthAdjust="spacingAndGlyphs" textLength="41" x="300" y="272.4951">call api</text><!--MD5=[b6784320fc53c849dcaafb0d0b9fd1c2]
reverse link MIS to gateway--><path d="M279.019,59.819 C288.548,86.277 302.546,125.142 310.3,146.673 " fill="none" id="MIS-backto-gateway" style="stroke: #A80036; stroke-width: 1.0;"/><polygon fill="#A80036" points="277.294,55.03,276.5803,64.853,278.9883,59.7342,284.107,62.1422,277.294,55.03" style="stroke: #A80036; stroke-width: 1.0;"/><!--MD5=[9282edfa29dfb5d84e3b295b55c47f42]
link MIS to outbound--><path d="M304.604,55.18 C333.639,75.894 373.555,108.812 397,147 C427.466,196.623 438.447,265.975 442.192,300.584 " fill="none" id="MIS-to-outbound" style="stroke: #A80036; stroke-width: 1.0;"/><polygon fill="#A80036" points="442.733,305.831,445.7886,296.4681,442.2201,300.8574,437.8308,297.2888,442.733,305.831" style="stroke: #A80036; stroke-width: 1.0;"/><text fill="#000000" font-family="sans-serif" font-size="13" lengthAdjust="spacingAndGlyphs" textLength="103" x="415" y="168.9951">notification to OIS</text><!--MD5=[84d870a436b090ff6c1d0e482052ee54]
link outbound to OIS--><path d="M417.801,338.971 C390.334,354.6665 346.671,379.6166 313.732,398.439 " fill="none" id="outbound-to-OIS" style="stroke: #A80036; stroke-width: 1.0;"/><polygon fill="#A80036" points="309.362,400.9359,319.1606,399.9423,313.7029,398.4546,315.1906,392.9969,309.362,400.9359" style="stroke: #A80036; stroke-width: 1.0;"/><!--MD5=[b65eee250716542d6c56e3ef5495a17f]
link OIS to inbound--><path d="M209.266,422.1644 C142.91,416.5611 45,396.0805 45,324 C45,116 45,116 45,116 C45,92.786 55.2868,67.956 63.8131,51.362 " fill="none" id="OIS-to-inbound" style="stroke: #A80036; stroke-width: 1.0;"/><polygon fill="#A80036" points="66.1613,46.909,58.4245,53.0034,63.8286,51.3315,65.5005,56.7357,66.1613,46.909" style="stroke: #A80036; stroke-width: 1.0;"/><text fill="#000000" font-family="sans-serif" font-size="13" lengthAdjust="spacingAndGlyphs" textLength="104" x="46" y="224.4951">notification to MIS</text><!--MD5=[7540eaa89551fb3873808912860b3f03]
link inbound to MIS--><path d="M144.34,31 C164.242,31 184.143,31 204.045,31 " fill="none" id="inbound-to-MIS" style="stroke: #A80036; stroke-width: 1.0;"/><polygon fill="#A80036" points="209.105,31,200.105,27,204.105,31,200.105,35,209.105,31" style="stroke: #A80036; stroke-width: 1.0;"/><!--MD5=[cf7f388c21052be49188fc12aae09f1b]
link MIS to OIS--><path d="M247.247,55.01 C234.547,70.878 221,93.157 221,116 C221,116 221,116 221,324 C221,350.4972 234.866,377.3992 247.693,396.6163 " fill="none" id="MIS-to-OIS" style="stroke: #A80036; stroke-width: 1.0;"/><polygon fill="#A80036" points="250.579,400.8412,248.8053,391.1534,247.7587,396.7126,242.1995,395.6659,250.579,400.8412" style="stroke: #A80036; stroke-width: 1.0;"/><text fill="#000000" font-family="sans-serif" font-size="13" lengthAdjust="spacingAndGlyphs" textLength="41" x="222" y="224.4951">call api</text><!--MD5=[e6fbef309e8dc69ea889c96a51d45b08]
@startuml
  "OIS Platform"  as [OIS]
  "MIS Platform" as [MIS]
  : MIS api gateway : as (gateway)

  gateway <- - OIS : call api
  MIS <- - gateway

  : Outbound Queue : as (outbound)
  MIS - - - -> outbound : notification to OIS

  outbound - -> OIS

  : Inbound Queue : as (inbound)
  OIS - - - -> inbound : notification to MIS
  inbound -> MIS

  MIS - -> OIS : call api

@enduml

PlantUML version 1.2020.17(Sat Sep 19 19:30:11 ICT 2020)
(MIT source distribution)
Java Runtime: Java(TM) SE Runtime Environment
JVM: Java HotSpot(TM) 64-Bit Server VM
Default Encoding: MS874
Language: en
Country: US
--></g></svg>