<?xml version="1.0" encoding="UTF-8" standalone="no"?><svg xmlns="http://www.w3.org/2000/svg" xmlns:xlink="http://www.w3.org/1999/xlink" contentScriptType="application/ecmascript" contentStyleType="text/css" height="440px" preserveAspectRatio="none" style="width:525px;height:440px;" version="1.1" viewBox="0 0 525 440" width="525px" zoomAndPan="magnify">
    <defs>
        <filter height="300%" id="f1evjo5haqbe2j" width="300%" x="-1" y="-1">
            <feGaussianBlur result="blurOut" stdDeviation="2.0" />
            <feColorMatrix in="blurOut" result="blurOut2" type="matrix" values="0 0 0 0 0 0 0 0 0 0 0 0 0 0 0 0 0 0 .4 0" />
            <feOffset dx="4.0" dy="4.0" in="blurOut2" result="blurOut3" />
            <feBlend in="SourceGraphic" in2="blurOut3" mode="normal" />
        </filter>
    </defs>
    <g>
        <!--MD5=[411c9672cbc43f9185df31beb613b987]
entity OIS-->
        <rect fill="#FEFECE" filter="url(#f1evjo5haqbe2j)" height="37.6094" style="stroke: #A80036; stroke-width: 1.5;" width="99" x="214.5" y="392" />
        <rect fill="#FEFECE" height="5" style="stroke: #A80036; stroke-width: 1.5;" width="10" x="209.5" y="397" />
        <rect fill="#FEFECE" height="5" style="stroke: #A80036; stroke-width: 1.5;" width="10" x="209.5" y="419.6094" /><text fill="#000000" font-family="sans-serif" font-size="14" lengthAdjust="spacingAndGlyphs" textLength="79" x="224.5" y="416.5332">OIS Platform</text>
        <!--MD5=[277af81c43435f3e1e7d98246e8611f4]
entity MIS-->
        <rect fill="#FEFECE" filter="url(#f1evjo5haqbe2j)" height="37.6094" style="stroke: #A80036; stroke-width: 1.5;" width="99" x="214.5" y="8" />
        <rect fill="#FEFECE" height="5" style="stroke: #A80036; stroke-width: 1.5;" width="10" x="209.5" y="13" />
        <rect fill="#FEFECE" height="5" style="stroke: #A80036; stroke-width: 1.5;" width="10" x="209.5" y="35.6094" /><text fill="#000000" font-family="sans-serif" font-size="14" lengthAdjust="spacingAndGlyphs" textLength="79" x="224.5" y="32.5332">MIS Platform</text>
        <ellipse cx="310.8726" cy="154.4745" fill="#FEFECE" filter="url(#f1evjo5haqbe2j)" rx="70.3726" ry="16.4745" style="stroke: #A80036; stroke-width: 1.5;" /><text fill="#000000" font-family="sans-serif" font-size="14" lengthAdjust="spacingAndGlyphs" textLength="102" x="259.8726" y="159.7792">MIS api gateway</text>
        <ellipse cx="438.949" cy="314.0898" fill="#FEFECE" filter="url(#f1evjo5haqbe2j)" rx="73.449" ry="17.0898" style="stroke: #A80036; stroke-width: 1.5;" /><text fill="#000000" font-family="sans-serif" font-size="14" lengthAdjust="spacingAndGlyphs" textLength="110" x="383.949" y="319.3945">Outbound Queue</text>
        <ellipse cx="74.8716" cy="27.1743" fill="#FEFECE" filter="url(#f1evjo5haqbe2j)" rx="68.8716" ry="16.1743" style="stroke: #A80036; stroke-width: 1.5;" /><text fill="#000000" font-family="sans-serif" font-size="14" lengthAdjust="spacingAndGlyphs" textLength="98" x="25.8716" y="32.479">Inbound Queue</text>
        <!--MD5=[348ec2ed24420c00ad5d20dbaebecd7c]
reverse link gateway to OIS-->
        <path d="M307.204,176.054 C298.227,224.663 275.809,346.0546 267.325,391.9979 " fill="none" id="gateway&lt;-OIS" style="stroke: #A80036; stroke-width: 1.0;" />
        <polygon fill="#A80036" points="308.131,171.037,302.5619,179.1601,307.2222,175.9537,310.4286,180.6141,308.131,171.037" style="stroke: #A80036; stroke-width: 1.0;" /><text fill="#000000" font-family="sans-serif" font-size="13" lengthAdjust="spacingAndGlyphs" textLength="41" x="295" y="263.4951">call api</text>
        <!--MD5=[b6784320fc53c849dcaafb0d0b9fd1c2]
reverse link MIS to gateway-->
        <path d="M272.652,51.102 C282.12,76.385 297.037,116.215 305.195,137.999 " fill="none" id="MIS&lt;-gateway" style="stroke: #A80036; stroke-width: 1.0;" />
        <polygon fill="#A80036" points="270.834,46.249,270.2455,56.0803,272.5881,50.9312,277.7371,53.2738,270.834,46.249" style="stroke: #A80036; stroke-width: 1.0;" />
        <!--MD5=[9282edfa29dfb5d84e3b295b55c47f42]
link MIS to outbound-->
        <path d="M293.967,46.065 C323.274,65.272 367.033,98.32 392,138 C423.011,187.284 433.749,256.787 437.318,291.506 " fill="none" id="MIS-&gt;outbound" style="stroke: #A80036; stroke-width: 1.0;" />
        <polygon fill="#A80036" points="437.831,296.771,440.9377,287.425,437.3452,291.7947,432.9755,288.2022,437.831,296.771" style="stroke: #A80036; stroke-width: 1.0;" /><text fill="#000000" font-family="sans-serif" font-size="13" lengthAdjust="spacingAndGlyphs" textLength="103" x="410" y="159.9951">notification to OIS</text>
        <!--MD5=[84d870a436b090ff6c1d0e482052ee54]
link outbound to OIS-->
        <path d="M411.656,329.844 C382.245,345.8099 335.258,371.3169 302.203,389.261 " fill="none" id="outbound-&gt;OIS" style="stroke: #A80036; stroke-width: 1.0;" />
        <polygon fill="#A80036" points="297.431,391.8516,307.249,391.0728,301.8252,389.466,303.432,384.0421,297.431,391.8516" style="stroke: #A80036; stroke-width: 1.0;" />
        <!--MD5=[b65eee250716542d6c56e3ef5495a17f]
link OIS to inbound-->
        <path d="M214.287,409.8572 C148.295,406.7478 40,390.1903 40,315 C40,107 40,107 40,107 C40,85.248 51.2286,62.793 60.9658,47.409 " fill="none" id="OIS-&gt;inbound" style="stroke: #A80036; stroke-width: 1.0;" />
        <polygon fill="#A80036" points="63.9258,42.87,55.6589,48.2234,61.1944,47.058,62.3598,52.5936,63.9258,42.87" style="stroke: #A80036; stroke-width: 1.0;" /><text fill="#000000" font-family="sans-serif" font-size="13" lengthAdjust="spacingAndGlyphs" textLength="104" x="41" y="215.4951">notification to MIS</text>
        <!--MD5=[7540eaa89551fb3873808912860b3f03]
link inbound to MIS-->
        <path d="M144.029,27 C165.722,27 187.415,27 209.107,27 " fill="none" id="inbound-&gt;MIS" style="stroke: #A80036; stroke-width: 1.0;" />
        <polygon fill="#A80036" points="214.325,27,205.325,23,209.325,27,205.325,31,214.325,27" style="stroke: #A80036; stroke-width: 1.0;" />
        <!--MD5=[cf7f388c21052be49188fc12aae09f1b]
link MIS to OIS-->
        <path d="M245.029,46.245 C231.612,61.169 216,83.569 216,107 C216,107 216,107 216,315 C216,342.1436 231.803,369.4151 245.274,387.7311 " fill="none" id="MIS-&gt;OIS" style="stroke: #A80036; stroke-width: 1.0;" />
        <polygon fill="#A80036" points="248.283,391.7293,246.0682,382.1327,245.2768,387.7339,239.6756,386.9426,248.283,391.7293" style="stroke: #A80036; stroke-width: 1.0;" /><text fill="#000000" font-family="sans-serif" font-size="13" lengthAdjust="spacingAndGlyphs" textLength="41" x="217" y="215.4951">call api</text>
        <!--MD5=[15c2a5efa13b5a49d2a9129746d01d77]
@startuml
  "OIS Platform"  as [OIS]
  "MIS Platform" as [MIS]
  : MIS api gateway : as (gateway)

  gateway <- - OIS : call api
  MIS <- - gateway

  : Outbound Queue : as (outbound)
  MIS - - - -> outbound : notification to OIS

  outbound - -> OIS

  : Inbound Queue : as (inbound)
  OIS - - - -> inbound : notification to MIS
  inbound -> MIS

  MIS - -> OIS : call api

@enduml

PlantUML version 1.2020.02(Sun Mar 01 17:22:07 ICT 2020)
(GPL source distribution)
Java Runtime: Java(TM) SE Runtime Environment
JVM: Java HotSpot(TM) 64-Bit Server VM
Java Version: 1.8.0_261-b12
Operating System: Windows 10
Default Encoding: Cp1252
Language: en
Country: US
-->
    </g>
</svg>