<?xml version="1.0" encoding="UTF-8" standalone="no"?><svg xmlns="http://www.w3.org/2000/svg" xmlns:xlink="http://www.w3.org/1999/xlink" contentScriptType="application/ecmascript" contentStyleType="text/css" height="272px" preserveAspectRatio="none" style="width:403px;height:272px;" version="1.1" viewBox="0 0 403 272" width="403px" zoomAndPan="magnify"><defs><filter height="300%" id="fg4r9n4azk2cr" width="300%" x="-1" y="-1"><feGaussianBlur result="blurOut" stdDeviation="2.0"/><feColorMatrix in="blurOut" result="blurOut2" type="matrix" values="0 0 0 0 0 0 0 0 0 0 0 0 0 0 0 0 0 0 .4 0"/><feOffset dx="4.0" dy="4.0" in="blurOut2" result="blurOut3"/><feBlend in="SourceGraphic" in2="blurOut3" mode="normal"/></filter></defs><g><line style="stroke: #A80036; stroke-width: 1.0; stroke-dasharray: 5.0,5.0;" x1="43" x2="43" y1="103.1875" y2="183.8906"/><line style="stroke: #A80036; stroke-width: 1.0; stroke-dasharray: 5.0,5.0;" x1="179" x2="179" y1="103.1875" y2="183.8906"/><line style="stroke: #A80036; stroke-width: 1.0; stroke-dasharray: 5.0,5.0;" x1="333" x2="333" y1="103.1875" y2="183.8906"/><text fill="#000000" font-family="sans-serif" font-size="14" lengthAdjust="spacingAndGlyphs" textLength="65" x="8" y="100.1113">ศูนย์สั่งการ</text><ellipse cx="43.5" cy="28.5781" fill="#FEFECE" filter="url(#fg4r9n4azk2cr)" rx="8" ry="8" style="stroke: #A80036; stroke-width: 2.0;"/><path d="M43.5,36.5781 L43.5,63.5781 M30.5,44.5781 L56.5,44.5781 M43.5,63.5781 L30.5,78.5781 M43.5,63.5781 L56.5,78.5781 " fill="none" filter="url(#fg4r9n4azk2cr)" style="stroke: #A80036; stroke-width: 2.0;"/><text fill="#000000" font-family="sans-serif" font-size="14" lengthAdjust="spacingAndGlyphs" textLength="65" x="8" y="197.4238">ศูนย์สั่งการ</text><ellipse cx="43.5" cy="210.5" fill="#FEFECE" filter="url(#fg4r9n4azk2cr)" rx="8" ry="8" style="stroke: #A80036; stroke-width: 2.0;"/><path d="M43.5,218.5 L43.5,245.5 M30.5,226.5 L56.5,226.5 M43.5,245.5 L30.5,260.5 M43.5,245.5 L56.5,260.5 " fill="none" filter="url(#fg4r9n4azk2cr)" style="stroke: #A80036; stroke-width: 2.0;"/><rect fill="#FEFECE" filter="url(#fg4r9n4azk2cr)" height="31.6094" style="stroke: #A80036; stroke-width: 1.5;" width="173" x="93" y="62.5781"/><rect fill="#FEFECE" filter="url(#fg4r9n4azk2cr)" height="31.6094" style="stroke: #A80036; stroke-width: 1.5;" width="173" x="89" y="66.5781"/><text fill="#000000" font-family="sans-serif" font-size="14" lengthAdjust="spacingAndGlyphs" textLength="159" x="96" y="88.1113">Inbound Message Queue</text><rect fill="#FEFECE" filter="url(#fg4r9n4azk2cr)" height="31.6094" style="stroke: #A80036; stroke-width: 1.5;" width="173" x="93" y="182.8906"/><rect fill="#FEFECE" filter="url(#fg4r9n4azk2cr)" height="31.6094" style="stroke: #A80036; stroke-width: 1.5;" width="173" x="89" y="186.8906"/><text fill="#000000" font-family="sans-serif" font-size="14" lengthAdjust="spacingAndGlyphs" textLength="159" x="96" y="208.4238">Inbound Message Queue</text><text fill="#000000" font-family="sans-serif" font-size="14" lengthAdjust="spacingAndGlyphs" textLength="100" x="280" y="100.1113">Medical director</text><ellipse cx="333" cy="28.5781" fill="#FEFECE" filter="url(#fg4r9n4azk2cr)" rx="8" ry="8" style="stroke: #A80036; stroke-width: 2.0;"/><path d="M333,36.5781 L333,63.5781 M320,44.5781 L346,44.5781 M333,63.5781 L320,78.5781 M333,63.5781 L346,78.5781 " fill="none" filter="url(#fg4r9n4azk2cr)" style="stroke: #A80036; stroke-width: 2.0;"/><text fill="#000000" font-family="sans-serif" font-size="14" lengthAdjust="spacingAndGlyphs" textLength="100" x="280" y="197.4238">Medical director</text><ellipse cx="333" cy="210.5" fill="#FEFECE" filter="url(#fg4r9n4azk2cr)" rx="8" ry="8" style="stroke: #A80036; stroke-width: 2.0;"/><path d="M333,218.5 L333,245.5 M320,226.5 L346,226.5 M333,245.5 L320,260.5 M333,245.5 L346,260.5 " fill="none" filter="url(#fg4r9n4azk2cr)" style="stroke: #A80036; stroke-width: 2.0;"/><polygon fill="#A80036" points="167.5,131.5391,177.5,135.5391,167.5,139.5391,171.5,135.5391" style="stroke: #A80036; stroke-width: 1.0;"/><line style="stroke: #A80036; stroke-width: 1.0; stroke-dasharray: 2.0,2.0;" x1="43.5" x2="173.5" y1="135.5391" y2="135.5391"/><text fill="#000000" font-family="sans-serif" font-size="13" lengthAdjust="spacingAndGlyphs" textLength="85" x="50.5" y="130.6826">send message</text><polygon fill="#A80036" points="321,161.8906,331,165.8906,321,169.8906,325,165.8906" style="stroke: #A80036; stroke-width: 1.0;"/><line style="stroke: #A80036; stroke-width: 1.0; stroke-dasharray: 2.0,2.0;" x1="179.5" x2="327" y1="165.8906" y2="165.8906"/><text fill="#000000" font-family="sans-serif" font-size="13" lengthAdjust="spacingAndGlyphs" textLength="85" x="186.5" y="161.0342">send message</text><text fill="#888888" font-family="sans-serif" font-size="10" lengthAdjust="spacingAndGlyphs" textLength="123" x="268" y="13.3809">center_call_medical_001</text><!--MD5=[7375a623eeff6d636166c68a0f1113d2]
@startuml
Header center_call_medical_001
  actor "ศูนย์สั่งการ" as OIS
  collections "Inbound Message Queue" as inbound
  OIS - -> inbound : send message
  actor "Medical director" as Medical
  inbound - -> Medical : send message
@enduml

PlantUML version 1.2020.17(Sat Sep 19 19:30:11 ICT 2020)
(MIT source distribution)
Java Runtime: Java(TM) SE Runtime Environment
JVM: Java HotSpot(TM) 64-Bit Server VM
Default Encoding: MS874
Language: en
Country: US
--></g></svg>