<?xml version="1.0" encoding="UTF-8" standalone="no"?><svg xmlns="http://www.w3.org/2000/svg" xmlns:xlink="http://www.w3.org/1999/xlink" contentScriptType="application/ecmascript" contentStyleType="text/css" height="272px" preserveAspectRatio="none" style="width:345px;height:272px;" version="1.1" viewBox="0 0 345 272" width="345px" zoomAndPan="magnify">
    <defs>
        <filter height="300%" id="fw1c8va5kkwe" width="300%" x="-1" y="-1">
            <feGaussianBlur result="blurOut" stdDeviation="2.0" />
            <feColorMatrix in="blurOut" result="blurOut2" type="matrix" values="0 0 0 0 0 0 0 0 0 0 0 0 0 0 0 0 0 0 .4 0" />
            <feOffset dx="4.0" dy="4.0" in="blurOut2" result="blurOut3" />
            <feBlend in="SourceGraphic" in2="blurOut3" mode="normal" />
        </filter>
    </defs>
    <g>
        <line style="stroke: #A80036; stroke-width: 1.0; stroke-dasharray: 5.0,5.0;" x1="43" x2="43" y1="103.1875" y2="183.8906" />
        <line style="stroke: #A80036; stroke-width: 1.0; stroke-dasharray: 5.0,5.0;" x1="152.5" x2="152.5" y1="103.1875" y2="183.8906" />
        <line style="stroke: #A80036; stroke-width: 1.0; stroke-dasharray: 5.0,5.0;" x1="275.5" x2="275.5" y1="103.1875" y2="183.8906" /><text fill="#000000" font-family="sans-serif" font-size="14" lengthAdjust="spacingAndGlyphs" textLength="65" x="8" y="100.1113">ศูนย์สั่งการ</text>
        <ellipse cx="43.5" cy="28.5781" fill="#FEFECE" filter="url(#fw1c8va5kkwe)" rx="8" ry="8" style="stroke: #A80036; stroke-width: 2.0;" />
        <path d="M43.5,36.5781 L43.5,63.5781 M30.5,44.5781 L56.5,44.5781 M43.5,63.5781 L30.5,78.5781 M43.5,63.5781 L56.5,78.5781 " fill="none" filter="url(#fw1c8va5kkwe)" style="stroke: #A80036; stroke-width: 2.0;" /><text fill="#000000" font-family="sans-serif" font-size="14" lengthAdjust="spacingAndGlyphs" textLength="65" x="8" y="197.4238">ศูนย์สั่งการ</text>
        <ellipse cx="43.5" cy="210.5" fill="#FEFECE" filter="url(#fw1c8va5kkwe)" rx="8" ry="8" style="stroke: #A80036; stroke-width: 2.0;" />
        <path d="M43.5,218.5 L43.5,245.5 M30.5,226.5 L56.5,226.5 M43.5,245.5 L30.5,260.5 M43.5,245.5 L56.5,260.5 " fill="none" filter="url(#fw1c8va5kkwe)" style="stroke: #A80036; stroke-width: 2.0;" />
        <rect fill="#FEFECE" filter="url(#fw1c8va5kkwe)" height="31.6094" style="stroke: #A80036; stroke-width: 1.5;" width="112" x="96.5" y="62.5781" />
        <rect fill="#FEFECE" filter="url(#fw1c8va5kkwe)" height="31.6094" style="stroke: #A80036; stroke-width: 1.5;" width="112" x="92.5" y="66.5781" /><text fill="#000000" font-family="sans-serif" font-size="14" lengthAdjust="spacingAndGlyphs" textLength="98" x="99.5" y="88.1113">Inbound Queue</text>
        <rect fill="#FEFECE" filter="url(#fw1c8va5kkwe)" height="31.6094" style="stroke: #A80036; stroke-width: 1.5;" width="112" x="96.5" y="182.8906" />
        <rect fill="#FEFECE" filter="url(#fw1c8va5kkwe)" height="31.6094" style="stroke: #A80036; stroke-width: 1.5;" width="112" x="92.5" y="186.8906" /><text fill="#000000" font-family="sans-serif" font-size="14" lengthAdjust="spacingAndGlyphs" textLength="98" x="99.5" y="208.4238">Inbound Queue</text><text fill="#000000" font-family="sans-serif" font-size="14" lengthAdjust="spacingAndGlyphs" textLength="100" x="222.5" y="100.1113">Medical director</text>
        <ellipse cx="275.5" cy="28.5781" fill="#FEFECE" filter="url(#fw1c8va5kkwe)" rx="8" ry="8" style="stroke: #A80036; stroke-width: 2.0;" />
        <path d="M275.5,36.5781 L275.5,63.5781 M262.5,44.5781 L288.5,44.5781 M275.5,63.5781 L262.5,78.5781 M275.5,63.5781 L288.5,78.5781 " fill="none" filter="url(#fw1c8va5kkwe)" style="stroke: #A80036; stroke-width: 2.0;" /><text fill="#000000" font-family="sans-serif" font-size="14" lengthAdjust="spacingAndGlyphs" textLength="100" x="222.5" y="197.4238">Medical director</text>
        <ellipse cx="275.5" cy="210.5" fill="#FEFECE" filter="url(#fw1c8va5kkwe)" rx="8" ry="8" style="stroke: #A80036; stroke-width: 2.0;" />
        <path d="M275.5,218.5 L275.5,245.5 M262.5,226.5 L288.5,226.5 M275.5,245.5 L262.5,260.5 M275.5,245.5 L288.5,260.5 " fill="none" filter="url(#fw1c8va5kkwe)" style="stroke: #A80036; stroke-width: 2.0;" />
        <polygon fill="#A80036" points="140.5,131.5391,150.5,135.5391,140.5,139.5391,144.5,135.5391" style="stroke: #A80036; stroke-width: 1.0;" />
        <line style="stroke: #A80036; stroke-width: 1.0; stroke-dasharray: 2.0,2.0;" x1="43.5" x2="146.5" y1="135.5391" y2="135.5391" /><text fill="#000000" font-family="sans-serif" font-size="13" lengthAdjust="spacingAndGlyphs" textLength="85" x="50.5" y="130.6826">send message</text>
        <polygon fill="#A80036" points="263.5,161.8906,273.5,165.8906,263.5,169.8906,267.5,165.8906" style="stroke: #A80036; stroke-width: 1.0;" />
        <line style="stroke: #A80036; stroke-width: 1.0; stroke-dasharray: 2.0,2.0;" x1="152.5" x2="269.5" y1="165.8906" y2="165.8906" /><text fill="#000000" font-family="sans-serif" font-size="13" lengthAdjust="spacingAndGlyphs" textLength="85" x="159.5" y="161.0342">send message</text><text fill="#888888" font-family="sans-serif" font-size="10" lengthAdjust="spacingAndGlyphs" textLength="123" x="210.5" y="13.3809">center_call_medical_001</text>
        <!--MD5=[6a3c4e0bc9b9c2d5cac7fced6eeaab25]
@startuml
Header center_call_medical_001
  actor "ศูนย์สั่งการ" as OIS
  collections "Inbound Queue" as inbound
  OIS - -> inbound : send message
  actor "Medical director" as Medical
  inbound - -> Medical : send message
@enduml

PlantUML version 1.2020.02(Sun Mar 01 17:22:07 ICT 2020)
(GPL source distribution)
Java Runtime: Java(TM) SE Runtime Environment
JVM: Java HotSpot(TM) 64-Bit Server VM
Java Version: 1.8.0_181-b13
Operating System: Windows 10
Default Encoding: MS874
Language: en
Country: US
-->
    </g>
</svg>