<?xml version="1.0" encoding="UTF-8" standalone="no"?><svg xmlns="http://www.w3.org/2000/svg" xmlns:xlink="http://www.w3.org/1999/xlink" contentScriptType="application/ecmascript" contentStyleType="text/css" height="336px" preserveAspectRatio="none" style="width:356px;height:336px;" version="1.1" viewBox="0 0 356 336" width="356px" zoomAndPan="magnify">
    <defs>
        <filter height="300%" id="fydsdz6jw8dlj" width="300%" x="-1" y="-1">
            <feGaussianBlur result="blurOut" stdDeviation="2.0" />
            <feColorMatrix in="blurOut" result="blurOut2" type="matrix" values="0 0 0 0 0 0 0 0 0 0 0 0 0 0 0 0 0 0 .4 0" />
            <feOffset dx="4.0" dy="4.0" in="blurOut2" result="blurOut3" />
            <feBlend in="SourceGraphic" in2="blurOut3" mode="normal" />
        </filter>
    </defs>
    <g><text fill="#000000" font-family="sans-serif" font-size="18" lengthAdjust="spacingAndGlyphs" textLength="70" x="142" y="28.6855">Dispatch</text>
        <line style="stroke: #A80036; stroke-width: 1.0; stroke-dasharray: 5.0,5.0;" x1="23" x2="23" y1="124.25" y2="248.3047" />
        <line style="stroke: #A80036; stroke-width: 1.0; stroke-dasharray: 5.0,5.0;" x1="163.5" x2="163.5" y1="124.25" y2="248.3047" /><text fill="#000000" font-family="sans-serif" font-size="14" lengthAdjust="spacingAndGlyphs" textLength="23" x="8.5" y="121.1738">OIS</text>
        <ellipse cx="23" cy="49.6406" fill="#FEFECE" filter="url(#fydsdz6jw8dlj)" rx="8" ry="8" style="stroke: #A80036; stroke-width: 2.0;" />
        <path d="M23,57.6406 L23,84.6406 M10,65.6406 L36,65.6406 M23,84.6406 L10,99.6406 M23,84.6406 L36,99.6406 " fill="none" filter="url(#fydsdz6jw8dlj)" style="stroke: #A80036; stroke-width: 2.0;" /><text fill="#000000" font-family="sans-serif" font-size="14" lengthAdjust="spacingAndGlyphs" textLength="23" x="8.5" y="261.8379">OIS</text>
        <ellipse cx="23" cy="274.9141" fill="#FEFECE" filter="url(#fydsdz6jw8dlj)" rx="8" ry="8" style="stroke: #A80036; stroke-width: 2.0;" />
        <path d="M23,282.9141 L23,309.9141 M10,290.9141 L36,290.9141 M23,309.9141 L10,324.9141 M23,309.9141 L36,324.9141 " fill="none" filter="url(#fydsdz6jw8dlj)" style="stroke: #A80036; stroke-width: 2.0;" />
        <rect fill="#FEFECE" filter="url(#fydsdz6jw8dlj)" height="31.6094" style="stroke: #A80036; stroke-width: 1.5;" width="37" x="143.5" y="87.6406" /><text fill="#000000" font-family="sans-serif" font-size="14" lengthAdjust="spacingAndGlyphs" textLength="23" x="150.5" y="109.1738">MIS</text>
        <rect fill="#FEFECE" filter="url(#fydsdz6jw8dlj)" height="31.6094" style="stroke: #A80036; stroke-width: 1.5;" width="37" x="143.5" y="247.3047" /><text fill="#000000" font-family="sans-serif" font-size="14" lengthAdjust="spacingAndGlyphs" textLength="23" x="150.5" y="268.8379">MIS</text>
        <polygon fill="#A80036" points="152,152.6016,162,156.6016,152,160.6016,156,156.6016" style="stroke: #A80036; stroke-width: 1.0;" />
        <line style="stroke: #A80036; stroke-width: 1.0;" x1="23" x2="158" y1="156.6016" y2="156.6016" /><text fill="#000000" font-family="sans-serif" font-size="13" lengthAdjust="spacingAndGlyphs" textLength="117" x="30" y="151.7451">ส่งคำสั่งเปิดปฏิบัติการ</text>
        <line style="stroke: #A80036; stroke-width: 1.0;" x1="164" x2="206" y1="186.9531" y2="186.9531" />
        <line style="stroke: #A80036; stroke-width: 1.0;" x1="206" x2="206" y1="186.9531" y2="199.9531" />
        <line style="stroke: #A80036; stroke-width: 1.0;" x1="165" x2="206" y1="199.9531" y2="199.9531" />
        <polygon fill="#A80036" points="175,195.9531,165,199.9531,175,203.9531,171,199.9531" style="stroke: #A80036; stroke-width: 1.0;" /><text fill="#000000" font-family="sans-serif" font-size="13" lengthAdjust="spacingAndGlyphs" textLength="173" x="171" y="182.0967">สร้างห้อง MIS สำหรับปฏิบัติการ</text>
        <polygon fill="#A80036" points="34,226.3047,24,230.3047,34,234.3047,30,230.3047" style="stroke: #A80036; stroke-width: 1.0;" />
        <line style="stroke: #A80036; stroke-width: 1.0;" x1="28" x2="163" y1="230.3047" y2="230.3047" /><text fill="#000000" font-family="sans-serif" font-size="13" lengthAdjust="spacingAndGlyphs" textLength="100" x="40" y="225.4482">หมายเลขห้อง MIS</text>
        <!--MD5=[35ac0e26b23596ac3bb525a0d595ddfa]
@startuml
Title Dispatch
actor OIS
  OIS -> MIS: ส่งคำสั่งเปิดปฏิบัติการ
  MIS -> MIS: สร้างห้อง MIS สำหรับปฏิบัติการ
  OIS <- MIS: หมายเลขห้อง MIS
@enduml

PlantUML version 1.2020.02(Sun Mar 01 17:22:07 ICT 2020)
(GPL source distribution)
Java Runtime: Java(TM) SE Runtime Environment
JVM: Java HotSpot(TM) 64-Bit Server VM
Java Version: 1.8.0_181-b13
Operating System: Windows 10
Default Encoding: MS874
Language: en
Country: US
-->
    </g>
</svg>