<?xml version="1.0" encoding="UTF-8" standalone="no"?><svg xmlns="http://www.w3.org/2000/svg" xmlns:xlink="http://www.w3.org/1999/xlink" contentScriptType="application/ecmascript" contentStyleType="text/css" height="336px" preserveAspectRatio="none" style="width:369px;height:336px;" version="1.1" viewBox="0 0 369 336" width="369px" zoomAndPan="magnify"><defs><filter height="300%" id="fa8kenftxoko3" width="300%" x="-1" y="-1"><feGaussianBlur result="blurOut" stdDeviation="2.0"/><feColorMatrix in="blurOut" result="blurOut2" type="matrix" values="0 0 0 0 0 0 0 0 0 0 0 0 0 0 0 0 0 0 .4 0"/><feOffset dx="4.0" dy="4.0" in="blurOut2" result="blurOut3"/><feBlend in="SourceGraphic" in2="blurOut3" mode="normal"/></filter></defs><g><text fill="#000000" font-family="sans-serif" font-size="18" lengthAdjust="spacingAndGlyphs" textLength="70" x="148.5" y="28.6855">Dispatch</text><line style="stroke: #A80036; stroke-width: 1.0; stroke-dasharray: 5.0,5.0;" x1="23" x2="23" y1="124.25" y2="248.3047"/><line style="stroke: #A80036; stroke-width: 1.0; stroke-dasharray: 5.0,5.0;" x1="176.5" x2="176.5" y1="124.25" y2="248.3047"/><text fill="#000000" font-family="sans-serif" font-size="14" lengthAdjust="spacingAndGlyphs" textLength="23" x="8.5" y="121.1738">OIS</text><ellipse cx="23" cy="49.6406" fill="#FEFECE" filter="url(#fa8kenftxoko3)" rx="8" ry="8" style="stroke: #A80036; stroke-width: 2.0;"/><path d="M23,57.6406 L23,84.6406 M10,65.6406 L36,65.6406 M23,84.6406 L10,99.6406 M23,84.6406 L36,99.6406 " fill="none" filter="url(#fa8kenftxoko3)" style="stroke: #A80036; stroke-width: 2.0;"/><text fill="#000000" font-family="sans-serif" font-size="14" lengthAdjust="spacingAndGlyphs" textLength="23" x="8.5" y="261.8379">OIS</text><ellipse cx="23" cy="274.9141" fill="#FEFECE" filter="url(#fa8kenftxoko3)" rx="8" ry="8" style="stroke: #A80036; stroke-width: 2.0;"/><path d="M23,282.9141 L23,309.9141 M10,290.9141 L36,290.9141 M23,309.9141 L10,324.9141 M23,309.9141 L36,324.9141 " fill="none" filter="url(#fa8kenftxoko3)" style="stroke: #A80036; stroke-width: 2.0;"/><rect fill="#FEFECE" filter="url(#fa8kenftxoko3)" height="31.6094" style="stroke: #A80036; stroke-width: 1.5;" width="37" x="156.5" y="87.6406"/><text fill="#000000" font-family="sans-serif" font-size="14" lengthAdjust="spacingAndGlyphs" textLength="23" x="163.5" y="109.1738">MIS</text><rect fill="#FEFECE" filter="url(#fa8kenftxoko3)" height="31.6094" style="stroke: #A80036; stroke-width: 1.5;" width="37" x="156.5" y="247.3047"/><text fill="#000000" font-family="sans-serif" font-size="14" lengthAdjust="spacingAndGlyphs" textLength="23" x="163.5" y="268.8379">MIS</text><polygon fill="#A80036" points="165,152.6016,175,156.6016,165,160.6016,169,156.6016" style="stroke: #A80036; stroke-width: 1.0;"/><line style="stroke: #A80036; stroke-width: 1.0;" x1="23" x2="171" y1="156.6016" y2="156.6016"/><text fill="#000000" font-family="sans-serif" font-size="13" lengthAdjust="spacingAndGlyphs" textLength="117" x="30" y="151.7451">ส่งคำสั่งเปิดปฏิบัติการ</text><line style="stroke: #A80036; stroke-width: 1.0;" x1="177" x2="219" y1="186.9531" y2="186.9531"/><line style="stroke: #A80036; stroke-width: 1.0;" x1="219" x2="219" y1="186.9531" y2="199.9531"/><line style="stroke: #A80036; stroke-width: 1.0;" x1="178" x2="219" y1="199.9531" y2="199.9531"/><polygon fill="#A80036" points="188,195.9531,178,199.9531,188,203.9531,184,199.9531" style="stroke: #A80036; stroke-width: 1.0;"/><text fill="#000000" font-family="sans-serif" font-size="13" lengthAdjust="spacingAndGlyphs" textLength="173" x="184" y="182.0967">สร้างห้อง MIS สำหรับปฏิบัติการ</text><polygon fill="#A80036" points="34,226.3047,24,230.3047,34,234.3047,30,230.3047" style="stroke: #A80036; stroke-width: 1.0;"/><line style="stroke: #A80036; stroke-width: 1.0;" x1="28" x2="176" y1="230.3047" y2="230.3047"/><text fill="#000000" font-family="sans-serif" font-size="13" lengthAdjust="spacingAndGlyphs" textLength="130" x="40" y="225.4482">Id + Link ห้องปฏิบัติการ</text><!--MD5=[c5c30403255db188d0ea56665c4e3668]
@startuml
Title Dispatch
actor OIS
  OIS -> MIS: ส่งคำสั่งเปิดปฏิบัติการ
  MIS -> MIS: สร้างห้อง MIS สำหรับปฏิบัติการ
  OIS <- MIS: Id + Link ห้องปฏิบัติการ
@enduml

PlantUML version 1.2020.17(Sat Sep 19 19:30:11 ICT 2020)
(MIT source distribution)
Java Runtime: Java(TM) SE Runtime Environment
JVM: Java HotSpot(TM) 64-Bit Server VM
Default Encoding: Cp1252
Language: en
Country: US
--></g></svg>