<?xml version="1.0" encoding="UTF-8" standalone="no"?><svg xmlns="http://www.w3.org/2000/svg" xmlns:xlink="http://www.w3.org/1999/xlink" contentScriptType="application/ecmascript" contentStyleType="text/css" height="336px" preserveAspectRatio="none" style="width:383px;height:336px;" version="1.1" viewBox="0 0 383 336" width="383px" zoomAndPan="magnify"><defs><filter height="300%" id="f42ovogq8jdzf" width="300%" x="-1" y="-1"><feGaussianBlur result="blurOut" stdDeviation="2.0"/><feColorMatrix in="blurOut" result="blurOut2" type="matrix" values="0 0 0 0 0 0 0 0 0 0 0 0 0 0 0 0 0 0 .4 0"/><feOffset dx="4.0" dy="4.0" in="blurOut2" result="blurOut3"/><feBlend in="SourceGraphic" in2="blurOut3" mode="normal"/></filter></defs><g><text fill="#000000" font-family="sans-serif" font-size="18" lengthAdjust="spacingAndGlyphs" textLength="70" x="155.75" y="28.6855">Dispatch</text><line style="stroke: #A80036; stroke-width: 1.0; stroke-dasharray: 5.0,5.0;" x1="50" x2="50" y1="124.25" y2="248.3047"/><line style="stroke: #A80036; stroke-width: 1.0; stroke-dasharray: 5.0,5.0;" x1="191" x2="191" y1="124.25" y2="248.3047"/><text fill="#000000" font-family="sans-serif" font-size="14" lengthAdjust="spacingAndGlyphs" textLength="79" x="8" y="121.1738">OIS Platform</text><ellipse cx="50.5" cy="49.6406" fill="#FEFECE" filter="url(#f42ovogq8jdzf)" rx="8" ry="8" style="stroke: #A80036; stroke-width: 2.0;"/><path d="M50.5,57.6406 L50.5,84.6406 M37.5,65.6406 L63.5,65.6406 M50.5,84.6406 L37.5,99.6406 M50.5,84.6406 L63.5,99.6406 " fill="none" filter="url(#f42ovogq8jdzf)" style="stroke: #A80036; stroke-width: 2.0;"/><text fill="#000000" font-family="sans-serif" font-size="14" lengthAdjust="spacingAndGlyphs" textLength="79" x="8" y="261.8379">OIS Platform</text><ellipse cx="50.5" cy="274.9141" fill="#FEFECE" filter="url(#f42ovogq8jdzf)" rx="8" ry="8" style="stroke: #A80036; stroke-width: 2.0;"/><path d="M50.5,282.9141 L50.5,309.9141 M37.5,290.9141 L63.5,290.9141 M50.5,309.9141 L37.5,324.9141 M50.5,309.9141 L63.5,324.9141 " fill="none" filter="url(#f42ovogq8jdzf)" style="stroke: #A80036; stroke-width: 2.0;"/><rect fill="#FEFECE" filter="url(#f42ovogq8jdzf)" height="31.6094" style="stroke: #A80036; stroke-width: 1.5;" width="93" x="143" y="87.6406"/><text fill="#000000" font-family="sans-serif" font-size="14" lengthAdjust="spacingAndGlyphs" textLength="79" x="150" y="109.1738">MIS Platform</text><rect fill="#FEFECE" filter="url(#f42ovogq8jdzf)" height="31.6094" style="stroke: #A80036; stroke-width: 1.5;" width="93" x="143" y="247.3047"/><text fill="#000000" font-family="sans-serif" font-size="14" lengthAdjust="spacingAndGlyphs" textLength="79" x="150" y="268.8379">MIS Platform</text><polygon fill="#A80036" points="179.5,152.6016,189.5,156.6016,179.5,160.6016,183.5,156.6016" style="stroke: #A80036; stroke-width: 1.0;"/><line style="stroke: #A80036; stroke-width: 1.0;" x1="50.5" x2="185.5" y1="156.6016" y2="156.6016"/><text fill="#000000" font-family="sans-serif" font-size="13" lengthAdjust="spacingAndGlyphs" textLength="117" x="57.5" y="151.7451">ส่งคำสั่งเปิดปฏิบัติการ</text><line style="stroke: #A80036; stroke-width: 1.0;" x1="191.5" x2="233.5" y1="186.9531" y2="186.9531"/><line style="stroke: #A80036; stroke-width: 1.0;" x1="233.5" x2="233.5" y1="186.9531" y2="199.9531"/><line style="stroke: #A80036; stroke-width: 1.0;" x1="192.5" x2="233.5" y1="199.9531" y2="199.9531"/><polygon fill="#A80036" points="202.5,195.9531,192.5,199.9531,202.5,203.9531,198.5,199.9531" style="stroke: #A80036; stroke-width: 1.0;"/><text fill="#000000" font-family="sans-serif" font-size="13" lengthAdjust="spacingAndGlyphs" textLength="173" x="198.5" y="182.0967">สร้างห้อง MIS สำหรับปฏิบัติการ</text><polygon fill="#A80036" points="61.5,226.3047,51.5,230.3047,61.5,234.3047,57.5,230.3047" style="stroke: #A80036; stroke-width: 1.0;"/><line style="stroke: #A80036; stroke-width: 1.0;" x1="55.5" x2="190.5" y1="230.3047" y2="230.3047"/><text fill="#000000" font-family="sans-serif" font-size="13" lengthAdjust="spacingAndGlyphs" textLength="100" x="67.5" y="225.4482">หมายเลขห้อง MIS</text><!--MD5=[7952c127fa7fc936706b4adcbd158120]
@startuml
Title Dispatch
actor "OIS Platform" as OIS
  OIS -> "MIS Platform": ส่งคำสั่งเปิดปฏิบัติการ
  "MIS Platform" -> "MIS Platform": สร้างห้อง MIS สำหรับปฏิบัติการ
  OIS <- "MIS Platform": หมายเลขห้อง MIS
@enduml

PlantUML version 1.2020.17(Sat Sep 19 19:30:11 ICT 2020)
(MIT source distribution)
Java Runtime: Java(TM) SE Runtime Environment
JVM: Java HotSpot(TM) 64-Bit Server VM
Default Encoding: MS874
Language: en
Country: US
--></g></svg>