<?xml version="1.0" encoding="UTF-8" standalone="no"?><svg xmlns="http://www.w3.org/2000/svg" xmlns:xlink="http://www.w3.org/1999/xlink" contentScriptType="application/ecmascript" contentStyleType="text/css" height="1516px" preserveAspectRatio="none" style="width:2665px;height:1516px;" version="1.1" viewBox="0 0 2665 1516" width="2665px" zoomAndPan="magnify">
    <defs>
        <filter height="300%" id="frjzq1ztyd5oa" width="300%" x="-1" y="-1">
            <feGaussianBlur result="blurOut" stdDeviation="2.0" />
            <feColorMatrix in="blurOut" result="blurOut2" type="matrix" values="0 0 0 0 0 0 0 0 0 0 0 0 0 0 0 0 0 0 .4 0" />
            <feOffset dx="4.0" dy="4.0" in="blurOut2" result="blurOut3" />
            <feBlend in="SourceGraphic" in2="blurOut3" mode="normal" />
        </filter>
    </defs>
    <g><text fill="#000000" font-family="sans-serif" font-size="18" lengthAdjust="spacingAndGlyphs" textLength="75" x="1298" y="18.6855">Use case</text>
        <rect fill="#FFFFFF" filter="url(#frjzq1ztyd5oa)" height="215" style="stroke: #000000; stroke-width: 1.5;" width="128" x="910" y="903.6406" />
        <rect fill="#FFFFFF" filter="url(#frjzq1ztyd5oa)" height="238" style="stroke: #000000; stroke-width: 1.5;" width="282" x="270" y="1151.6406" />
        <rect fill="#FFFFFF" filter="url(#frjzq1ztyd5oa)" height="276" style="stroke: #000000; stroke-width: 1.5;" width="221" x="207" y="46.6406" />
        <rect fill="#FFFFFF" filter="url(#frjzq1ztyd5oa)" height="276" style="stroke: #000000; stroke-width: 1.5;" width="124" x="687" y="479.6406" />
        <rect fill="#FFFFFF" filter="url(#frjzq1ztyd5oa)" height="428.5" style="stroke: #000000; stroke-width: 1.5;" width="335" x="1609" y="797.1406" />
        <rect fill="#FFFFFF" filter="url(#frjzq1ztyd5oa)" height="365" style="stroke: #000000; stroke-width: 1.5;" width="217" x="2257" y="505.6406" />
        <!--MD5=[917b4abc6a241353bf80a0ce7e5ed3ff]
cluster OIS-->
        <polygon fill="#FFFFFF" filter="url(#frjzq1ztyd5oa)" points="1769,1284.6406,1799,1284.6406,1806,1308.25,2360,1308.25,2360,1504.6406,1769,1504.6406,1769,1284.6406" style="stroke: #000000; stroke-width: 1.5;" />
        <line style="stroke: #000000; stroke-width: 1.5;" x1="1769" x2="1806" y1="1308.25" y2="1308.25" /><text fill="#000000" font-family="sans-serif" font-size="14" font-weight="bold" lengthAdjust="spacingAndGlyphs" textLength="24" x="1773" y="1301.1738">OIS</text>
        <ellipse cx="974.0733" cy="945.3916" fill="#FEFECE" filter="url(#frjzq1ztyd5oa)" rx="47.5733" ry="25.7509" style="stroke: #A80036; stroke-width: 1.5;" /><text fill="#000000" font-family="sans-serif" font-size="14" lengthAdjust="spacingAndGlyphs" textLength="36" x="956.0733" y="938.6876">Grant</text><text fill="#000000" font-family="sans-serif" font-size="14" lengthAdjust="spacingAndGlyphs" textLength="69" x="939.5733" y="956.297">Permission</text>
        <ellipse cx="962.1666" cy="1076.3739" fill="#FEFECE" filter="url(#frjzq1ztyd5oa)" rx="32.6666" ry="26.7333" style="stroke: #A80036; stroke-width: 1.5;" /><text fill="#000000" font-family="sans-serif" font-size="14" lengthAdjust="spacingAndGlyphs" textLength="43" x="940.6666" y="1074.13">Recive</text><text fill="#000000" font-family="sans-serif" font-size="14" lengthAdjust="spacingAndGlyphs" textLength="36" x="944.1666" y="1091.7394">Grant</text>
        <ellipse cx="322.9159" cy="1194.1779" fill="#FEFECE" filter="url(#frjzq1ztyd5oa)" rx="36.4159" ry="26.5373" style="stroke: #A80036; stroke-width: 1.5;" /><text fill="#000000" font-family="sans-serif" font-size="14" lengthAdjust="spacingAndGlyphs" textLength="50" x="297.9159" y="1192.6695">Meeting</text><text fill="#000000" font-family="sans-serif" font-size="14" lengthAdjust="spacingAndGlyphs" textLength="37" x="304.4159" y="1210.2789">Room</text>
        <ellipse cx="318.0952" cy="1347.0168" fill="#FEFECE" filter="url(#frjzq1ztyd5oa)" rx="31.5952" ry="25.8761" style="stroke: #A80036; stroke-width: 1.5;" /><text fill="#000000" font-family="sans-serif" font-size="14" lengthAdjust="spacingAndGlyphs" textLength="36" x="300.0952" y="1343.3509">Close</text><text fill="#000000" font-family="sans-serif" font-size="14" lengthAdjust="spacingAndGlyphs" textLength="37" x="299.5952" y="1360.9603">Room</text>
        <ellipse cx="465.146" cy="1193.9061" fill="#FEFECE" filter="url(#frjzq1ztyd5oa)" rx="70.646" ry="25.2655" style="stroke: #A80036; stroke-width: 1.5;" /><text fill="#000000" font-family="sans-serif" font-size="14" lengthAdjust="spacingAndGlyphs" textLength="33" x="448.646" y="1186.4225">Invite</text><text fill="#000000" font-family="sans-serif" font-size="14" lengthAdjust="spacingAndGlyphs" textLength="107" x="411.646" y="1204.0319">to Meeting Room</text>
        <ellipse cx="502.7647" cy="1347.0524" fill="#FEFECE" filter="url(#frjzq1ztyd5oa)" rx="32.2647" ry="26.4118" style="stroke: #A80036; stroke-width: 1.5;" /><text fill="#000000" font-family="sans-serif" font-size="14" lengthAdjust="spacingAndGlyphs" textLength="43" x="481.2647" y="1345.2787">Recive</text><text fill="#000000" font-family="sans-serif" font-size="14" lengthAdjust="spacingAndGlyphs" textLength="33" x="486.2647" y="1362.8881">Invite</text>
        <!--MD5=[1dcae5ec17ace9dcc055d87e1424e99f]
entity Supervisor-->
        <ellipse cx="269" cy="72.1406" fill="#FEFECE" filter="url(#frjzq1ztyd5oa)" rx="8" ry="8" style="stroke: #A80036; stroke-width: 1.5;" />
        <path d="M269,80.1406 L269,107.1406 M256,88.1406 L282,88.1406 M269,107.1406 L256,122.1406 M269,107.1406 L282,122.1406 " fill="none" filter="url(#frjzq1ztyd5oa)" style="stroke: #A80036; stroke-width: 1.5;" /><text fill="#000000" font-family="sans-serif" font-size="14" lengthAdjust="spacingAndGlyphs" textLength="68" x="235" y="142.1738">Supervisor</text>
        <!--MD5=[dfd4219ae26b16e6e974a23a737c25b1]
entity Coordinator-->
        <ellipse cx="261" cy="233.1406" fill="#FEFECE" filter="url(#frjzq1ztyd5oa)" rx="8" ry="8" style="stroke: #A80036; stroke-width: 1.5;" />
        <path d="M261,241.1406 L261,268.1406 M248,249.1406 L274,249.1406 M261,268.1406 L248,283.1406 M261,268.1406 L274,283.1406 " fill="none" filter="url(#frjzq1ztyd5oa)" style="stroke: #A80036; stroke-width: 1.5;" /><text fill="#000000" font-family="sans-serif" font-size="14" lengthAdjust="spacingAndGlyphs" textLength="75" x="223.5" y="303.1738">Coordinator</text>
        <!--MD5=[8438b603195005c18d5011c1879083f4]
entity Dispatcher-->
        <ellipse cx="378" cy="233.1406" fill="#FEFECE" filter="url(#frjzq1ztyd5oa)" rx="8" ry="8" style="stroke: #A80036; stroke-width: 1.5;" />
        <path d="M378,241.1406 L378,268.1406 M365,249.1406 L391,249.1406 M378,268.1406 L365,283.1406 M378,268.1406 L391,283.1406 " fill="none" filter="url(#frjzq1ztyd5oa)" style="stroke: #A80036; stroke-width: 1.5;" /><text fill="#000000" font-family="sans-serif" font-size="14" lengthAdjust="spacingAndGlyphs" textLength="68" x="344" y="303.1738">Dispatcher</text>
        <!--MD5=[8c69140241d2a8b22aee4c2edeaeb65f]
entity CallTaker-->
        <ellipse cx="381" cy="72.1406" fill="#FEFECE" filter="url(#frjzq1ztyd5oa)" rx="8" ry="8" style="stroke: #A80036; stroke-width: 1.5;" />
        <path d="M381,80.1406 L381,107.1406 M368,88.1406 L394,88.1406 M381,107.1406 L368,122.1406 M381,107.1406 L394,122.1406 " fill="none" filter="url(#frjzq1ztyd5oa)" style="stroke: #A80036; stroke-width: 1.5;" /><text fill="#000000" font-family="sans-serif" font-size="14" lengthAdjust="spacingAndGlyphs" textLength="61" x="350.5" y="142.1738">CallTaker</text>
        <!--MD5=[1263a788717e7841c6c3a70e1586692b]
entity Specialist-->
        <ellipse cx="733" cy="505.1406" fill="#FEFECE" filter="url(#frjzq1ztyd5oa)" rx="8" ry="8" style="stroke: #A80036; stroke-width: 1.5;" />
        <path d="M733,513.1406 L733,540.1406 M720,521.1406 L746,521.1406 M733,540.1406 L720,555.1406 M733,540.1406 L746,555.1406 " fill="none" filter="url(#frjzq1ztyd5oa)" style="stroke: #A80036; stroke-width: 1.5;" /><text fill="#000000" font-family="sans-serif" font-size="14" lengthAdjust="spacingAndGlyphs" textLength="60" x="703" y="575.1738">Specialist</text>
        <!--MD5=[5feeba211306dae78a9255b1c0e912c7]
entity ER-->
        <ellipse cx="748" cy="666.1406" fill="#FEFECE" filter="url(#frjzq1ztyd5oa)" rx="8" ry="8" style="stroke: #A80036; stroke-width: 1.5;" />
        <path d="M748,674.1406 L748,701.1406 M735,682.1406 L761,682.1406 M748,701.1406 L735,716.1406 M748,701.1406 L761,716.1406 " fill="none" filter="url(#frjzq1ztyd5oa)" style="stroke: #A80036; stroke-width: 1.5;" /><text fill="#000000" font-family="sans-serif" font-size="14" lengthAdjust="spacingAndGlyphs" textLength="19" x="738.5" y="736.1738">ER</text>
        <ellipse cx="1668.7696" cy="828.5923" fill="#FEFECE" filter="url(#frjzq1ztyd5oa)" rx="39.7696" ry="15.4517" style="stroke: #A80036; stroke-width: 1.5;" /><text fill="#000000" font-family="sans-serif" font-size="14" lengthAdjust="spacingAndGlyphs" textLength="52" x="1642.7696" y="833.897">Protocol</text>
        <ellipse cx="1680.8259" cy="945.5923" fill="#FEFECE" filter="url(#frjzq1ztyd5oa)" rx="55.3259" ry="15.4517" style="stroke: #A80036; stroke-width: 1.5;" /><text fill="#000000" font-family="sans-serif" font-size="14" lengthAdjust="spacingAndGlyphs" textLength="74" x="1643.8259" y="950.897">Offline Note</text>
        <ellipse cx="1826.8259" cy="945.5923" fill="#FEFECE" filter="url(#frjzq1ztyd5oa)" rx="55.3259" ry="15.4517" style="stroke: #A80036; stroke-width: 1.5;" /><text fill="#000000" font-family="sans-serif" font-size="14" lengthAdjust="spacingAndGlyphs" textLength="74" x="1789.8259" y="950.897">Online Note</text>
        <ellipse cx="1693.1311" cy="1076.1668" fill="#FEFECE" filter="url(#frjzq1ztyd5oa)" rx="68.1311" ry="16.0262" style="stroke: #A80036; stroke-width: 1.5;" /><text fill="#000000" font-family="sans-serif" font-size="14" lengthAdjust="spacingAndGlyphs" textLength="96" x="1645.1311" y="1081.4715">Operation Note</text>
        <ellipse cx="1862.0964" cy="1076.1599" fill="#FEFECE" filter="url(#frjzq1ztyd5oa)" rx="65.5964" ry="15.5193" style="stroke: #A80036; stroke-width: 1.5;" /><text fill="#000000" font-family="sans-serif" font-size="14" lengthAdjust="spacingAndGlyphs" textLength="89" x="1817.5964" y="1081.4646">Medicine Note</text>
        <ellipse cx="1874.169" cy="1194.0923" fill="#FEFECE" filter="url(#frjzq1ztyd5oa)" rx="49.669" ry="15.4517" style="stroke: #A80036; stroke-width: 1.5;" /><text fill="#000000" font-family="sans-serif" font-size="14" lengthAdjust="spacingAndGlyphs" textLength="66" x="1841.169" y="1199.397">Check List</text>
        <ellipse cx="2338.8909" cy="537.0923" fill="#FEFECE" filter="url(#frjzq1ztyd5oa)" rx="41.8909" ry="15.4517" style="stroke: #A80036; stroke-width: 1.5;" /><text fill="#000000" font-family="sans-serif" font-size="14" lengthAdjust="spacingAndGlyphs" textLength="55" x="2311.3909" y="542.397">Telemed</text>
        <ellipse cx="2303.0946" cy="698.3163" fill="#FEFECE" filter="url(#frjzq1ztyd5oa)" rx="30.0946" ry="24.6756" style="stroke: #A80036; stroke-width: 1.5;" /><text fill="#000000" font-family="sans-serif" font-size="14" lengthAdjust="spacingAndGlyphs" textLength="26" x="2290.0946" y="693.4079">Live</text><text fill="#000000" font-family="sans-serif" font-size="14" lengthAdjust="spacingAndGlyphs" textLength="36" x="2285.0946" y="711.0173">Video</text>
        <ellipse cx="2413.2193" cy="698.0923" fill="#FEFECE" filter="url(#frjzq1ztyd5oa)" rx="44.7193" ry="15.4517" style="stroke: #A80036; stroke-width: 1.5;" /><text fill="#000000" font-family="sans-serif" font-size="14" lengthAdjust="spacingAndGlyphs" textLength="59" x="2383.7193" y="703.397">Vital Sign</text>
        <ellipse cx="2356.0471" cy="828.7589" fill="#FEFECE" filter="url(#frjzq1ztyd5oa)" rx="64.0471" ry="26.1183" style="stroke: #A80036; stroke-width: 1.5;" /><text fill="#000000" font-family="sans-serif" font-size="14" lengthAdjust="spacingAndGlyphs" textLength="93" x="2309.5471" y="827.8895">Switch Partient</text><text fill="#000000" font-family="sans-serif" font-size="14" lengthAdjust="spacingAndGlyphs" textLength="59" x="2326.5471" y="845.4988">Vital Sign</text>
        <ellipse cx="2148.9402" cy="1347.1504" fill="#FEFECE" filter="url(#frjzq1ztyd5oa)" rx="62.4402" ry="25.5098" style="stroke: #A80036; stroke-width: 1.5;" /><text fill="#000000" font-family="sans-serif" font-size="14" lengthAdjust="spacingAndGlyphs" textLength="93" x="2102.4402" y="1347.2384">Update Patiant</text><text fill="#000000" font-family="sans-serif" font-size="14" lengthAdjust="spacingAndGlyphs" textLength="40" x="2128.9402" y="1364.8477">Status</text>
        <ellipse cx="1843.9249" cy="1347.3708" fill="#FEFECE" filter="url(#frjzq1ztyd5oa)" rx="58.9249" ry="26.7302" style="stroke: #A80036; stroke-width: 1.5;" /><text fill="#000000" font-family="sans-serif" font-size="14" lengthAdjust="spacingAndGlyphs" textLength="83" x="1802.4249" y="1345.5732">ER/Specialist</text><text fill="#000000" font-family="sans-serif" font-size="14" lengthAdjust="spacingAndGlyphs" textLength="65" x="1811.4249" y="1363.1826">Infomation</text>
        <ellipse cx="1995.2401" cy="1347.0923" fill="#FEFECE" filter="url(#frjzq1ztyd5oa)" rx="56.7401" ry="15.4517" style="stroke: #A80036; stroke-width: 1.5;" /><text fill="#000000" font-family="sans-serif" font-size="14" lengthAdjust="spacingAndGlyphs" textLength="76" x="1957.2401" y="1352.397">check in/out</text>
        <ellipse cx="2295.2095" cy="1347.1382" fill="#FEFECE" filter="url(#frjzq1ztyd5oa)" rx="48.7095" ry="25.9976" style="stroke: #A80036; stroke-width: 1.5;" /><text fill="#000000" font-family="sans-serif" font-size="14" lengthAdjust="spacingAndGlyphs" textLength="42" x="2274.2095" y="1340.8207">Assign</text><text fill="#000000" font-family="sans-serif" font-size="14" lengthAdjust="spacingAndGlyphs" textLength="70" x="2260.2095" y="1358.4301">Ambulance</text>
        <ellipse cx="2295.0217" cy="1462.5437" fill="#FEFECE" filter="url(#frjzq1ztyd5oa)" rx="48.5217" ry="25.9031" style="stroke: #A80036; stroke-width: 1.5;" /><text fill="#000000" font-family="sans-serif" font-size="14" lengthAdjust="spacingAndGlyphs" textLength="40" x="2275.0217" y="1456.0789">Switch</text><text fill="#000000" font-family="sans-serif" font-size="14" lengthAdjust="spacingAndGlyphs" textLength="70" x="2260.0217" y="1473.6883">Ambulance</text>
        <ellipse cx="1217.1021" cy="1346.9223" fill="#FEFECE" filter="url(#frjzq1ztyd5oa)" rx="29.6021" ry="24.2817" style="stroke: #A80036; stroke-width: 1.5;" /><text fill="#000000" font-family="sans-serif" font-size="14" lengthAdjust="spacingAndGlyphs" textLength="23" x="1205.6021" y="1341.8413">MIS</text><text fill="#000000" font-family="sans-serif" font-size="14" lengthAdjust="spacingAndGlyphs" textLength="35" x="1199.6021" y="1359.4507">Login</text>
        <!--MD5=[6e645fe6a8da04c80cb1105d6cd79d8d]
entity Paramedic-->
        <ellipse cx="2007" cy="233.1406" fill="#FEFECE" filter="url(#frjzq1ztyd5oa)" rx="8" ry="8" style="stroke: #A80036; stroke-width: 1.5;" />
        <path d="M2007,241.1406 L2007,268.1406 M1994,249.1406 L2020,249.1406 M2007,268.1406 L1994,283.1406 M2007,268.1406 L2020,283.1406 " fill="none" filter="url(#frjzq1ztyd5oa)" style="stroke: #A80036; stroke-width: 1.5;" /><text fill="#000000" font-family="sans-serif" font-size="14" lengthAdjust="spacingAndGlyphs" textLength="67" x="1973.5" y="303.1738">Paramedic</text>
        <!--MD5=[e291d5aa2260f5663058080aae2b1552]
entity MD-->
        <ellipse cx="1181" cy="666.1406" fill="#FEFECE" filter="url(#frjzq1ztyd5oa)" rx="8" ry="8" style="stroke: #A80036; stroke-width: 1.5;" />
        <path d="M1181,674.1406 L1181,701.1406 M1168,682.1406 L1194,682.1406 M1181,701.1406 L1168,716.1406 M1181,701.1406 L1194,716.1406 " fill="none" filter="url(#frjzq1ztyd5oa)" style="stroke: #A80036; stroke-width: 1.5;" /><text fill="#000000" font-family="sans-serif" font-size="14" lengthAdjust="spacingAndGlyphs" textLength="102" x="1130" y="736.1738">Medical Director</text>
        <!--MD5=[6dcdfc8bbecb2f2054cce8805f035df2]
link GrantPermission to ReciveGrant-->
        <path d="M971.658,971.7216 C969.713,992.5476 966.939,1022.2536 964.862,1044.4886 " fill="none" id="GrantPermission-&gt;ReciveGrant" style="stroke: #A80036; stroke-width: 1.0; stroke-dasharray: 7.0,7.0;" />
        <polygon fill="#A80036" points="964.377,1049.6836,969.1954,1041.0939,964.8413,1044.7052,961.23,1040.3511,964.377,1049.6836" style="stroke: #A80036; stroke-width: 1.0;" /><text fill="#000000" font-family="sans-serif" font-size="13" lengthAdjust="spacingAndGlyphs" textLength="55" x="970" y="1016.1357">&lt;extend&gt;</text>
        <!--MD5=[db48ff97b14e708f2e4a45b62773f7c1]
link MeetingRoom to CloseRoom-->
        <path d="M322.152,1220.7556 C321.227,1248.6906 319.756,1293.1186 318.836,1320.9036 " fill="none" id="MeetingRoom-CloseRoom" style="stroke: #A80036; stroke-width: 1.0;" />
        <!--MD5=[a9f7e0fd730e41fef76a67da7aff6299]
link InviteToMeetingRoom to ReciveInvite-->
        <path d="M471.19,1219.7376 C477.803,1246.0146 488.29,1287.6886 495.4,1315.9396 " fill="none" id="InviteToMeetingRoom-&gt;ReciveInvite" style="stroke: #A80036; stroke-width: 1.0; stroke-dasharray: 7.0,7.0;" />
        <polygon fill="#A80036" points="496.686,1321.0506,498.369,1311.3466,495.4659,1316.2018,490.6108,1313.2987,496.686,1321.0506" style="stroke: #A80036; stroke-width: 1.0;" /><text fill="#000000" font-family="sans-serif" font-size="13" lengthAdjust="spacingAndGlyphs" textLength="55" x="484" y="1265.1357">&lt;extend&gt;</text>
        <!--MD5=[39319b6c2da00a2fafb91dc5fb043224]
link Supervisor to Coordinator-->
        <path d="M259.489,145.9406 C257.624,155.6206 255.952,165.9506 255,175.6406 C253.631,189.5606 253.989,204.7506 255.021,218.5506 " fill="none" id="Supervisor-&gt;Coordinator" style="stroke: #A80036; stroke-width: 1.0; stroke-dasharray: 7.0,7.0;" />
        <polygon fill="#A80036" points="255.43,223.5606,258.6972,214.2695,255.03,218.5766,250.7229,214.9094,255.43,223.5606" style="stroke: #A80036; stroke-width: 1.0;" /><text fill="#000000" font-family="sans-serif" font-size="13" lengthAdjust="spacingAndGlyphs" textLength="55" x="256" y="190.1357">&lt;extend&gt;</text>
        <!--MD5=[13e720b8bf22dd82b53d29d00be24dcb]
link Supervisor to Dispatcher-->
        <path d="M296.787,145.6706 C312.166,168.1106 331.316,196.0406 347.156,219.1506 " fill="none" id="Supervisor-&gt;Dispatcher" style="stroke: #A80036; stroke-width: 1.0; stroke-dasharray: 7.0,7.0;" />
        <polygon fill="#A80036" points="350.074,223.4006,348.2808,213.7164,347.2454,219.2777,341.6841,218.2422,350.074,223.4006" style="stroke: #A80036; stroke-width: 1.0;" /><text fill="#000000" font-family="sans-serif" font-size="13" lengthAdjust="spacingAndGlyphs" textLength="55" x="328" y="190.1357">&lt;extend&gt;</text>
        <!--MD5=[3cf2959151ffc682140aad190f327c71]
link Specialist to ER-->
        <path d="M736.824,578.6746 C738.914,600.8286 741.51,628.3466 743.674,651.2836 " fill="none" id="Specialist-&gt;ER" style="stroke: #A80036; stroke-width: 1.0; stroke-dasharray: 7.0,7.0;" />
        <polygon fill="#A80036" points="744.157,656.4046,747.2934,647.0685,743.6871,651.4268,739.3288,647.8204,744.157,656.4046" style="stroke: #A80036; stroke-width: 1.0;" /><text fill="#000000" font-family="sans-serif" font-size="13" lengthAdjust="spacingAndGlyphs" textLength="55" x="742" y="623.1357">&lt;extend&gt;</text>
        <!--MD5=[6699f799ed5c7232dc727eb440bc4cc6]
link Protocol to Offline-->
        <path d="M1670.52,844.2056 C1672.65,864.5726 1676.51,901.6376 1678.91,924.5966 " fill="none" id="Protocol-&gt;Offline" style="stroke: #A80036; stroke-width: 1.0; stroke-dasharray: 7.0,7.0;" />
        <polygon fill="#A80036" points="1679.45,929.8306,1682.4947,920.4642,1678.9313,924.8576,1674.5379,921.2942,1679.45,929.8306" style="stroke: #A80036; stroke-width: 1.0;" />
        <!--MD5=[c82ce4d3f9a0489352c7a9acf8805ad6]
link Protocol to Online-->
        <path d="M1686.82,842.6086 C1715.55,863.5216 1772.1,904.6836 1803.89,927.8236 " fill="none" id="Protocol-&gt;Online" style="stroke: #A80036; stroke-width: 1.0; stroke-dasharray: 7.0,7.0;" />
        <polygon fill="#A80036" points="1808.02,930.8276,1803.0976,922.2971,1803.9776,927.8851,1798.3896,928.765,1808.02,930.8276" style="stroke: #A80036; stroke-width: 1.0;" />
        <!--MD5=[dfdacabff06845ff468c7a479416b68f]
link Online to Ops-->
        <path d="M1812.4,960.6366 C1788.1,983.9486 1739.32,1030.7246 1712.23,1056.6966 " fill="none" id="Online-&gt;Ops" style="stroke: #A80036; stroke-width: 1.0; stroke-dasharray: 7.0,7.0;" />
        <polygon fill="#A80036" points="1708.4,1060.3726,1717.666,1057.0349,1712.0105,1056.9137,1712.1317,1051.2581,1708.4,1060.3726" style="stroke: #A80036; stroke-width: 1.0;" />
        <!--MD5=[fa1f797b2a007678447862d188341364]
link Online to Med-->
        <path d="M1831.01,961.3816 C1837.34,984.6196 1849.65,1029.7816 1856.7,1055.6646 " fill="none" id="Online-&gt;Med" style="stroke: #A80036; stroke-width: 1.0; stroke-dasharray: 7.0,7.0;" />
        <polygon fill="#A80036" points="1858.03,1060.5716,1859.5259,1050.837,1856.7168,1055.7471,1851.8067,1052.9381,1858.03,1060.5716" style="stroke: #A80036; stroke-width: 1.0;" />
        <!--MD5=[36e00adda9d547800407b763e370433a]
link Med to Check-->
        <path d="M1863.52,1091.8316 C1865.67,1112.5766 1869.59,1150.4926 1871.98,1173.5946 " fill="none" id="Med-&gt;Check" style="stroke: #A80036; stroke-width: 1.0; stroke-dasharray: 7.0,7.0;" />
        <polygon fill="#A80036" points="1872.49,1178.5686,1875.5427,1169.2048,1871.9755,1173.5952,1867.5851,1170.028,1872.49,1178.5686" style="stroke: #A80036; stroke-width: 1.0;" />
        <!--MD5=[5a09b9336d7b1badde5bdbdc57b8158a]
link Telemed to LiveVideo-->
        <path d="M2335.68,552.8136 C2329.41,580.4906 2315.8,640.5996 2308.27,673.8506 " fill="none" id="Telemed-LiveVideo" style="stroke: #A80036; stroke-width: 1.0;" />
        <!--MD5=[09b560ea3da9a45eb59e7572d275dd60]
link Telemed to VitalSign-->
        <path d="M2345.7,552.5316 C2359.72,582.6506 2392.01,652.0486 2406.16,682.4376 " fill="none" id="Telemed-VitalSign" style="stroke: #A80036; stroke-width: 1.0;" />
        <!--MD5=[3b1dadcd7a9044100001f6b44cb0e8a9]
link VitalSign to SwitchVS-->
        <path d="M2406.46,713.8816 C2396.81,735.6356 2378.64,776.6056 2366.94,802.9836 " fill="none" id="VitalSign-SwitchVS" style="stroke: #A80036; stroke-width: 1.0;" />
        <!--MD5=[99518f066654ff0ca3f3d2798510fa93]
link AssignAmbulance to SwitchAmbulance-->
        <path d="M2295,1373.3296 C2295,1390.3756 2295,1412.9906 2295,1431.0684 " fill="none" id="AssignAmbulance-&gt;SwitchAmbulance" style="stroke: #A80036; stroke-width: 1.0; stroke-dasharray: 7.0,7.0;" />
        <polygon fill="#A80036" points="2295,1436.5217,2299,1427.5217,2295,1431.5217,2291,1427.5217,2295,1436.5217" style="stroke: #A80036; stroke-width: 1.0;" />
        <!--MD5=[52f941608d78ca7abe17a1f85c0cfd28]
link CallTaker to UpdatePatiantStatus-->
        <path d="M411.694,105.6906 C677.635,110.6406 2582,150.1006 2582,264.1406 C2582,264.1406 2582,264.1406 2582,1195.1406 C2582,1356.1566 2372.48,1203.5616 2229,1276.6406 C2208.14,1287.2636 2188.26,1304.4916 2173.53,1319.1376 " fill="none" id="CallTaker-&gt;UpdatePatiantStatus" style="stroke: #A80036; stroke-width: 1.0;" />
        <polygon fill="#A80036" points="2169.9,1322.7996,2179.0809,1319.2344,2173.4241,1319.2527,2173.4058,1313.5958,2169.9,1322.7996" style="stroke: #A80036; stroke-width: 1.0;" />
        <!--MD5=[15f037edf9b9eb830d5ca8d6cf4e2d6b]
link CallTaker to AssignAmbulance-->
        <path d="M411.536,105.2206 C586.835,105.8906 1482.87,112.4006 2211,175.6406 C2410.59,192.9806 2653,63.8006 2653,264.1406 C2653,264.1406 2653,264.1406 2653,1135.6406 C2653,1275.7136 2446.83,1324.4166 2347.4,1339.7586 " fill="none" id="CallTaker-&gt;AssignAmbulance" style="stroke: #A80036; stroke-width: 1.0;" />
        <polygon fill="#A80036" points="2342.17,1340.5506,2351.6719,1343.1418,2347.1124,1339.7936,2350.4606,1335.234,2342.17,1340.5506" style="stroke: #A80036; stroke-width: 1.0;" />
        <!--MD5=[aab6c96682c91123151a9eb54bdbc358]
link Coordinator to ERSpecialistInfomation-->
        <path d="M252.758,306.6506 C251.881,317.5006 252.17,329.1306 255,339.6406 C259.142,355.0206 261.951,359.1606 273,370.6406 C327.909,427.6806 362.119,418.4006 440,432.6406 C603.094,462.4606 654.324,417.4006 811,471.6406 C895.364,500.8406 899.574,542.0346 981,578.6406 C1094.15,629.5066 1144.53,589.7386 1249,656.6406 C1358.54,726.7926 1430,756.5606 1430,886.6406 C1430,886.6406 1430,886.6406 1430,1195.1406 C1430,1244.0826 1468.59,1246.0376 1512,1268.6406 C1598.6,1313.7306 1711.44,1332.8896 1780.75,1340.8146 " fill="none" id="Coordinator-&gt;ERSpecialistInfomation" style="stroke: #A80036; stroke-width: 1.0;" />
        <polygon fill="#A80036" points="1786.08,1341.4116,1777.5818,1336.4336,1781.1111,1340.8544,1776.6903,1344.3838,1786.08,1341.4116" style="stroke: #A80036; stroke-width: 1.0;" />
        <!--MD5=[5272508c55a89d82b7957e283d2e681d]
link Coordinator to MeetingRoom-->
        <path d="M223.105,272.3806 C173.833,282.9006 94,309.2706 94,369.6406 C94,369.6406 94,369.6406 94,618.6406 C94,780.5486 120.171,822.8456 184,971.6406 C215.23,1044.4416 228.236,1060.6096 272,1126.6406 C281.099,1140.3696 292.124,1154.9596 301.591,1166.9656 " fill="none" id="Coordinator-&gt;MeetingRoom" style="stroke: #A80036; stroke-width: 1.0;" />
        <polygon fill="#A80036" points="304.737,1170.9326,302.2795,1161.3953,301.6304,1167.0148,296.011,1166.3658,304.737,1170.9326" style="stroke: #A80036; stroke-width: 1.0;" /><text fill="#000000" font-family="sans-serif" font-size="13" lengthAdjust="spacingAndGlyphs" textLength="61" x="107" y="703.6357">Case G, Y</text>
        <!--MD5=[85b3fa37b778af4b3b31d3bd47d0066b]
link Coordinator to Protocol-->
        <path d="M258.19,306.6606 C258.975,328.6006 264.03,354.4406 281,370.6406 C395.329,479.7606 832.176,431.3506 985,471.6406 C1146.53,514.2306 1186.58,531.9866 1335,608.6406 C1459.64,673.0126 1595.88,772.4166 1647.54,811.2786 " fill="none" id="Coordinator-&gt;Protocol" style="stroke: #A80036; stroke-width: 1.0;" />
        <polygon fill="#A80036" points="1651.69,814.4106,1646.8974,805.8065,1647.6926,811.4072,1642.0919,812.2024,1651.69,814.4106" style="stroke: #A80036; stroke-width: 1.0;" />
        <!--MD5=[c026ff61d247cbc55291a5cf11e85969]
link Coordinator to CloseRoom-->
        <path d="M223.374,273.2606 C152.441,287.7506 6,323.2906 6,369.6406 C6,369.6406 6,369.6406 6,1195.1406 C6,1316.1476 198.501,1340.2216 281.089,1344.9816 " fill="none" id="Coordinator-&gt;CloseRoom" style="stroke: #A80036; stroke-width: 1.0;" />
        <polygon fill="#A80036" points="286.367,1345.2676,277.5975,1340.7848,281.3744,1344.9961,277.1631,1348.773,286.367,1345.2676" style="stroke: #A80036; stroke-width: 1.0;" />
        <!--MD5=[8c5db0d512f3aa2c073f6944be752e25]
link Dispatcher to ERSpecialistInfomation-->
        <path d="M412.222,268.3206 C600.428,282.3206 1501,375.9906 1501,886.6406 C1501,886.6406 1501,886.6406 1501,1195.1406 C1501,1315.6296 1680.49,1340.8146 1779.78,1345.5286 " fill="none" id="Dispatcher-&gt;ERSpecialistInfomation" style="stroke: #A80036; stroke-width: 1.0;" />
        <polygon fill="#A80036" points="1785.04,1345.7626,1776.2322,1341.3555,1780.0452,1345.5341,1775.8666,1349.3471,1785.04,1345.7626" style="stroke: #A80036; stroke-width: 1.0;" />
        <!--MD5=[c77f09a8438623b12595c1375f2cecfd]
link Dispatcher to MeetingRoom-->
        <path d="M367.128,306.7506 C345.254,392.1306 298,596.8226 298,771.6406 C298,771.6406 298,771.6406 298,1077.1406 C298,1106.9526 305.988,1140.1256 312.933,1163.3346 " fill="none" id="Dispatcher-&gt;MeetingRoom" style="stroke: #A80036; stroke-width: 1.0;" />
        <polygon fill="#A80036" points="314.396,1168.1306,315.5941,1158.3549,312.9362,1163.3485,307.9427,1160.6906,314.396,1168.1306" style="stroke: #A80036; stroke-width: 1.0;" /><text fill="#000000" font-family="sans-serif" font-size="13" lengthAdjust="spacingAndGlyphs" textLength="43" x="305" y="703.6357">Case R</text>
        <!--MD5=[9304e6ed7e600334f48bb49f62366d05]
link Dispatcher to InviteToMeetingRoom-->
        <path d="M382.877,306.7506 C384.015,317.1306 385.144,328.2906 386,338.6406 C409.238,619.4436 385.686,692.0996 421,971.6406 C429.759,1040.9766 447.653,1121.1466 457.714,1163.4466 " fill="none" id="Dispatcher-&gt;InviteToMeetingRoom" style="stroke: #A80036; stroke-width: 1.0;" />
        <polygon fill="#A80036" points="458.901,1168.4136,460.6982,1158.7301,457.7381,1163.5507,452.9175,1160.5907,458.901,1168.4136" style="stroke: #A80036; stroke-width: 1.0;" />
        <!--MD5=[1568eda5cc0f546f11e3f02df203e82d]
link Dispatcher to Protocol-->
        <path d="M412.018,266.2406 C587.975,267.0506 1390.08,274.2506 1478,338.6406 C1639.21,456.7006 1664.38,731.1916 1668.29,807.5896 " fill="none" id="Dispatcher-&gt;Protocol" style="stroke: #A80036; stroke-width: 1.0;" />
        <polygon fill="#A80036" points="1668.53,812.7426,1672.0953,803.5617,1668.291,807.7483,1664.1044,803.9441,1668.53,812.7426" style="stroke: #A80036; stroke-width: 1.0;" />
        <!--MD5=[60805e60125b7e4d340108d194850b16]
link Dispatcher to CloseRoom-->
        <path d="M354.463,306.8806 C308.227,390.8706 210,590.6106 210,771.6406 C210,771.6406 210,771.6406 210,1195.1406 C210,1250.5086 258.632,1299.5626 290.628,1325.8456 " fill="none" id="Dispatcher-&gt;CloseRoom" style="stroke: #A80036; stroke-width: 1.0;" />
        <polygon fill="#A80036" points="294.831,1329.2456,290.3492,1320.4756,290.9436,1326.1011,285.318,1326.6954,294.831,1329.2456" style="stroke: #A80036; stroke-width: 1.0;" />
        <!--MD5=[a4bcead228a5ff90c13031c70d93dafd]
link ER to ReciveInvite-->
        <path d="M739.849,739.7596 C735.486,764.9516 731,798.0486 731,827.6406 C731,827.6406 731,827.6406 731,1011.6406 C731,1136.9586 695.227,1172.3676 615,1268.6406 C592.912,1295.1466 559.616,1316.6156 535.065,1330.1776 " fill="none" id="ER-&gt;ReciveInvite" style="stroke: #A80036; stroke-width: 1.0;" />
        <polygon fill="#A80036" points="530.588,1332.6176,540.4049,1331.8249,534.9788,1330.2258,536.5779,1324.7997,530.588,1332.6176" style="stroke: #A80036; stroke-width: 1.0;" />
        <!--MD5=[57abf21f6cc8357b1216cd29ba3bc8dd]
link ER to MISLogin-->
        <path d="M762.757,705.0966 C809.925,724.8626 958.577,792.9216 1038,895.6406 C1104.64,981.8256 1079.73,1025.4126 1120,1126.6406 C1147.97,1196.9486 1185.07,1277.9736 1204.28,1319.1236 " fill="none" id="ER-&gt;MISLogin" style="stroke: #A80036; stroke-width: 1.0;" />
        <polygon fill="#A80036" points="1206.53,1323.9406,1206.342,1314.0936,1204.4124,1319.4112,1199.0948,1317.4817,1206.53,1323.9406" style="stroke: #A80036; stroke-width: 1.0;" />
        <!--MD5=[ae6d7be87561fe24c220e42bdbae8f97]
link Specialist to MeetingRoom-->
        <path d="M702.965,543.9036 C668.576,552.1256 613.122,570.6476 583,608.6406 C436.784,793.0676 572.212,913.2176 473,1126.6406 C470.864,1131.2356 470.448,1133.2126 466,1135.6406 C431.141,1154.6706 413.331,1127.5986 377,1143.6406 C364.886,1148.9896 353.693,1158.1766 344.676,1167.1936 " fill="none" id="Specialist-&gt;MeetingRoom" style="stroke: #A80036; stroke-width: 1.0;" />
        <polygon fill="#A80036" points="340.948,1171.0366,350.0858,1167.3622,344.4296,1167.4479,344.3438,1161.7917,340.948,1171.0366" style="stroke: #A80036; stroke-width: 1.0;" />
        <!--MD5=[f91ed9a4c0a4916a8afbd12ca74343b8]
link Specialist to ReciveGrant-->
        <path d="M716.804,578.6766 C692.95,645.1676 656.185,779.8686 705,878.6406 C752.078,973.8976 869.925,1035.6766 928.236,1061.4366 " fill="none" id="Specialist-&gt;ReciveGrant" style="stroke: #A80036; stroke-width: 1.0;" />
        <polygon fill="#A80036" points="933.01,1063.5236,926.3658,1056.2535,928.4287,1061.5208,923.1613,1063.5836,933.01,1063.5236" style="stroke: #A80036; stroke-width: 1.0;" />
        <!--MD5=[6393b41e6076f631591caddc251726fd]
link Specialist to ReciveInvite-->
        <path d="M703.859,578.7986 C661.782,641.6156 589,767.4946 589,886.6406 C589,886.6406 589,886.6406 589,1195.1406 C589,1245.4616 552.491,1294.3116 527.049,1322.2446 " fill="none" id="Specialist-&gt;ReciveInvite" style="stroke: #A80036; stroke-width: 1.0;" />
        <polygon fill="#A80036" points="523.381,1326.2126,532.4278,1322.3195,526.7752,1322.5412,526.5535,1316.8887,523.381,1326.2126" style="stroke: #A80036; stroke-width: 1.0;" />
        <!--MD5=[fc03e660e42cea0fb5473c7fb14ea1a8]
link Paramedic to MISLogin-->
        <path d="M1973.27,269.1006 C1886.99,277.5906 1665,305.6706 1665,369.6406 C1665,369.6406 1665,369.6406 1665,463.6406 C1665,630.6156 1572,660.6656 1572,827.6406 C1572,827.6406 1572,827.6406 1572,1135.6406 C1572,1283.6986 1340.71,1329.8856 1251.51,1342.1936 " fill="none" id="Paramedic-&gt;MISLogin" style="stroke: #A80036; stroke-width: 1.0;" />
        <polygon fill="#A80036" points="1246.35,1342.8896,1255.8056,1345.6451,1251.3047,1342.2183,1254.7315,1337.7175,1246.35,1342.8896" style="stroke: #A80036; stroke-width: 1.0;" />
        <!--MD5=[1ba1e146088e54cd8979da42cdd04062]
link Paramedic to MeetingRoom-->
        <path d="M1973.28,270.7206 C1907.93,280.0606 1759.81,303.4106 1639,338.6406 C1565.23,360.1506 1552.8,384.0806 1478,401.6406 C1134.41,482.3206 1005.968,320.5806 687,471.6406 C494.436,562.8366 447,673.5736 447,886.6406 C447,886.6406 447,886.6406 447,1077.1406 C447,1078.8026 385.406,1135.7426 349.039,1169.2156 " fill="none" id="Paramedic-&gt;MeetingRoom" style="stroke: #A80036; stroke-width: 1.0;" />
        <polygon fill="#A80036" points="345.169,1172.7776,354.5006,1169.6277,348.8486,1169.3923,349.084,1163.7403,345.169,1172.7776" style="stroke: #A80036; stroke-width: 1.0;" />
        <!--MD5=[64aa5dcbdac2a3f57315b050104d28bb]
link Paramedic to Protocol-->
        <path d="M1973.09,267.2906 C1912.06,271.3506 1790,289.5006 1790,369.6406 C1790,369.6406 1790,369.6406 1790,699.1406 C1790,752.9546 1733.06,793.4066 1697.3,813.5056 " fill="none" id="Paramedic-&gt;Protocol" style="stroke: #A80036; stroke-width: 1.0;" />
        <polygon fill="#A80036" points="1692.62,816.0886,1702.4327,815.2458,1696.9985,813.6744,1698.5699,808.2402,1692.62,816.0886" style="stroke: #A80036; stroke-width: 1.0;" />
        <!--MD5=[fb010cc91a2b41c6b0304e090f1656e5]
link Paramedic to SwitchVS-->
        <path d="M2040.75,267.5506 C2100.81,272.0506 2220,290.9106 2220,369.6406 C2220,369.6406 2220,369.6406 2220,699.1406 C2220,749.2396 2269.36,785.6136 2308.61,806.6166 " fill="none" id="Paramedic-&gt;SwitchVS" style="stroke: #A80036; stroke-width: 1.0;" />
        <polygon fill="#A80036" points="2313.34,809.1016,2307.2377,801.371,2308.9151,806.7735,2303.5127,808.4509,2313.34,809.1016" style="stroke: #A80036; stroke-width: 1.0;" />
        <!--MD5=[f0a667a4e6874697ed81780c0c90425d]
link Paramedic to Med-->
        <path d="M1973.16,295.2206 C1954.88,314.2606 1936,340.8806 1936,369.6406 C1936,369.6406 1936,369.6406 1936,946.6406 C1936,990.9316 1902.58,1033.7296 1880.66,1057.0356 " fill="none" id="Paramedic-&gt;Med" style="stroke: #A80036; stroke-width: 1.0;" />
        <polygon fill="#A80036" points="1876.98,1060.8816,1886.0916,1057.1427,1880.4361,1057.2684,1880.3104,1051.613,1876.98,1060.8816" style="stroke: #A80036; stroke-width: 1.0;" />
        <!--MD5=[6bde3c1ab56a55973f184f59e1433428]
link Paramedic to Check-->
        <path d="M2007,306.9406 C2007,325.9906 2007,348.9806 2007,369.6406 C2007,369.6406 2007,369.6406 2007,1077.1406 C2007,1128.8116 1949.28,1162.7446 1909.89,1179.8876 " fill="none" id="Paramedic-&gt;Check" style="stroke: #A80036; stroke-width: 1.0;" />
        <polygon fill="#A80036" points="1905.18,1181.8946,1915.0276,1182.0518,1909.7809,1179.9371,1911.8956,1174.6904,1905.18,1181.8946" style="stroke: #A80036; stroke-width: 1.0;" />
        <!--MD5=[5a8af6b1b26d464cbd39c7c00cf9f5a0]
link Paramedic to checkIn-->
        <path d="M2040.84,295.2206 C2059.12,314.2606 2078,340.8806 2078,369.6406 C2078,369.6406 2078,369.6406 2078,1195.1406 C2078,1248.7436 2037.34,1301.2876 2012.93,1327.9926 " fill="none" id="Paramedic-&gt;checkIn" style="stroke: #A80036; stroke-width: 1.0;" />
        <polygon fill="#A80036" points="2009.46,1331.7426,2018.51,1327.8571,2012.8573,1328.0741,2012.6404,1322.4214,2009.46,1331.7426" style="stroke: #A80036; stroke-width: 1.0;" />
        <!--MD5=[ba32fffafa6430a49a0cfc65700cc5ca]
link Paramedic to SwitchAmbulance-->
        <path d="M2040.85,265.8606 C2153.85,265.8406 2511,273.3906 2511,369.6406 C2511,369.6406 2511,369.6406 2511,1135.6406 C2511,1267.9136 2385.9,1387.6676 2326.11,1437.3493 " fill="none" id="Paramedic-&gt;SwitchAmbulance" style="stroke: #A80036; stroke-width: 1.0;" />
        <polygon fill="#A80036" points="2321.92,1440.8044,2331.4065,1438.1576,2325.7752,1437.6205,2326.3123,1431.9892,2321.92,1440.8044" style="stroke: #A80036; stroke-width: 1.0;" />
        <!--MD5=[23191dde4dc5d67be91171ea12bcf9dd]
link Paramedic to UpdatePatiantStatus-->
        <path d="M2040.65,274.6306 C2082.64,287.4906 2149,316.2506 2149,369.6406 C2149,369.6406 2149,369.6406 2149,1195.1406 C2149,1237.2696 2149,1286.0096 2149,1316.4596 " fill="none" id="Paramedic-&gt;UpdatePatiantStatus" style="stroke: #A80036; stroke-width: 1.0;" />
        <polygon fill="#A80036" points="2149,1321.5556,2153,1312.5556,2149,1316.5556,2145,1312.5556,2149,1321.5556" style="stroke: #A80036; stroke-width: 1.0;" />
        <!--MD5=[3948f154c6598bf838ec7e66f6f94600]
link MD to MISLogin-->
        <path d="M1198.47,739.7096 C1207.65,764.6046 1217,797.4066 1217,827.6406 C1217,827.6406 1217,827.6406 1217,1195.1406 C1217,1237.7646 1217,1287.1576 1217,1317.5266 " fill="none" id="MD-&gt;MISLogin" style="stroke: #A80036; stroke-width: 1.0;" />
        <polygon fill="#A80036" points="1217,1322.6006,1221,1313.6006,1217,1317.6006,1213,1313.6006,1217,1322.6006" style="stroke: #A80036; stroke-width: 1.0;" />
        <!--MD5=[780da28ebf1be06832b68d4fa50a0428]
link MD to MeetingRoom-->
        <path d="M1129.88,708.0566 C1073.52,719.7046 981.966,744.1336 915,789.1406 C825.956,848.9856 835.999,899.0496 757,971.6406 C670.79,1050.8576 648.895,1074.6356 544,1126.6406 C531.528,1132.8236 527.708,1133.2186 514,1135.6406 C483.969,1140.9466 405.087,1131.7606 377,1143.6406 C364.804,1148.7996 353.595,1157.9506 344.589,1166.9926 " fill="none" id="MD-&gt;MeetingRoom" style="stroke: #A80036; stroke-width: 1.0;" />
        <polygon fill="#A80036" points="340.867,1170.8496,349.9951,1167.1512,344.3391,1167.2518,344.2385,1161.5958,340.867,1170.8496" style="stroke: #A80036; stroke-width: 1.0;" />
        <!--MD5=[05211c8b26ed5c19b2d767f79b3c73b5]
link MD to GrantPermission-->
        <path d="M1146.82,739.6796 C1104.32,790.0786 1032.98,874.6966 996.683,917.7386 " fill="none" id="MD-&gt;GrantPermission" style="stroke: #A80036; stroke-width: 1.0;" />
        <polygon fill="#A80036" points="993.282,921.7716,1002.142,917.4705,996.5055,917.9494,996.0265,912.3129,993.282,921.7716" style="stroke: #A80036; stroke-width: 1.0;" />
        <!--MD5=[858c63aed9326116e7d2d6abccbf98cc]
link MD to InviteToMeetingRoom-->
        <path d="M1129.93,721.7786 C1067.75,752.0926 964.352,811.9236 910,895.6406 C848.051,991.0596 918.872,1077.6446 821,1135.6406 C774.482,1163.2056 628.66,1179.7506 538.722,1187.5976 " fill="none" id="MD-&gt;InviteToMeetingRoom" style="stroke: #A80036; stroke-width: 1.0;" />
        <polygon fill="#A80036" points="533.683,1188.0326,542.9946,1191.2411,538.6644,1187.6012,542.3043,1183.271,533.683,1188.0326" style="stroke: #A80036; stroke-width: 1.0;" />
        <!--MD5=[2d032cbfb510cb54f1ff16f6bcb8d217]
link MD to ReciveInvite-->
        <path d="M1164.01,739.7536 C1155.1,764.6636 1146,797.4666 1146,827.6406 C1146,827.6406 1146,827.6406 1146,1135.6406 C1146,1263.9326 677.834,1326.5496 540.461,1342.1616 " fill="none" id="MD-&gt;ReciveInvite" style="stroke: #A80036; stroke-width: 1.0;" />
        <polygon fill="#A80036" points="535.327,1342.7406,544.7193,1345.7045,540.2954,1342.1791,543.8208,1337.7551,535.327,1342.7406" style="stroke: #A80036; stroke-width: 1.0;" />
        <!--MD5=[dd831f050c044493fa32b7c79b2ef305]
link MD to checkIn-->
        <path d="M1232.33,731.5506 C1261.88,750.2536 1293.5,770.3446 1295,771.6406 C1339.19,809.9586 1359,828.1476 1359,886.6406 C1359,886.6406 1359,886.6406 1359,1135.6406 C1359,1250.6736 1911.25,1272.4976 1920,1276.6406 C1944.85,1288.4096 1967.08,1311.3756 1980.77,1327.6836 " fill="none" id="MD-&gt;checkIn" style="stroke: #A80036; stroke-width: 1.0;" />
        <polygon fill="#A80036" points="1984.06,1331.6756,1981.4191,1322.1874,1980.8785,1327.8184,1975.2475,1327.2778,1984.06,1331.6756" style="stroke: #A80036; stroke-width: 1.0;" />
        <!--MD5=[7b84873b7ea2f1f359b46b24032402f9]
link MD to ERSpecialistInfomation-->
        <path d="M1232.31,733.6686 C1259.77,756.6036 1288,789.4656 1288,827.6406 C1288,827.6406 1288,827.6406 1288,1195.1406 C1288,1296.2786 1634.96,1331.8556 1780.71,1342.3396 " fill="none" id="MD-&gt;ERSpecialistInfomation" style="stroke: #A80036; stroke-width: 1.0;" />
        <polygon fill="#A80036" points="1785.81,1342.7016,1777.1187,1338.069,1780.8228,1342.3445,1776.5473,1346.0485,1785.81,1342.7016" style="stroke: #A80036; stroke-width: 1.0;" />
        <!--MD5=[fb902c7647ef0dfd519f6eb23e16ccc6]
reverse link Protocol to MD-->
        <path d="M1627.67,821.3636 C1567,811.6736 1450.54,791.2616 1354,763.6406 C1312.24,751.6936 1266.22,734.3236 1232.15,720.6186 " fill="none" id="Protocol&lt;-MD" style="stroke: #A80036; stroke-width: 1.0;" />
        <polygon fill="#A80036" points="1632.66,822.1556,1624.4003,816.7912,1627.7221,821.37,1623.1433,824.6918,1632.66,822.1556" style="stroke: #A80036; stroke-width: 1.0;" />
        <!--MD5=[b13268b0c3a57ba6666ff1b6ee310857]
@startuml
Title Use case

  usecase (MIS\nLogin) as MISLogin

  rectangle {
    usecase (Grant\nPermission) as GrantPermission
    usecase (Recive\nGrant) as ReciveGrant
    GrantPermission ..> ReciveGrant:<extend>
  }
  rectangle {
    usecase (Meeting\nRoom) as MeetingRoom
    usecase (Close\nRoom) as CloseRoom
    usecase (Invite\nto Meeting Room) as InviteToMeetingRoom
    usecase (Recive\nInvite) as ReciveInvite
    MeetingRoom - - CloseRoom
    InviteToMeetingRoom ..> ReciveInvite :<extend>
  }

  rectangle {
    :Supervisor: as Supervisor
    :Coordinator: as Coordinator
    :Dispatcher: as Dispatcher
    :CallTaker: as CallTaker
    Supervisor ..> Coordinator :<extend>
    Supervisor ..> Dispatcher :<extend>
  }

  rectangle {
    :Specialist: as Specialist
    :ER: as ER
    Specialist ..> ER :<extend>
  }

  rectangle {
    usecase (Protocol) as Protocol
    usecase (Offline Note) as Offline
    usecase (Online Note) as Online
    usecase (Operation Note) as Ops
    usecase (Medicine Note) as Med
    usecase (Check List) as Check
    Protocol ..> Offline
    Protocol ..> Online
    Online ..> Ops
    Online ..> Med
    Med ..> Check
  }


  rectangle {
    usecase (Telemed) as Telemed
    usecase (Live\nVideo) as LiveVideo
    usecase (Vital Sign) as VitalSign
    usecase (Switch Partient\nVital Sign) as SwitchVS
    Telemed - - LiveVideo
    Telemed - - VitalSign
    VitalSign - - SwitchVS
  }

  package OIS{
    usecase (Update Patiant\nStatus) as UpdatePatiantStatus
    usecase (ER/Specialist\nInfomation) as ERSpecialistInfomation
    usecase (check in/out) as checkIn
    usecase (Assign\nAmbulance) as AssignAmbulance
    usecase (Switch\nAmbulance) as SwitchAmbulance
    AssignAmbulance ..> SwitchAmbulance
  }

  CallTaker - -> UpdatePatiantStatus
  CallTaker - -> AssignAmbulance

  Coordinator - -> ERSpecialistInfomation
  Coordinator - -> MeetingRoom: Case G, Y
  Coordinator - - - -> Protocol
  Coordinator - - - -> CloseRoom

  Dispatcher - - - - - - - - -> ERSpecialistInfomation
  Dispatcher - - - - - - - - -> MeetingRoom : Case R
  Dispatcher - - - - - -> InviteToMeetingRoom
  Dispatcher - - - - - -> Protocol
  Dispatcher - - - - - -> CloseRoom

  ER - -> ReciveInvite
  ER - -> MISLogin

  Specialist - - - - - -> MeetingRoom
  Specialist - -> ReciveGrant
  Specialist - - - - - -> ReciveInvite

  Paramedic - - - - - -> MISLogin
  Paramedic - - - - - -> MeetingRoom
  Paramedic - - - - - -> Protocol
  Paramedic - - - - - -> SwitchVS
  Paramedic - - - - - -> Med
  Paramedic - - - - - -> Check
  Paramedic - - - - - -> checkIn
  Paramedic - - - - - -> SwitchAmbulance
  Paramedic - - - - - -> UpdatePatiantStatus

  :Medical Director: as MD
  MD - - - - - -> MISLogin
  MD - - - - -> MeetingRoom
  MD - - -> GrantPermission
  MD - - - -> InviteToMeetingRoom
  MD - - - -> ReciveInvite
  MD - - - - - -> checkIn
  MD - - - -> ERSpecialistInfomation
  MD -up-> Protocol

@enduml

PlantUML version 1.2020.02(Sun Mar 01 17:22:07 ICT 2020)
(GPL source distribution)
Java Runtime: Java(TM) SE Runtime Environment
JVM: Java HotSpot(TM) 64-Bit Server VM
Java Version: 1.8.0_181-b13
Operating System: Windows 10
Default Encoding: MS874
Language: en
Country: US
-->
    </g>
</svg>