<?xml version="1.0" encoding="UTF-8" standalone="no"?><svg xmlns="http://www.w3.org/2000/svg" xmlns:xlink="http://www.w3.org/1999/xlink" contentScriptType="application/ecmascript" contentStyleType="text/css" height="2046px" preserveAspectRatio="none" style="width:2023px;height:2046px;" version="1.1" viewBox="0 0 2023 2046" width="2023px" zoomAndPan="magnify">
    <defs>
        <filter height="300%" id="f1xsgldafnymfp" width="300%" x="-1" y="-1">
            <feGaussianBlur result="blurOut" stdDeviation="2.0" />
            <feColorMatrix in="blurOut" result="blurOut2" type="matrix" values="0 0 0 0 0 0 0 0 0 0 0 0 0 0 0 0 0 0 .4 0" />
            <feOffset dx="4.0" dy="4.0" in="blurOut2" result="blurOut3" />
            <feBlend in="SourceGraphic" in2="blurOut3" mode="normal" />
        </filter>
    </defs>
    <g><text fill="#000000" font-family="sans-serif" font-size="18" lengthAdjust="spacingAndGlyphs" textLength="75" x="977" y="18.6855">Use case</text>
        <!--MD5=[917b4abc6a241353bf80a0ce7e5ed3ff]
cluster OIS-->
        <polygon fill="#FFFFFF" filter="url(#f1xsgldafnymfp)" points="1231,1515.1406,1261,1515.1406,1268,1538.75,1822,1538.75,1822,1874.6406,1231,1874.6406,1231,1515.1406" style="stroke: #000000; stroke-width: 1.5;" />
        <line style="stroke: #000000; stroke-width: 1.5;" x1="1231" x2="1268" y1="1538.75" y2="1538.75" /><text fill="#000000" font-family="sans-serif" font-size="14" font-weight="bold" lengthAdjust="spacingAndGlyphs" textLength="24" x="1235" y="1531.6738">OIS</text>
        <ellipse cx="1594.9402" cy="1577.6504" fill="#FEFECE" filter="url(#f1xsgldafnymfp)" rx="62.4402" ry="25.5098" style="stroke: #A80036; stroke-width: 1.5;" /><text fill="#000000" font-family="sans-serif" font-size="14" lengthAdjust="spacingAndGlyphs" textLength="93" x="1548.4402" y="1577.7384">Update Patiant</text><text fill="#000000" font-family="sans-serif" font-size="14" lengthAdjust="spacingAndGlyphs" textLength="40" x="1574.9402" y="1595.3477">Status</text>
        <ellipse cx="1305.9249" cy="1577.8708" fill="#FEFECE" filter="url(#f1xsgldafnymfp)" rx="58.9249" ry="26.7302" style="stroke: #A80036; stroke-width: 1.5;" /><text fill="#000000" font-family="sans-serif" font-size="14" lengthAdjust="spacingAndGlyphs" textLength="83" x="1264.4249" y="1576.0732">ER/Specialist</text><text fill="#000000" font-family="sans-serif" font-size="14" lengthAdjust="spacingAndGlyphs" textLength="65" x="1273.4249" y="1593.6826">Infomation</text>
        <ellipse cx="1749.2401" cy="1577.5923" fill="#FEFECE" filter="url(#f1xsgldafnymfp)" rx="56.7401" ry="15.4517" style="stroke: #A80036; stroke-width: 1.5;" /><text fill="#000000" font-family="sans-serif" font-size="14" lengthAdjust="spacingAndGlyphs" textLength="76" x="1711.2401" y="1582.897">check in/out</text>
        <ellipse cx="1449.2095" cy="1577.6382" fill="#FEFECE" filter="url(#f1xsgldafnymfp)" rx="48.7095" ry="25.9976" style="stroke: #A80036; stroke-width: 1.5;" /><text fill="#000000" font-family="sans-serif" font-size="14" lengthAdjust="spacingAndGlyphs" textLength="42" x="1428.2095" y="1571.3207">Assign</text><text fill="#000000" font-family="sans-serif" font-size="14" lengthAdjust="spacingAndGlyphs" textLength="70" x="1414.2095" y="1588.9301">Ambulance</text>
        <ellipse cx="1680.0217" cy="1832.5437" fill="#FEFECE" filter="url(#f1xsgldafnymfp)" rx="48.5217" ry="25.9031" style="stroke: #A80036; stroke-width: 1.5;" /><text fill="#000000" font-family="sans-serif" font-size="14" lengthAdjust="spacingAndGlyphs" textLength="40" x="1660.0217" y="1826.0789">Switch</text><text fill="#000000" font-family="sans-serif" font-size="14" lengthAdjust="spacingAndGlyphs" textLength="70" x="1645.0217" y="1843.6883">Ambulance</text>
        <ellipse cx="235.9159" cy="1577.6779" fill="#FEFECE" filter="url(#f1xsgldafnymfp)" rx="36.4159" ry="26.5373" style="stroke: #A80036; stroke-width: 1.5;" /><text fill="#000000" font-family="sans-serif" font-size="14" lengthAdjust="spacingAndGlyphs" textLength="50" x="210.9159" y="1576.1695">Meeting</text><text fill="#000000" font-family="sans-serif" font-size="14" lengthAdjust="spacingAndGlyphs" textLength="37" x="217.4159" y="1593.7789">Room</text>
        <ellipse cx="236.0952" cy="2009.5168" fill="#FEFECE" filter="url(#f1xsgldafnymfp)" rx="31.5952" ry="25.8761" style="stroke: #A80036; stroke-width: 1.5;" /><text fill="#000000" font-family="sans-serif" font-size="14" lengthAdjust="spacingAndGlyphs" textLength="36" x="218.0952" y="2005.8509">Close</text><text fill="#000000" font-family="sans-serif" font-size="14" lengthAdjust="spacingAndGlyphs" textLength="37" x="217.5952" y="2023.4603">Room</text>
        <ellipse cx="938.7696" cy="688.0923" fill="#FEFECE" filter="url(#f1xsgldafnymfp)" rx="39.7696" ry="15.4517" style="stroke: #A80036; stroke-width: 1.5;" /><text fill="#000000" font-family="sans-serif" font-size="14" lengthAdjust="spacingAndGlyphs" textLength="52" x="912.7696" y="693.397">Protocol</text>
        <ellipse cx="1012.0477" cy="931.5923" fill="#FEFECE" filter="url(#f1xsgldafnymfp)" rx="47.5477" ry="15.4517" style="stroke: #A80036; stroke-width: 1.5;" /><text fill="#000000" font-family="sans-serif" font-size="14" lengthAdjust="spacingAndGlyphs" textLength="63" x="980.5477" y="936.897">Operation</text>
        <ellipse cx="591.1021" cy="1832.4223" fill="#FEFECE" filter="url(#f1xsgldafnymfp)" rx="29.6021" ry="24.2817" style="stroke: #A80036; stroke-width: 1.5;" /><text fill="#000000" font-family="sans-serif" font-size="14" lengthAdjust="spacingAndGlyphs" textLength="23" x="579.6021" y="1827.3413">MIS</text><text fill="#000000" font-family="sans-serif" font-size="14" lengthAdjust="spacingAndGlyphs" textLength="35" x="573.6021" y="1844.9507">Login</text>
        <ellipse cx="797.098" cy="931.5923" fill="#FEFECE" filter="url(#f1xsgldafnymfp)" rx="42.598" ry="15.4517" style="stroke: #A80036; stroke-width: 1.5;" /><text fill="#000000" font-family="sans-serif" font-size="14" lengthAdjust="spacingAndGlyphs" textLength="56" x="769.098" y="936.897">Medicine</text>
        <ellipse cx="696.1335" cy="1246.5923" fill="#FEFECE" filter="url(#f1xsgldafnymfp)" rx="46.1335" ry="15.4517" style="stroke: #A80036; stroke-width: 1.5;" /><text fill="#000000" font-family="sans-serif" font-size="14" lengthAdjust="spacingAndGlyphs" textLength="61" x="665.6335" y="1251.897">Check list</text>
        <ellipse cx="1141.146" cy="1577.4061" fill="#FEFECE" filter="url(#f1xsgldafnymfp)" rx="70.646" ry="25.2655" style="stroke: #A80036; stroke-width: 1.5;" /><text fill="#000000" font-family="sans-serif" font-size="14" lengthAdjust="spacingAndGlyphs" textLength="33" x="1124.646" y="1569.9225">Invite</text><text fill="#000000" font-family="sans-serif" font-size="14" lengthAdjust="spacingAndGlyphs" textLength="107" x="1087.646" y="1587.5319">to Meeting Room</text>
        <ellipse cx="954.7647" cy="1832.5524" fill="#FEFECE" filter="url(#f1xsgldafnymfp)" rx="32.2647" ry="26.4118" style="stroke: #A80036; stroke-width: 1.5;" /><text fill="#000000" font-family="sans-serif" font-size="14" lengthAdjust="spacingAndGlyphs" textLength="43" x="933.2647" y="1830.7787">Recive</text><text fill="#000000" font-family="sans-serif" font-size="14" lengthAdjust="spacingAndGlyphs" textLength="33" x="938.2647" y="1848.3881">Invite</text>
        <ellipse cx="916.0733" cy="1577.3916" fill="#FEFECE" filter="url(#f1xsgldafnymfp)" rx="47.5733" ry="25.7509" style="stroke: #A80036; stroke-width: 1.5;" /><text fill="#000000" font-family="sans-serif" font-size="14" lengthAdjust="spacingAndGlyphs" textLength="36" x="898.0733" y="1570.6876">Grant</text><text fill="#000000" font-family="sans-serif" font-size="14" lengthAdjust="spacingAndGlyphs" textLength="69" x="881.5733" y="1588.297">Permission</text>
        <ellipse cx="794.1666" cy="1832.8739" fill="#FEFECE" filter="url(#f1xsgldafnymfp)" rx="32.6666" ry="26.7333" style="stroke: #A80036; stroke-width: 1.5;" /><text fill="#000000" font-family="sans-serif" font-size="14" lengthAdjust="spacingAndGlyphs" textLength="43" x="772.6666" y="1830.63">Recive</text><text fill="#000000" font-family="sans-serif" font-size="14" lengthAdjust="spacingAndGlyphs" textLength="36" x="776.1666" y="1848.2394">Grant</text>
        <ellipse cx="1359.8909" cy="475.5923" fill="#FEFECE" filter="url(#f1xsgldafnymfp)" rx="41.8909" ry="15.4517" style="stroke: #A80036; stroke-width: 1.5;" /><text fill="#000000" font-family="sans-serif" font-size="14" lengthAdjust="spacingAndGlyphs" textLength="55" x="1332.3909" y="480.897">Telemed</text>
        <ellipse cx="1431.0946" cy="576.8163" fill="#FEFECE" filter="url(#f1xsgldafnymfp)" rx="30.0946" ry="24.6756" style="stroke: #A80036; stroke-width: 1.5;" /><text fill="#000000" font-family="sans-serif" font-size="14" lengthAdjust="spacingAndGlyphs" textLength="26" x="1418.0946" y="571.9079">Live</text><text fill="#000000" font-family="sans-serif" font-size="14" lengthAdjust="spacingAndGlyphs" textLength="36" x="1413.0946" y="589.5173">Video</text>
        <ellipse cx="1321.2193" cy="576.5923" fill="#FEFECE" filter="url(#f1xsgldafnymfp)" rx="44.7193" ry="15.4517" style="stroke: #A80036; stroke-width: 1.5;" /><text fill="#000000" font-family="sans-serif" font-size="14" lengthAdjust="spacingAndGlyphs" textLength="59" x="1291.7193" y="581.897">Vital Sign</text>
        <ellipse cx="1306.0471" cy="688.2589" fill="#FEFECE" filter="url(#f1xsgldafnymfp)" rx="64.0471" ry="26.1183" style="stroke: #A80036; stroke-width: 1.5;" /><text fill="#000000" font-family="sans-serif" font-size="14" lengthAdjust="spacingAndGlyphs" textLength="93" x="1259.5471" y="687.3895">Switch Partient</text><text fill="#000000" font-family="sans-serif" font-size="14" lengthAdjust="spacingAndGlyphs" textLength="59" x="1276.5471" y="704.9988">Vital Sign</text>
        <!--MD5=[1dcae5ec17ace9dcc055d87e1424e99f]
entity Supervisor-->
        <ellipse cx="1334" cy="40.6406" fill="#FEFECE" filter="url(#f1xsgldafnymfp)" rx="8" ry="8" style="stroke: #A80036; stroke-width: 1.5;" />
        <path d="M1334,48.6406 L1334,75.6406 M1321,56.6406 L1347,56.6406 M1334,75.6406 L1321,90.6406 M1334,75.6406 L1347,90.6406 " fill="none" filter="url(#f1xsgldafnymfp)" style="stroke: #A80036; stroke-width: 1.5;" /><text fill="#000000" font-family="sans-serif" font-size="14" lengthAdjust="spacingAndGlyphs" textLength="68" x="1300" y="110.6738">Supervisor</text>
        <!--MD5=[dfd4219ae26b16e6e974a23a737c25b1]
entity Coordinator-->
        <ellipse cx="712" cy="201.6406" fill="#FEFECE" filter="url(#f1xsgldafnymfp)" rx="8" ry="8" style="stroke: #A80036; stroke-width: 1.5;" />
        <path d="M712,209.6406 L712,236.6406 M699,217.6406 L725,217.6406 M712,236.6406 L699,251.6406 M712,236.6406 L725,251.6406 " fill="none" filter="url(#f1xsgldafnymfp)" style="stroke: #A80036; stroke-width: 1.5;" /><text fill="#000000" font-family="sans-serif" font-size="14" lengthAdjust="spacingAndGlyphs" textLength="75" x="674.5" y="271.6738">Coordinator</text>
        <!--MD5=[8438b603195005c18d5011c1879083f4]
entity Dispatcher-->
        <ellipse cx="1727" cy="201.6406" fill="#FEFECE" filter="url(#f1xsgldafnymfp)" rx="8" ry="8" style="stroke: #A80036; stroke-width: 1.5;" />
        <path d="M1727,209.6406 L1727,236.6406 M1714,217.6406 L1740,217.6406 M1727,236.6406 L1714,251.6406 M1727,236.6406 L1740,251.6406 " fill="none" filter="url(#f1xsgldafnymfp)" style="stroke: #A80036; stroke-width: 1.5;" /><text fill="#000000" font-family="sans-serif" font-size="14" lengthAdjust="spacingAndGlyphs" textLength="68" x="1693" y="271.6738">Dispatcher</text>
        <!--MD5=[8c69140241d2a8b22aee4c2edeaeb65f]
entity CallTaker-->
        <ellipse cx="1499" cy="1332.6406" fill="#FEFECE" filter="url(#f1xsgldafnymfp)" rx="8" ry="8" style="stroke: #A80036; stroke-width: 1.5;" />
        <path d="M1499,1340.6406 L1499,1367.6406 M1486,1348.6406 L1512,1348.6406 M1499,1367.6406 L1486,1382.6406 M1499,1367.6406 L1512,1382.6406 " fill="none" filter="url(#f1xsgldafnymfp)" style="stroke: #A80036; stroke-width: 1.5;" /><text fill="#000000" font-family="sans-serif" font-size="14" lengthAdjust="spacingAndGlyphs" textLength="61" x="1468.5" y="1402.6738">CallTaker</text>
        <!--MD5=[5feeba211306dae78a9255b1c0e912c7]
entity ER-->
        <ellipse cx="591" cy="1332.6406" fill="#FEFECE" filter="url(#f1xsgldafnymfp)" rx="8" ry="8" style="stroke: #A80036; stroke-width: 1.5;" />
        <path d="M591,1340.6406 L591,1367.6406 M578,1348.6406 L604,1348.6406 M591,1367.6406 L578,1382.6406 M591,1367.6406 L604,1382.6406 " fill="none" filter="url(#f1xsgldafnymfp)" style="stroke: #A80036; stroke-width: 1.5;" /><text fill="#000000" font-family="sans-serif" font-size="14" lengthAdjust="spacingAndGlyphs" textLength="19" x="581.5" y="1402.6738">ER</text>
        <!--MD5=[1263a788717e7841c6c3a70e1586692b]
entity Specialist-->
        <ellipse cx="484" cy="1017.6406" fill="#FEFECE" filter="url(#f1xsgldafnymfp)" rx="8" ry="8" style="stroke: #A80036; stroke-width: 1.5;" />
        <path d="M484,1025.6406 L484,1052.6406 M471,1033.6406 L497,1033.6406 M484,1052.6406 L471,1067.6406 M484,1052.6406 L497,1067.6406 " fill="none" filter="url(#f1xsgldafnymfp)" style="stroke: #A80036; stroke-width: 1.5;" /><text fill="#000000" font-family="sans-serif" font-size="14" lengthAdjust="spacingAndGlyphs" textLength="60" x="454" y="1087.6738">Specialist</text>
        <!--MD5=[6e645fe6a8da04c80cb1105d6cd79d8d]
entity Paramedic-->
        <ellipse cx="939" cy="201.6406" fill="#FEFECE" filter="url(#f1xsgldafnymfp)" rx="8" ry="8" style="stroke: #A80036; stroke-width: 1.5;" />
        <path d="M939,209.6406 L939,236.6406 M926,217.6406 L952,217.6406 M939,236.6406 L926,251.6406 M939,236.6406 L952,251.6406 " fill="none" filter="url(#f1xsgldafnymfp)" style="stroke: #A80036; stroke-width: 1.5;" /><text fill="#000000" font-family="sans-serif" font-size="14" lengthAdjust="spacingAndGlyphs" textLength="67" x="905.5" y="271.6738">Paramedic</text>
        <!--MD5=[e291d5aa2260f5663058080aae2b1552]
entity MD-->
        <ellipse cx="1014" cy="1017.6406" fill="#FEFECE" filter="url(#f1xsgldafnymfp)" rx="8" ry="8" style="stroke: #A80036; stroke-width: 1.5;" />
        <path d="M1014,1025.6406 L1014,1052.6406 M1001,1033.6406 L1027,1033.6406 M1014,1052.6406 L1001,1067.6406 M1014,1052.6406 L1027,1067.6406 " fill="none" filter="url(#f1xsgldafnymfp)" style="stroke: #A80036; stroke-width: 1.5;" /><text fill="#000000" font-family="sans-serif" font-size="14" lengthAdjust="spacingAndGlyphs" textLength="102" x="963" y="1087.6738">Medical Director</text>
        <!--MD5=[99518f066654ff0ca3f3d2798510fa93]
link AssignAmbulance to SwitchAmbulance-->
        <path d="M1469.91,1601.5386 C1512.77,1648.4846 1610.39,1755.4016 1655.86,1805.2026 " fill="none" id="AssignAmbulance-&gt;SwitchAmbulance" style="stroke: #A80036; stroke-width: 1.0; stroke-dasharray: 7.0,7.0;" />
        <polygon fill="#A80036" points="1659.31,1808.9766,1656.2049,1799.63,1655.9424,1805.2808,1650.2916,1805.0182,1659.31,1808.9766" style="stroke: #A80036; stroke-width: 1.0;" />
        <!--MD5=[db48ff97b14e708f2e4a45b62773f7c1]
link MeetingRoom to CloseRoom-->
        <path d="M236,1604.3786 C236,1621.5806 236,1644.7166 236,1665.1406 C236,1665.1406 236,1665.1406 236,1922.6406 C236,1943.0955 236,1966.287 236,1983.4279 " fill="none" id="MeetingRoom-CloseRoom" style="stroke: #A80036; stroke-width: 1.0;" />
        <!--MD5=[ee56ebc6e29b0d20aa9220c2d9d56048]
link Protocol to Ops-->
        <path d="M943.457,703.8806 C956.061,745.5806 991.966,864.3606 1006.14,911.2606 " fill="none" id="Protocol-&gt;Ops" style="stroke: #A80036; stroke-width: 1.0; stroke-dasharray: 7.0,7.0;" />
        <polygon fill="#A80036" points="1007.6,916.0906,1008.8318,906.3191,1006.1567,911.3035,1001.1723,908.6284,1007.6,916.0906" style="stroke: #A80036; stroke-width: 1.0;" />
        <!--MD5=[ec52306c40759acdcc016fdf461aa808]
link Protocol to Med-->
        <path d="M930.543,703.5206 C906.125,745.0506 835.516,865.1406 808.083,911.7906 " fill="none" id="Protocol-&gt;Med" style="stroke: #A80036; stroke-width: 1.0; stroke-dasharray: 7.0,7.0;" />
        <polygon fill="#A80036" points="805.413,916.3306,813.4314,910.6117,807.9537,912.0243,806.5412,906.5466,805.413,916.3306" style="stroke: #A80036; stroke-width: 1.0;" />
        <!--MD5=[36e00adda9d547800407b763e370433a]
link Med to Check-->
        <path d="M792.264,947.3206 C775.796,998.3506 721.016,1168.1156 702.318,1226.0606 " fill="none" id="Med-&gt;Check" style="stroke: #A80036; stroke-width: 1.0; stroke-dasharray: 7.0,7.0;" />
        <polygon fill="#A80036" points="700.726,1230.9956,707.2968,1223.6591,702.2616,1226.2373,699.6835,1221.2021,700.726,1230.9956" style="stroke: #A80036; stroke-width: 1.0;" />
        <!--MD5=[a9f7e0fd730e41fef76a67da7aff6299]
link InviteToMeetingRoom to ReciveInvite-->
        <path d="M1133.73,1603.0116 C1120.82,1642.9816 1090.71,1723.2946 1043,1776.1406 C1027.6,1793.1966 1005.775,1807.0066 987.713,1816.5856 " fill="none" id="InviteToMeetingRoom-&gt;ReciveInvite" style="stroke: #A80036; stroke-width: 1.0; stroke-dasharray: 7.0,7.0;" />
        <polygon fill="#A80036" points="983.208,1818.9286,993.0383,1818.3243,987.6439,1816.6214,989.3468,1811.227,983.208,1818.9286" style="stroke: #A80036; stroke-width: 1.0;" /><text fill="#000000" font-family="sans-serif" font-size="13" lengthAdjust="spacingAndGlyphs" textLength="55" x="1097" y="1710.6357">&lt;extend&gt;</text>
        <!--MD5=[6dcdfc8bbecb2f2054cce8805f035df2]
link GrantPermission to ReciveGrant-->
        <path d="M909.499,1603.5566 C898.769,1642.2446 875.093,1718.3246 841,1776.1406 C834.434,1787.2746 825.604,1798.3796 817.369,1807.6976 " fill="none" id="GrantPermission-&gt;ReciveGrant" style="stroke: #A80036; stroke-width: 1.0; stroke-dasharray: 7.0,7.0;" />
        <polygon fill="#A80036" points="813.885,1811.5766,822.8749,1807.5541,817.2262,1807.8569,816.9234,1802.2081,813.885,1811.5766" style="stroke: #A80036; stroke-width: 1.0;" /><text fill="#000000" font-family="sans-serif" font-size="13" lengthAdjust="spacingAndGlyphs" textLength="55" x="880" y="1710.6357">&lt;extend&gt;</text>
        <!--MD5=[5a09b9336d7b1badde5bdbdc57b8158a]
link Telemed to LiveVideo-->
        <path d="M1370.17,490.8206 C1382.21,507.6106 1402.36,535.7106 1416.15,554.9306 " fill="none" id="Telemed-LiveVideo" style="stroke: #A80036; stroke-width: 1.0;" />
        <!--MD5=[09b560ea3da9a45eb59e7572d275dd60]
link Telemed to VitalSign-->
        <path d="M1354.25,491.2506 C1346.87,509.9706 1334.16,542.2306 1326.78,560.9706 " fill="none" id="Telemed-VitalSign" style="stroke: #A80036; stroke-width: 1.0;" />
        <!--MD5=[3b1dadcd7a9044100001f6b44cb0e8a9]
link VitalSign to SwitchVS-->
        <path d="M1318.98,592.4106 C1316.53,610.2706 1312.37,640.6206 1309.42,662.1506 " fill="none" id="VitalSign-SwitchVS" style="stroke: #A80036; stroke-width: 1.0;" />
        <!--MD5=[39319b6c2da00a2fafb91dc5fb043224]
link Supervisor to Coordinator-->
        <path d="M1299.67,82.4206 C1193.65,109.5206 871.506,191.8706 754.798,221.7006 " fill="none" id="Supervisor-&gt;Coordinator" style="stroke: #A80036; stroke-width: 1.0; stroke-dasharray: 7.0,7.0;" />
        <polygon fill="#A80036" points="749.73,223.0006,759.4405,224.6459,754.5741,221.7617,757.4582,216.8954,749.73,223.0006" style="stroke: #A80036; stroke-width: 1.0;" /><text fill="#000000" font-family="sans-serif" font-size="13" lengthAdjust="spacingAndGlyphs" textLength="55" x="1043" y="158.6357">&lt;extend&gt;</text>
        <!--MD5=[13e720b8bf22dd82b53d29d00be24dcb]
link Supervisor to Dispatcher-->
        <path d="M1368.19,87.4706 C1441.01,116.9306 1611.03,185.7206 1687.96,216.8506 " fill="none" id="Supervisor-&gt;Dispatcher" style="stroke: #A80036; stroke-width: 1.0; stroke-dasharray: 7.0,7.0;" />
        <polygon fill="#A80036" points="1692.89,218.8406,1686.038,211.766,1688.2526,216.9714,1683.0472,219.1859,1692.89,218.8406" style="stroke: #A80036; stroke-width: 1.0;" /><text fill="#000000" font-family="sans-serif" font-size="13" lengthAdjust="spacingAndGlyphs" textLength="55" x="1544" y="158.6357">&lt;extend&gt;</text>
        <!--MD5=[52f941608d78ca7abe17a1f85c0cfd28]
link CallTaker to UpdatePatiantStatus-->
        <path d="M1517.12,1406.3046 C1528.95,1432.7836 1544.8,1468.0556 1559,1499.1406 C1566.31,1515.1436 1574.58,1532.9516 1581.34,1547.4576 " fill="none" id="CallTaker-&gt;UpdatePatiantStatus" style="stroke: #A80036; stroke-width: 1.0;" />
        <polygon fill="#A80036" points="1583.57,1552.2436,1583.3896,1542.3964,1581.456,1547.7125,1576.1399,1545.7789,1583.57,1552.2436" style="stroke: #A80036; stroke-width: 1.0;" />
        <!--MD5=[15f037edf9b9eb830d5ca8d6cf4e2d6b]
link CallTaker to AssignAmbulance-->
        <path d="M1489.36,1406.3236 C1479.65,1447.2996 1464.89,1509.5756 1456.17,1546.3806 " fill="none" id="CallTaker-&gt;AssignAmbulance" style="stroke: #A80036; stroke-width: 1.0;" />
        <polygon fill="#A80036" points="1454.93,1551.6206,1460.9003,1543.7877,1456.0847,1546.7558,1453.1166,1541.9402,1454.93,1551.6206" style="stroke: #A80036; stroke-width: 1.0;" />
        <!--MD5=[aab6c96682c91123151a9eb54bdbc358]
link Coordinator to ERSpecialistInfomation-->
        <path d="M749.763,241.9106 C795.932,253.2306 868,279.9206 868,336.1406 C868,336.1406 868,336.1406 868,522.1406 C868,606.4506 950.485,591.1706 996,662.1406 C1115.56,848.5706 1119.36,911.2306 1190,1121.1406 C1242.74,1277.8636 1284.67,1471.8726 1299.86,1545.9446 " fill="none" id="Coordinator-&gt;ERSpecialistInfomation" style="stroke: #A80036; stroke-width: 1.0;" />
        <polygon fill="#A80036" points="1300.9,1551.0686,1303.0169,1541.45,1299.8988,1546.1699,1295.1789,1543.0518,1300.9,1551.0686" style="stroke: #A80036; stroke-width: 1.0;" />
        <!--MD5=[5272508c55a89d82b7957e283d2e681d]
link Coordinator to MeetingRoom-->
        <path d="M674.272,236.8206 C540.095,245.0906 94,277.0206 94,336.1406 C94,336.1406 94,336.1406 94,1468.1406 C94,1520.4206 155.523,1550.8856 197.577,1565.6026 " fill="none" id="Coordinator-&gt;MeetingRoom" style="stroke: #A80036; stroke-width: 1.0;" />
        <polygon fill="#A80036" points="202.348,1567.2346,195.126,1560.5382,197.6169,1565.6171,192.5379,1568.108,202.348,1567.2346" style="stroke: #A80036; stroke-width: 1.0;" /><text fill="#000000" font-family="sans-serif" font-size="13" lengthAdjust="spacingAndGlyphs" textLength="61" x="95" y="851.6357">Case G, Y</text>
        <!--MD5=[5dd848c4d1376950c73c8212584afbee]
link Coordinator to checkIn-->
        <path d="M749.742,243.4506 C829.93,262.7006 1010,308.9506 1010,336.1406 C1010,336.1406 1010,336.1406 1010,522.1406 C1010,567.3306 1042.05,569.1906 1074,601.1406 C1176.33,703.4806 1226.87,701.6506 1327,806.1406 C1427.65,911.1806 1389.19,984.3606 1488,1091.1406 C1599.52,1211.6646 1798,1127.9356 1798,1292.1406 C1798,1292.1406 1798,1292.1406 1798,1468.1406 C1798,1502.1016 1777.81,1537.1656 1763.35,1557.9256 " fill="none" id="Coordinator-&gt;checkIn" style="stroke: #A80036; stroke-width: 1.0;" />
        <polygon fill="#A80036" points="1760.36,1562.1326,1768.8276,1557.1028,1763.2512,1558.0533,1762.3007,1552.4769,1760.36,1562.1326" style="stroke: #A80036; stroke-width: 1.0;" />
        <!--MD5=[85b3fa37b778af4b3b31d3bd47d0066b]
link Coordinator to Protocol-->
        <path d="M674.378,247.9606 C638.858,263.2306 591,292.0006 591,336.1406 C591,336.1406 591,336.1406 591,577.6406 C591,640.8106 802.297,672.0206 895.599,682.7206 " fill="none" id="Coordinator-&gt;Protocol" style="stroke: #A80036; stroke-width: 1.0;" />
        <polygon fill="#A80036" points="900.762,683.3106,892.2707,678.3208,895.7939,682.7465,891.3682,686.2697,900.762,683.3106" style="stroke: #A80036; stroke-width: 1.0;" />
        <!--MD5=[c026ff61d247cbc55291a5cf11e85969]
link Coordinator to CloseRoom-->
        <path d="M674.042,236.0606 C527.399,242.0206 6,268.0306 6,336.1406 C6,336.1406 6,336.1406 6,1922.6406 C6,1963.4836 134.854,1991.3658 199.671,2002.8075 " fill="none" id="Coordinator-&gt;CloseRoom" style="stroke: #A80036; stroke-width: 1.0;" />
        <polygon fill="#A80036" points="204.981,2003.7334,196.8015,1998.2474,200.0553,2002.8749,195.4278,2006.1286,204.981,2003.7334" style="stroke: #A80036; stroke-width: 1.0;" />
        <!--MD5=[8c5db0d512f3aa2c073f6944be752e25]
link Dispatcher to ERSpecialistInfomation-->
        <path d="M1761.25,263.4606 C1779.41,282.0506 1798,307.9706 1798,336.1406 C1798,336.1406 1798,336.1406 1798,522.1406 C1798,596.6806 1768,612.6006 1768,687.1406 C1768,687.1406 1768,687.1406 1768,807.1406 C1768,987.0606 1784.16,1058.1176 1675,1201.1406 C1606.22,1291.2546 1531.99,1243.8206 1451,1323.1406 C1382.92,1389.8126 1336.65,1495.2156 1316.86,1546.5506 " fill="none" id="Dispatcher-&gt;ERSpecialistInfomation" style="stroke: #A80036; stroke-width: 1.0;" />
        <polygon fill="#A80036" points="1315.03,1551.3466,1321.978,1544.3663,1316.8141,1546.6757,1314.5046,1541.5118,1315.03,1551.3466" style="stroke: #A80036; stroke-width: 1.0;" />
        <!--MD5=[c77f09a8438623b12595c1375f2cecfd]
link Dispatcher to MeetingRoom-->
        <path d="M1727,275.1406 C1727,293.7306 1727,316.0506 1727,336.1406 C1727,336.1406 1727,336.1406 1727,522.1406 C1727,565.2906 1117.72,932.8706 1077,947.1406 C896.886,1010.2406 236,930.2906 236,1121.1406 C236,1121.1406 236,1121.1406 236,1468.1406 C236,1494.2986 236,1524.0046 236,1545.7116 " fill="none" id="Dispatcher-&gt;MeetingRoom" style="stroke: #A80036; stroke-width: 1.0;" />
        <polygon fill="#A80036" points="236,1550.7716,240,1541.7716,236,1545.7716,232,1541.7716,236,1550.7716" style="stroke: #A80036; stroke-width: 1.0;" /><text fill="#000000" font-family="sans-serif" font-size="13" lengthAdjust="spacingAndGlyphs" textLength="43" x="1269" y="851.6357">Case R</text>
        <!--MD5=[2f0a8cba5a91d61a262041846568aa2e]
link Dispatcher to checkIn-->
        <path d="M1761.22,235.8206 C1821.43,239.9106 1940,257.9006 1940,336.1406 C1940,336.1406 1940,336.1406 1940,1468.1406 C1940,1531.2586 1860.17,1558.1136 1803.73,1569.2136 " fill="none" id="Dispatcher-&gt;checkIn" style="stroke: #A80036; stroke-width: 1.0;" />
        <polygon fill="#A80036" points="1798.68,1570.1756,1808.2664,1572.434,1803.593,1569.2468,1806.7802,1564.5733,1798.68,1570.1756" style="stroke: #A80036; stroke-width: 1.0;" />
        <!--MD5=[9304e6ed7e600334f48bb49f62366d05]
link Dispatcher to InviteToMeetingRoom-->
        <path d="M1692.75,263.4606 C1674.59,282.0506 1656,307.9706 1656,336.1406 C1656,336.1406 1656,336.1406 1656,522.1406 C1656,595.6406 1667,613.6406 1667,687.1406 C1667,687.1406 1667,687.1406 1667,807.1406 C1667,958.0906 1619.14,993.6006 1540,1122.1406 C1481.61,1216.9766 1246.02,1466.7246 1166.99,1549.5316 " fill="none" id="Dispatcher-&gt;InviteToMeetingRoom" style="stroke: #A80036; stroke-width: 1.0;" />
        <polygon fill="#A80036" points="1163.35,1553.3476,1172.4593,1549.6031,1166.8039,1549.7323,1166.6747,1544.0769,1163.35,1553.3476" style="stroke: #A80036; stroke-width: 1.0;" />
        <!--MD5=[1568eda5cc0f546f11e3f02df203e82d]
link Dispatcher to Protocol-->
        <path d="M1692.76,251.6206 C1619.68,288.0906 1443.39,377.3506 1300,460.1406 C1170.03,535.1806 1019.53,633.7206 962.513,671.4906 " fill="none" id="Dispatcher-&gt;Protocol" style="stroke: #A80036; stroke-width: 1.0;" />
        <polygon fill="#A80036" points="958.25,674.3106,967.9622,672.6757,962.4186,671.5497,963.5447,666.006,958.25,674.3106" style="stroke: #A80036; stroke-width: 1.0;" />
        <!--MD5=[60805e60125b7e4d340108d194850b16]
link Dispatcher to CloseRoom-->
        <path d="M1761.26,239.4806 C1836.79,251.1206 2011,283.6506 2011,336.1406 C2011,336.1406 2011,336.1406 2011,1922.6406 C2011,2012.9364 526.214,2010.0015 272.622,2008.8417 " fill="none" id="Dispatcher-&gt;CloseRoom" style="stroke: #A80036; stroke-width: 1.0;" />
        <polygon fill="#A80036" points="267.562,2008.818,276.5436,2012.8591,272.5619,2008.8409,276.5802,2004.8592,267.562,2008.818" style="stroke: #A80036; stroke-width: 1.0;" />
        <!--MD5=[a4bcead228a5ff90c13031c70d93dafd]
link ER to ReciveInvite-->
        <path d="M605.711,1376.6486 C626.508,1393.5946 662,1428.2166 662,1467.1406 C662,1467.1406 662,1467.1406 662,1745.1406 C662,1769.4266 684.721,1766.4736 707,1776.1406 C764.18,1800.9526 783.18,1792.4956 844,1806.1406 C869.006,1811.7506 897.144,1818.2166 918.832,1823.2336 " fill="none" id="ER-&gt;ReciveInvite" style="stroke: #A80036; stroke-width: 1.0;" />
        <polygon fill="#A80036" points="923.919,1824.4106,916.0523,1818.4848,919.0477,1823.2835,914.249,1826.2789,923.919,1824.4106" style="stroke: #A80036; stroke-width: 1.0;" />
        <!--MD5=[57abf21f6cc8357b1216cd29ba3bc8dd]
link ER to MISLogin-->
        <path d="M591,1406.1416 C591,1424.7266 591,1447.0516 591,1467.1406 C591,1467.1406 591,1467.1406 591,1745.1406 C591,1764.3296 591,1785.9136 591,1802.7206 " fill="none" id="ER-&gt;MISLogin" style="stroke: #A80036; stroke-width: 1.0;" />
        <polygon fill="#A80036" points="591,1807.7756,595,1798.7756,591,1802.7756,587,1798.7756,591,1807.7756" style="stroke: #A80036; stroke-width: 1.0;" />
        <!--MD5=[3cf2959151ffc682140aad190f327c71]
link Specialist to ER-->
        <path d="M489.715,1091.2386 C494.666,1121.9166 502.947,1164.8066 515,1201.1406 C530.795,1248.7566 556.803,1300.7866 573.917,1332.8236 " fill="none" id="Specialist-&gt;ER" style="stroke: #A80036; stroke-width: 1.0; stroke-dasharray: 7.0,7.0;" />
        <polygon fill="#A80036" points="576.375,1337.4026,575.6414,1327.5811,574.0096,1332.9975,568.5932,1331.3657,576.375,1337.4026" style="stroke: #A80036; stroke-width: 1.0;" /><text fill="#000000" font-family="sans-serif" font-size="13" lengthAdjust="spacingAndGlyphs" textLength="55" x="516" y="1197.6357">&lt;extend&gt;</text>
        <!--MD5=[ae6d7be87561fe24c220e42bdbae8f97]
link Specialist to MeetingRoom-->
        <path d="M453.974,1071.4186 C403.475,1109.0826 307,1193.8936 307,1292.1406 C307,1292.1406 307,1292.1406 307,1468.1406 C307,1501.6246 283.031,1532.8266 262.946,1553.0956 " fill="none" id="Specialist-&gt;MeetingRoom" style="stroke: #A80036; stroke-width: 1.0;" />
        <polygon fill="#A80036" points="259.248,1556.7506,268.4609,1553.269,262.8042,1553.2359,262.8373,1547.5791,259.248,1556.7506" style="stroke: #A80036; stroke-width: 1.0;" />
        <!--MD5=[f91ed9a4c0a4916a8afbd12ca74343b8]
link Specialist to ReciveGrant-->
        <path d="M481.755,1091.4886 C481.508,1101.5156 481.5,1112.2186 482,1122.1406 C490.455,1289.8896 520,1330.1786 520,1498.1406 C520,1498.1406 520,1498.1406 520,1745.1406 C520,1769.7416 682.695,1807.7906 757.349,1823.9546 " fill="none" id="Specialist-&gt;ReciveGrant" style="stroke: #A80036; stroke-width: 1.0;" />
        <polygon fill="#A80036" points="762.569,1825.0806,754.6145,1819.2732,757.6814,1824.0265,752.928,1827.0934,762.569,1825.0806" style="stroke: #A80036; stroke-width: 1.0;" />
        <!--MD5=[6393b41e6076f631591caddc251726fd]
link Specialist to ReciveInvite-->
        <path d="M513.541,1091.3586 C579.499,1183.8766 733,1408.7876 733,1498.1406 C733,1498.1406 733,1498.1406 733,1745.1406 C733,1764.9046 856.742,1803.3726 919.457,1821.5996 " fill="none" id="Specialist-&gt;ReciveInvite" style="stroke: #A80036; stroke-width: 1.0;" />
        <polygon fill="#A80036" points="924.597,1823.0876,917.0638,1816.7433,919.7941,1821.6976,914.8398,1824.4279,924.597,1823.0876" style="stroke: #A80036; stroke-width: 1.0;" />
        <!--MD5=[fc03e660e42cea0fb5473c7fb14ea1a8]
link Paramedic to MISLogin-->
        <path d="M905.269,243.6306 C870.74,252.5906 815.429,266.2506 767,275.1406 C716.289,284.4506 307,284.5806 307,336.1406 C307,336.1406 307,336.1406 307,1122.1406 C307,1330.1836 419,1368.5976 419,1576.6406 C419,1576.6406 419,1576.6406 419,1745.1406 C419,1806.0536 506.165,1824.0776 556.393,1829.4066 " fill="none" id="Paramedic-&gt;MISLogin" style="stroke: #A80036; stroke-width: 1.0;" />
        <polygon fill="#A80036" points="561.432,1829.9116,552.8772,1825.0316,556.4571,1829.4116,552.0771,1832.9915,561.432,1829.9116" style="stroke: #A80036; stroke-width: 1.0;" />
        <!--MD5=[1ba1e146088e54cd8979da42cdd04062]
link Paramedic to MeetingRoom-->
        <path d="M905.386,244.3406 C870.951,253.8606 815.711,267.9506 767,275.1406 C705.408,284.2306 210,273.8806 210,336.1406 C210,336.1406 210,336.1406 210,807.1406 C210,948.1206 165,980.1606 165,1121.1406 C165,1121.1406 165,1121.1406 165,1468.1406 C165,1501.6246 188.969,1532.8266 209.054,1553.0956 " fill="none" id="Paramedic-&gt;MeetingRoom" style="stroke: #A80036; stroke-width: 1.0;" />
        <polygon fill="#A80036" points="212.752,1556.7506,209.1627,1547.5791,209.1958,1553.2359,203.5391,1553.269,212.752,1556.7506" style="stroke: #A80036; stroke-width: 1.0;" />
        <!--MD5=[64aa5dcbdac2a3f57315b050104d28bb]
link Paramedic to Protocol-->
        <path d="M939,275.1406 C939,293.7306 939,316.0506 939,336.1406 C939,336.1406 939,336.1406 939,577.6406 C939,609.0106 939,645.4406 939,667.3606 " fill="none" id="Paramedic-&gt;Protocol" style="stroke: #A80036; stroke-width: 1.0;" />
        <polygon fill="#A80036" points="939,672.6206,943,663.6206,939,667.6206,935,663.6206,939,672.6206" style="stroke: #A80036; stroke-width: 1.0;" />
        <!--MD5=[fb010cc91a2b41c6b0304e090f1656e5]
link Paramedic to SwitchVS-->
        <path d="M972.75,235.7806 C1032.81,239.8106 1152,257.7006 1152,336.1406 C1152,336.1406 1152,336.1406 1152,522.1406 C1152,587.4306 1217.24,637.6306 1262.8,664.7206 " fill="none" id="Paramedic-&gt;SwitchVS" style="stroke: #A80036; stroke-width: 1.0;" />
        <polygon fill="#A80036" points="1267.14,667.2706,1261.3979,659.2688,1262.8263,664.7424,1257.3527,666.1708,1267.14,667.2706" style="stroke: #A80036; stroke-width: 1.0;" />
        <!--MD5=[f0a667a4e6874697ed81780c0c90425d]
link Paramedic to Med-->
        <path d="M905.348,242.7706 C863.357,255.1506 797,283.1106 797,336.1406 C797,336.1406 797,336.1406 797,847.1406 C797,868.7606 797,893.5306 797,910.4406 " fill="none" id="Paramedic-&gt;Med" style="stroke: #A80036; stroke-width: 1.0;" />
        <polygon fill="#A80036" points="797,915.8606,801,906.8606,797,910.8606,793,906.8606,797,915.8606" style="stroke: #A80036; stroke-width: 1.0;" />
        <!--MD5=[6bde3c1ab56a55973f184f59e1433428]
link Paramedic to Check-->
        <path d="M905.311,243.3406 C831.49,262.8706 662,310.5006 662,336.1406 C662,336.1406 662,336.1406 662,1153.1406 C662,1179.9546 674.742,1208.6046 684.625,1226.7936 " fill="none" id="Paramedic-&gt;Check" style="stroke: #A80036; stroke-width: 1.0;" />
        <polygon fill="#A80036" points="687.067,1231.1846,686.189,1221.375,684.6371,1226.8148,679.1973,1225.2628,687.067,1231.1846" style="stroke: #A80036; stroke-width: 1.0;" />
        <!--MD5=[5a8af6b1b26d464cbd39c7c00cf9f5a0]
link Paramedic to checkIn-->
        <path d="M972.652,242.7706 C1014.64,255.1506 1081,283.1106 1081,336.1406 C1081,336.1406 1081,336.1406 1081,522.1406 C1081,839.8706 1204.34,917.0806 1417,1153.1406 C1505.95,1251.8806 1582.93,1217.0666 1663,1323.1406 C1719.23,1397.6366 1740.16,1511.2666 1746.57,1556.7786 " fill="none" id="Paramedic-&gt;checkIn" style="stroke: #A80036; stroke-width: 1.0;" />
        <polygon fill="#A80036" points="1747.29,1561.9836,1750.0351,1552.5251,1746.6133,1557.0296,1742.1087,1553.6078,1747.29,1561.9836" style="stroke: #A80036; stroke-width: 1.0;" />
        <!--MD5=[ba32fffafa6430a49a0cfc65700cc5ca]
link Paramedic to SwitchAmbulance-->
        <path d="M972.822,236.3406 C1105.74,243.4806 1585,273.5606 1585,336.1406 C1585,336.1406 1585,336.1406 1585,577.6406 C1585,736.8906 1861,646.8906 1861,806.1406 C1861,806.1406 1861,806.1406 1861,1122.1406 C1861,1177.1446 1869,1190.6366 1869,1245.6406 C1869,1245.6406 1869,1245.6406 1869,1745.1406 C1869,1805.0396 1789.54,1823.6276 1733.66,1829.2946 " fill="none" id="Paramedic-&gt;SwitchAmbulance" style="stroke: #A80036; stroke-width: 1.0;" />
        <polygon fill="#A80036" points="1728.67,1829.7736,1738.016,1832.8806,1733.6464,1829.288,1737.2389,1824.9184,1728.67,1829.7736" style="stroke: #A80036; stroke-width: 1.0;" />
        <!--MD5=[23191dde4dc5d67be91171ea12bcf9dd]
link Paramedic to UpdatePatiantStatus-->
        <path d="M972.822,240.7006 C1096.08,264.9006 1514,366.4906 1514,631.1406 C1514,631.1406 1514,631.1406 1514,1193.1406 C1514,1252.7506 1534.12,1264.9396 1547,1323.1406 C1564.84,1403.7356 1581.87,1499.6606 1590.01,1547.0796 " fill="none" id="Paramedic-&gt;UpdatePatiantStatus" style="stroke: #A80036; stroke-width: 1.0;" />
        <polygon fill="#A80036" points="1590.86,1552.0666,1593.2857,1542.5211,1590.0172,1547.1382,1585.4001,1543.8697,1590.86,1552.0666" style="stroke: #A80036; stroke-width: 1.0;" />
        <!--MD5=[3948f154c6598bf838ec7e66f6f94600]
link MD to MISLogin-->
        <path d="M969.899,1091.3166 C961.288,1100.5836 952.826,1110.7716 946,1121.1406 C929.57,1146.0986 929.198,1154.7116 920,1183.1406 C856.647,1378.9526 815,1428.3356 815,1634.1406 C815,1634.1406 815,1634.1406 815,1745.1406 C815,1785.3846 687.589,1814.1266 624.95,1825.8256 " fill="none" id="MD-&gt;MISLogin" style="stroke: #A80036; stroke-width: 1.0;" />
        <polygon fill="#A80036" points="619.826,1826.7716,629.4023,1829.0724,624.743,1825.8645,627.9509,1821.2052,619.826,1826.7716" style="stroke: #A80036; stroke-width: 1.0;" />
        <!--MD5=[780da28ebf1be06832b68d4fa50a0428]
link MD to MeetingRoom-->
        <path d="M975.314,1091.3426 C928.292,1138.6286 844.571,1216.0316 759,1262.1406 C677.189,1306.2226 641.398,1280.1666 559,1323.1406 C526.388,1340.1486 336.42,1494.4996 264.016,1553.6856 " fill="none" id="MD-&gt;MeetingRoom" style="stroke: #A80036; stroke-width: 1.0;" />
        <polygon fill="#A80036" points="259.831,1557.1076,269.3298,1554.5053,263.7011,1553.9418,264.2645,1548.3131,259.831,1557.1076" style="stroke: #A80036; stroke-width: 1.0;" />
        <!--MD5=[05211c8b26ed5c19b2d767f79b3c73b5]
link MD to GrantPermission-->
        <path d="M971.321,1091.1886 C957.658,1108.3916 946,1129.6576 946,1152.1406 C946,1152.1406 946,1152.1406 946,1468.1406 C946,1495.7586 936.859,1525.9466 928.668,1547.4526 " fill="none" id="MD-&gt;GrantPermission" style="stroke: #A80036; stroke-width: 1.0;" />
        <polygon fill="#A80036" points="926.831,1552.1776,933.82,1545.2383,928.6425,1547.5173,926.3635,1542.3399,926.831,1552.1776" style="stroke: #A80036; stroke-width: 1.0;" />
        <!--MD5=[858c63aed9326116e7d2d6abccbf98cc]
link MD to InviteToMeetingRoom-->
        <path d="M1061.28,1091.5106 C1075.79,1108.4566 1088,1129.4606 1088,1152.1406 C1088,1152.1406 1088,1152.1406 1088,1468.1406 C1088,1497.6946 1104.07,1527.6006 1118.51,1548.5096 " fill="none" id="MD-&gt;InviteToMeetingRoom" style="stroke: #A80036; stroke-width: 1.0;" />
        <polygon fill="#A80036" points="1121.57,1552.8316,1119.6496,1543.1718,1118.6874,1548.7462,1113.1129,1547.784,1121.57,1552.8316" style="stroke: #A80036; stroke-width: 1.0;" />
        <!--MD5=[2d032cbfb510cb54f1ff16f6bcb8d217]
link MD to ReciveInvite-->
        <path d="M1015.76,1091.6226 C1016.42,1110.1086 1017,1132.2196 1017,1152.1406 C1017,1152.1406 1017,1152.1406 1017,1745.1406 C1017,1770.9066 998.602,1794.2696 981.85,1810.2006 " fill="none" id="MD-&gt;ReciveInvite" style="stroke: #A80036; stroke-width: 1.0;" />
        <polygon fill="#A80036" points="978.087,1813.6866,987.4089,1810.5084,981.7563,1810.2901,981.9745,1804.6375,978.087,1813.6866" style="stroke: #A80036; stroke-width: 1.0;" />
        <!--MD5=[dd831f050c044493fa32b7c79b2ef305]
link MD to checkIn-->
        <path d="M1065.01,1069.0266 C1193.37,1116.0396 1525.47,1242.5976 1610,1323.1406 C1673.75,1383.8846 1657.56,1422.5406 1701,1499.1406 C1712.53,1519.4766 1726.74,1542.1486 1736.69,1557.6886 " fill="none" id="MD-&gt;checkIn" style="stroke: #A80036; stroke-width: 1.0;" />
        <polygon fill="#A80036" points="1739.64,1562.2726,1738.1482,1552.5374,1736.9407,1558.0639,1731.4142,1556.8563,1739.64,1562.2726" style="stroke: #A80036; stroke-width: 1.0;" />
        <!--MD5=[7b84873b7ea2f1f359b46b24032402f9]
link MD to ERSpecialistInfomation-->
        <path d="M1065.12,1063.7406 C1106.87,1077.8766 1159,1104.9726 1159,1152.1406 C1159,1152.1406 1159,1152.1406 1159,1437.1406 C1159,1472.2626 1179.68,1478.3636 1208,1499.1406 C1216.05,1505.0486 1220.48,1501.9276 1229,1507.1406 C1247.81,1518.6526 1266.25,1535.0586 1280.37,1549.0406 " fill="none" id="MD-&gt;ERSpecialistInfomation" style="stroke: #A80036; stroke-width: 1.0;" />
        <polygon fill="#A80036" points="1284.23,1552.9136,1280.7112,1543.7148,1280.7009,1549.3717,1275.0441,1549.3614,1284.23,1552.9136" style="stroke: #A80036; stroke-width: 1.0;" />
        <!--MD5=[b762de6486526762a767509aea067f0b]
reverse link Ops to MD-->
        <path d="M1012.34,952.6306 C1012.61,967.8006 1012.97,989.1906 1013.3,1007.9206 " fill="none" id="Ops&lt;-MD" style="stroke: #A80036; stroke-width: 1.0;" />
        <polygon fill="#A80036" points="1012.25,947.3306,1008.4049,956.3979,1012.3357,952.3299,1016.4037,956.2607,1012.25,947.3306" style="stroke: #A80036; stroke-width: 1.0;" />
        <!--MD5=[b85cc98cac4b46dfa60f826332050039]
@startuml
Title Use case
  usecase (Meeting\nRoom) as MeetingRoom
  usecase (Close\nRoom) as CloseRoom
  usecase (Protocol) as Protocol
  usecase (Operation) as Ops
  usecase (MIS\nLogin) as MISLogin
  usecase (Medicine) as Med
  usecase (Check list) as Check
  usecase (Invite\nto Meeting Room) as InviteToMeetingRoom
  usecase (Recive\nInvite) as ReciveInvite
  usecase (Grant\nPermission) as GrantPermission
  usecase (Recive\nGrant) as ReciveGrant
  usecase (Telemed) as Telemed
  usecase (Live\nVideo) as LiveVideo
  usecase (Vital Sign) as VitalSign
  usecase (Switch Partient\nVital Sign) as SwitchVS

  package OIS{
    usecase (Update Patiant\nStatus) as UpdatePatiantStatus
    usecase (ER/Specialist\nInfomation) as ERSpecialistInfomation
    usecase (check in/out) as checkIn
    usecase (Assign\nAmbulance) as AssignAmbulance
    usecase (Switch\nAmbulance) as SwitchAmbulance
    AssignAmbulance ....> SwitchAmbulance
  }

  MeetingRoom - - - - - - CloseRoom
  Protocol ....> Ops
  Protocol ....> Med
  Med ....> Check
  InviteToMeetingRoom ....> ReciveInvite :<extend>
  GrantPermission ....> ReciveGrant:<extend>
  Telemed - - LiveVideo
  Telemed - - VitalSign
  VitalSign - - SwitchVS


  Supervisor ..> Coordinator :<extend>
  Supervisor ..> Dispatcher :<extend>

  CallTaker - - -> UpdatePatiantStatus
  CallTaker - - -> AssignAmbulance

  Coordinator - - - - - -> ERSpecialistInfomation
  Coordinator - - - - - -> MeetingRoom: Case G, Y
  Coordinator - -> checkIn
  Coordinator - - - - - -> Protocol
  Coordinator - - - - - -> CloseRoom

  Dispatcher - - - - - -> ERSpecialistInfomation
  Dispatcher - - - - - -> MeetingRoom : Case R
  Dispatcher - -> checkIn
  Dispatcher - - - - - -> InviteToMeetingRoom
  Dispatcher - - - - - -> Protocol
  Dispatcher - - - - - -> CloseRoom

  ER - - - - - -> ReciveInvite
  ER - - - - - -> MISLogin

  Specialist ....> ER :<extend>
  Specialist - - - - - -> MeetingRoom
  Specialist - - - - - -> ReciveGrant
  Specialist - - - - - -> ReciveInvite

  Paramedic - - - - - -> MISLogin
  Paramedic - - - - - -> MeetingRoom
  Paramedic - - - - - -> Protocol
  Paramedic - - - - - -> SwitchVS
  Paramedic - - - - - -> Med
  Paramedic - - - - - -> Check
  Paramedic - - - - - -> checkIn
  Paramedic - - - - - -> SwitchAmbulance
  Paramedic - - - - - -> UpdatePatiantStatus

  :Medical Director: as MD
  MD - - - - - -> MISLogin
  MD - - - - - -> MeetingRoom
  MD - - - - - -> GrantPermission
  MD - - - - - -> InviteToMeetingRoom
  MD - - - - - -> ReciveInvite
  MD - - - - - -> checkIn
  MD - - - - - -> ERSpecialistInfomation
  MD -up-> Ops

@enduml

PlantUML version 1.2020.02(Sun Mar 01 17:22:07 ICT 2020)
(GPL source distribution)
Java Runtime: Java(TM) SE Runtime Environment
JVM: Java HotSpot(TM) 64-Bit Server VM
Java Version: 1.8.0_261-b12
Operating System: Windows 10
Default Encoding: Cp1252
Language: en
Country: US
-->
    </g>
</svg>