<?xml version="1.0" encoding="UTF-8" standalone="no"?><svg xmlns="http://www.w3.org/2000/svg" xmlns:xlink="http://www.w3.org/1999/xlink" contentScriptType="application/ecmascript" contentStyleType="text/css" height="1347px" preserveAspectRatio="none" style="width:2559px;height:1347px;" version="1.1" viewBox="0 0 2559 1347" width="2559px" zoomAndPan="magnify">
    <defs>
        <filter height="300%" id="fys9oszvy5ye5" width="300%" x="-1" y="-1">
            <feGaussianBlur result="blurOut" stdDeviation="2.0" />
            <feColorMatrix in="blurOut" result="blurOut2" type="matrix" values="0 0 0 0 0 0 0 0 0 0 0 0 0 0 0 0 0 0 .4 0" />
            <feOffset dx="4.0" dy="4.0" in="blurOut2" result="blurOut3" />
            <feBlend in="SourceGraphic" in2="blurOut3" mode="normal" />
        </filter>
    </defs>
    <g><text fill="#000000" font-family="sans-serif" font-size="18" lengthAdjust="spacingAndGlyphs" textLength="75" x="1245" y="18.6855">Use case</text>
        <rect fill="#FFFFFF" filter="url(#fys9oszvy5ye5)" height="217" style="stroke: #000000; stroke-width: 1.5;" width="128" x="1042" y="932.6406" />
        <rect fill="#FFFFFF" filter="url(#fys9oszvy5ye5)" height="217.5" style="stroke: #000000; stroke-width: 1.5;" width="282" x="1670" y="932.1406" />
        <rect fill="#FFFFFF" filter="url(#fys9oszvy5ye5)" height="542" style="stroke: #000000; stroke-width: 1.5;" width="256" x="2127" y="47.1406" />
        <rect fill="#FFFFFF" filter="url(#fys9oszvy5ye5)" height="278" style="stroke: #000000; stroke-width: 1.5;" width="124" x="1599" y="474.1406" />
        <rect fill="#FFFFFF" filter="url(#fys9oszvy5ye5)" height="393.5" style="stroke: #000000; stroke-width: 1.5;" width="335" x="1264" y="943.1406" />
        <rect fill="#FFFFFF" filter="url(#fys9oszvy5ye5)" height="353.5" style="stroke: #000000; stroke-width: 1.5;" width="217" x="22" y="663.1406" />
        <!--MD5=[917b4abc6a241353bf80a0ce7e5ed3ff]
cluster OIS-->
        <polygon fill="#FFFFFF" filter="url(#fys9oszvy5ye5)" points="376,912.1406,406,912.1406,413,935.75,968,935.75,968,1149.1406,376,1149.1406,376,912.1406" style="stroke: #000000; stroke-width: 1.5;" />
        <line style="stroke: #000000; stroke-width: 1.5;" x1="376" x2="413" y1="935.75" y2="935.75" /><text fill="#000000" font-family="sans-serif" font-size="14" font-weight="bold" lengthAdjust="spacingAndGlyphs" textLength="24" x="380" y="928.6738">OIS</text>
        <ellipse cx="1106.0733" cy="974.3916" fill="#FEFECE" filter="url(#fys9oszvy5ye5)" rx="47.5733" ry="25.7509" style="stroke: #A80036; stroke-width: 1.5;" /><text fill="#000000" font-family="sans-serif" font-size="14" lengthAdjust="spacingAndGlyphs" textLength="36" x="1088.0733" y="967.6876">Grant</text><text fill="#000000" font-family="sans-serif" font-size="14" lengthAdjust="spacingAndGlyphs" textLength="69" x="1071.5733" y="985.297">Permission</text>
        <ellipse cx="1093.1666" cy="1107.3739" fill="#FEFECE" filter="url(#fys9oszvy5ye5)" rx="32.6666" ry="26.7333" style="stroke: #A80036; stroke-width: 1.5;" /><text fill="#000000" font-family="sans-serif" font-size="14" lengthAdjust="spacingAndGlyphs" textLength="43" x="1071.6666" y="1105.13">Recive</text><text fill="#000000" font-family="sans-serif" font-size="14" lengthAdjust="spacingAndGlyphs" textLength="36" x="1075.1666" y="1122.7394">Grant</text>
        <ellipse cx="1898.9159" cy="974.6779" fill="#FEFECE" filter="url(#fys9oszvy5ye5)" rx="36.4159" ry="26.5373" style="stroke: #A80036; stroke-width: 1.5;" /><text fill="#000000" font-family="sans-serif" font-size="14" lengthAdjust="spacingAndGlyphs" textLength="50" x="1873.9159" y="973.1695">Meeting</text><text fill="#000000" font-family="sans-serif" font-size="14" lengthAdjust="spacingAndGlyphs" textLength="37" x="1880.4159" y="990.7789">Room</text>
        <ellipse cx="1904.0952" cy="1107.0168" fill="#FEFECE" filter="url(#fys9oszvy5ye5)" rx="31.5952" ry="25.8761" style="stroke: #A80036; stroke-width: 1.5;" /><text fill="#000000" font-family="sans-serif" font-size="14" lengthAdjust="spacingAndGlyphs" textLength="36" x="1886.0952" y="1103.3509">Close</text><text fill="#000000" font-family="sans-serif" font-size="14" lengthAdjust="spacingAndGlyphs" textLength="37" x="1885.5952" y="1120.9603">Room</text>
        <ellipse cx="1757.146" cy="974.4061" fill="#FEFECE" filter="url(#fys9oszvy5ye5)" rx="70.646" ry="25.2655" style="stroke: #A80036; stroke-width: 1.5;" /><text fill="#000000" font-family="sans-serif" font-size="14" lengthAdjust="spacingAndGlyphs" textLength="33" x="1740.646" y="966.9225">Invite</text><text fill="#000000" font-family="sans-serif" font-size="14" lengthAdjust="spacingAndGlyphs" textLength="107" x="1703.646" y="984.5319">to Meeting Room</text>
        <ellipse cx="1756.7647" cy="1107.0524" fill="#FEFECE" filter="url(#fys9oszvy5ye5)" rx="32.2647" ry="26.4118" style="stroke: #A80036; stroke-width: 1.5;" /><text fill="#000000" font-family="sans-serif" font-size="14" lengthAdjust="spacingAndGlyphs" textLength="43" x="1735.2647" y="1105.2787">Recive</text><text fill="#000000" font-family="sans-serif" font-size="14" lengthAdjust="spacingAndGlyphs" textLength="33" x="1740.2647" y="1122.8881">Invite</text>
        <!--MD5=[1dcae5ec17ace9dcc055d87e1424e99f]
entity Supervisor-->
        <ellipse cx="2255" cy="336.6406" fill="#FEFECE" filter="url(#fys9oszvy5ye5)" rx="8" ry="8" style="stroke: #A80036; stroke-width: 1.5;" />
        <path d="M2255,344.6406 L2255,371.6406 M2242,352.6406 L2268,352.6406 M2255,371.6406 L2242,386.6406 M2255,371.6406 L2268,386.6406 " fill="none" filter="url(#fys9oszvy5ye5)" style="stroke: #A80036; stroke-width: 1.5;" /><text fill="#000000" font-family="sans-serif" font-size="14" lengthAdjust="spacingAndGlyphs" textLength="68" x="2221" y="406.6738">Supervisor</text>
        <!--MD5=[dfd4219ae26b16e6e974a23a737c25b1]
entity Coordinator-->
        <ellipse cx="2329" cy="499.6406" fill="#FEFECE" filter="url(#fys9oszvy5ye5)" rx="8" ry="8" style="stroke: #A80036; stroke-width: 1.5;" />
        <path d="M2329,507.6406 L2329,534.6406 M2316,515.6406 L2342,515.6406 M2329,534.6406 L2316,549.6406 M2329,534.6406 L2342,549.6406 " fill="none" filter="url(#fys9oszvy5ye5)" style="stroke: #A80036; stroke-width: 1.5;" /><text fill="#000000" font-family="sans-serif" font-size="14" lengthAdjust="spacingAndGlyphs" textLength="75" x="2291.5" y="569.6738">Coordinator</text>
        <!--MD5=[8438b603195005c18d5011c1879083f4]
entity Dispatcher-->
        <ellipse cx="2177" cy="499.6406" fill="#FEFECE" filter="url(#fys9oszvy5ye5)" rx="8" ry="8" style="stroke: #A80036; stroke-width: 1.5;" />
        <path d="M2177,507.6406 L2177,534.6406 M2164,515.6406 L2190,515.6406 M2177,534.6406 L2164,549.6406 M2177,534.6406 L2190,549.6406 " fill="none" filter="url(#fys9oszvy5ye5)" style="stroke: #A80036; stroke-width: 1.5;" /><text fill="#000000" font-family="sans-serif" font-size="14" lengthAdjust="spacingAndGlyphs" textLength="68" x="2143" y="569.6738">Dispatcher</text>
        <!--MD5=[8c69140241d2a8b22aee4c2edeaeb65f]
entity CallTaker-->
        <ellipse cx="2174" cy="72.6406" fill="#FEFECE" filter="url(#fys9oszvy5ye5)" rx="8" ry="8" style="stroke: #A80036; stroke-width: 1.5;" />
        <path d="M2174,80.6406 L2174,107.6406 M2161,88.6406 L2187,88.6406 M2174,107.6406 L2161,122.6406 M2174,107.6406 L2187,122.6406 " fill="none" filter="url(#fys9oszvy5ye5)" style="stroke: #A80036; stroke-width: 1.5;" /><text fill="#000000" font-family="sans-serif" font-size="14" lengthAdjust="spacingAndGlyphs" textLength="61" x="2143.5" y="142.6738">CallTaker</text>
        <path d="M2180,207.1406 L2180,233.4922 A0,0 0 0 0 2180,233.4922 L2251,233.4922 L2255,326.9806 L2259,233.4922 L2330,233.4922 A0,0 0 0 0 2330,233.4922 L2330,217.1406 L2320,207.1406 L2180,207.1406 A0,0 0 0 0 2180,207.1406 " fill="#FBFB77" filter="url(#fys9oszvy5ye5)" style="stroke: #A80036; stroke-width: 1.0;" />
        <path d="M2320,207.1406 L2320,217.1406 L2330,217.1406 L2320,207.1406 " fill="#FBFB77" style="stroke: #A80036; stroke-width: 1.0;" /><text fill="#000000" font-family="sans-serif" font-size="13" lengthAdjust="spacingAndGlyphs" textLength="129" x="2186" y="225.6357">ถ้าสายเต็มฉันช่วยได้นะ</text>
        <!--MD5=[1263a788717e7841c6c3a70e1586692b]
entity Specialist-->
        <ellipse cx="1663" cy="499.6406" fill="#FEFECE" filter="url(#fys9oszvy5ye5)" rx="8" ry="8" style="stroke: #A80036; stroke-width: 1.5;" />
        <path d="M1663,507.6406 L1663,534.6406 M1650,515.6406 L1676,515.6406 M1663,534.6406 L1650,549.6406 M1663,534.6406 L1676,549.6406 " fill="none" filter="url(#fys9oszvy5ye5)" style="stroke: #A80036; stroke-width: 1.5;" /><text fill="#000000" font-family="sans-serif" font-size="14" lengthAdjust="spacingAndGlyphs" textLength="60" x="1633" y="569.6738">Specialist</text>
        <!--MD5=[5feeba211306dae78a9255b1c0e912c7]
entity ER-->
        <ellipse cx="1640" cy="662.6406" fill="#FEFECE" filter="url(#fys9oszvy5ye5)" rx="8" ry="8" style="stroke: #A80036; stroke-width: 1.5;" />
        <path d="M1640,670.6406 L1640,697.6406 M1627,678.6406 L1653,678.6406 M1640,697.6406 L1627,712.6406 M1640,697.6406 L1653,712.6406 " fill="none" filter="url(#fys9oszvy5ye5)" style="stroke: #A80036; stroke-width: 1.5;" /><text fill="#000000" font-family="sans-serif" font-size="14" lengthAdjust="spacingAndGlyphs" textLength="19" x="1630.5" y="732.6738">ER</text>
        <ellipse cx="1466.7696" cy="974.5923" fill="#FEFECE" filter="url(#fys9oszvy5ye5)" rx="39.7696" ry="15.4517" style="stroke: #A80036; stroke-width: 1.5;" /><text fill="#000000" font-family="sans-serif" font-size="14" lengthAdjust="spacingAndGlyphs" textLength="52" x="1440.7696" y="979.897">Protocol</text>
        <ellipse cx="1352.8259" cy="1107.0923" fill="#FEFECE" filter="url(#fys9oszvy5ye5)" rx="55.3259" ry="15.4517" style="stroke: #A80036; stroke-width: 1.5;" /><text fill="#000000" font-family="sans-serif" font-size="14" lengthAdjust="spacingAndGlyphs" textLength="74" x="1315.8259" y="1112.397">Offline Note</text>
        <ellipse cx="1498.8259" cy="1107.0923" fill="#FEFECE" filter="url(#fys9oszvy5ye5)" rx="55.3259" ry="15.4517" style="stroke: #A80036; stroke-width: 1.5;" /><text fill="#000000" font-family="sans-serif" font-size="14" lengthAdjust="spacingAndGlyphs" textLength="74" x="1461.8259" y="1112.397">Online Note</text>
        <ellipse cx="1348.1311" cy="1212.6668" fill="#FEFECE" filter="url(#fys9oszvy5ye5)" rx="68.1311" ry="16.0262" style="stroke: #A80036; stroke-width: 1.5;" /><text fill="#000000" font-family="sans-serif" font-size="14" lengthAdjust="spacingAndGlyphs" textLength="96" x="1300.1311" y="1217.9715">Operation Note</text>
        <ellipse cx="1517.0964" cy="1212.6599" fill="#FEFECE" filter="url(#fys9oszvy5ye5)" rx="65.5964" ry="15.5193" style="stroke: #A80036; stroke-width: 1.5;" /><text fill="#000000" font-family="sans-serif" font-size="14" lengthAdjust="spacingAndGlyphs" textLength="89" x="1472.5964" y="1217.9646">Medicine Note</text>
        <ellipse cx="1517.169" cy="1305.0923" fill="#FEFECE" filter="url(#fys9oszvy5ye5)" rx="49.669" ry="15.4517" style="stroke: #A80036; stroke-width: 1.5;" /><text fill="#000000" font-family="sans-serif" font-size="14" lengthAdjust="spacingAndGlyphs" textLength="66" x="1484.169" y="1310.397">Check List</text>
        <ellipse cx="128.8909" cy="694.5923" fill="#FEFECE" filter="url(#fys9oszvy5ye5)" rx="41.8909" ry="15.4517" style="stroke: #A80036; stroke-width: 1.5;" /><text fill="#000000" font-family="sans-serif" font-size="14" lengthAdjust="spacingAndGlyphs" textLength="55" x="101.3909" y="699.897">Telemed</text>
        <ellipse cx="68.0946" cy="840.8163" fill="#FEFECE" filter="url(#fys9oszvy5ye5)" rx="30.0946" ry="24.6756" style="stroke: #A80036; stroke-width: 1.5;" /><text fill="#000000" font-family="sans-serif" font-size="14" lengthAdjust="spacingAndGlyphs" textLength="26" x="55.0946" y="835.9079">Live</text><text fill="#000000" font-family="sans-serif" font-size="14" lengthAdjust="spacingAndGlyphs" textLength="36" x="50.0946" y="853.5173">Video</text>
        <ellipse cx="178.2193" cy="840.5923" fill="#FEFECE" filter="url(#fys9oszvy5ye5)" rx="44.7193" ry="15.4517" style="stroke: #A80036; stroke-width: 1.5;" /><text fill="#000000" font-family="sans-serif" font-size="14" lengthAdjust="spacingAndGlyphs" textLength="59" x="148.7193" y="845.897">Vital Sign</text>
        <ellipse cx="159.0471" cy="974.7589" fill="#FEFECE" filter="url(#fys9oszvy5ye5)" rx="64.0471" ry="26.1183" style="stroke: #A80036; stroke-width: 1.5;" /><text fill="#000000" font-family="sans-serif" font-size="14" lengthAdjust="spacingAndGlyphs" textLength="93" x="112.5471" y="973.8895">Switch Partient</text><text fill="#000000" font-family="sans-serif" font-size="14" lengthAdjust="spacingAndGlyphs" textLength="59" x="129.5471" y="991.4988">Vital Sign</text>
        <ellipse cx="586.9402" cy="974.6504" fill="#FEFECE" filter="url(#fys9oszvy5ye5)" rx="62.4402" ry="25.5098" style="stroke: #A80036; stroke-width: 1.5;" /><text fill="#000000" font-family="sans-serif" font-size="14" lengthAdjust="spacingAndGlyphs" textLength="93" x="540.4402" y="974.7384">Update Patiant</text><text fill="#000000" font-family="sans-serif" font-size="14" lengthAdjust="spacingAndGlyphs" textLength="40" x="566.9402" y="992.3477">Status</text>
        <ellipse cx="743.9249" cy="974.8708" fill="#FEFECE" filter="url(#fys9oszvy5ye5)" rx="58.9249" ry="26.7302" style="stroke: #A80036; stroke-width: 1.5;" /><text fill="#000000" font-family="sans-serif" font-size="14" lengthAdjust="spacingAndGlyphs" textLength="83" x="702.4249" y="973.0732">ER/Specialist</text><text fill="#000000" font-family="sans-serif" font-size="14" lengthAdjust="spacingAndGlyphs" textLength="65" x="711.4249" y="990.6826">Infomation</text>
        <ellipse cx="895.2401" cy="974.5923" fill="#FEFECE" filter="url(#fys9oszvy5ye5)" rx="56.7401" ry="15.4517" style="stroke: #A80036; stroke-width: 1.5;" /><text fill="#000000" font-family="sans-serif" font-size="14" lengthAdjust="spacingAndGlyphs" textLength="76" x="857.2401" y="979.897">check in/out</text>
        <ellipse cx="441.2095" cy="974.6382" fill="#FEFECE" filter="url(#fys9oszvy5ye5)" rx="48.7095" ry="25.9976" style="stroke: #A80036; stroke-width: 1.5;" /><text fill="#000000" font-family="sans-serif" font-size="14" lengthAdjust="spacingAndGlyphs" textLength="42" x="420.2095" y="968.3207">Assign</text><text fill="#000000" font-family="sans-serif" font-size="14" lengthAdjust="spacingAndGlyphs" textLength="70" x="406.2095" y="985.9301">Ambulance</text>
        <ellipse cx="441.0217" cy="1107.0437" fill="#FEFECE" filter="url(#fys9oszvy5ye5)" rx="48.5217" ry="25.9031" style="stroke: #A80036; stroke-width: 1.5;" /><text fill="#000000" font-family="sans-serif" font-size="14" lengthAdjust="spacingAndGlyphs" textLength="40" x="421.0217" y="1100.5789">Switch</text><text fill="#000000" font-family="sans-serif" font-size="14" lengthAdjust="spacingAndGlyphs" textLength="70" x="406.0217" y="1118.1883">Ambulance</text>
        <ellipse cx="1218.1021" cy="974.4223" fill="#FEFECE" filter="url(#fys9oszvy5ye5)" rx="29.6021" ry="24.2817" style="stroke: #A80036; stroke-width: 1.5;" /><text fill="#000000" font-family="sans-serif" font-size="14" lengthAdjust="spacingAndGlyphs" textLength="23" x="1206.6021" y="969.3413">MIS</text><text fill="#000000" font-family="sans-serif" font-size="14" lengthAdjust="spacingAndGlyphs" textLength="35" x="1200.6021" y="986.9507">Login</text>
        <ellipse cx="2362.0596" cy="974.4319" fill="#FEFECE" filter="url(#fys9oszvy5ye5)" rx="67.5596" ry="25.2912" style="stroke: #A80036; stroke-width: 1.5;" /><text fill="#000000" font-family="sans-serif" font-size="14" lengthAdjust="spacingAndGlyphs" textLength="33" x="2345.5596" y="966.9903">Invite</text><text fill="#000000" font-family="sans-serif" font-size="14" lengthAdjust="spacingAndGlyphs" textLength="102" x="2311.0596" y="984.5997">Medical Director</text>
        <!--MD5=[6e645fe6a8da04c80cb1105d6cd79d8d]
entity Paramedic-->
        <ellipse cx="698" cy="662.6406" fill="#FEFECE" filter="url(#fys9oszvy5ye5)" rx="8" ry="8" style="stroke: #A80036; stroke-width: 1.5;" />
        <path d="M698,670.6406 L698,697.6406 M685,678.6406 L711,678.6406 M698,697.6406 L685,712.6406 M698,697.6406 L711,712.6406 " fill="none" filter="url(#fys9oszvy5ye5)" style="stroke: #A80036; stroke-width: 1.5;" /><text fill="#000000" font-family="sans-serif" font-size="14" lengthAdjust="spacingAndGlyphs" textLength="67" x="664.5" y="732.6738">Paramedic</text>
        <!--MD5=[e291d5aa2260f5663058080aae2b1552]
entity MD-->
        <ellipse cx="1290" cy="662.6406" fill="#FEFECE" filter="url(#fys9oszvy5ye5)" rx="8" ry="8" style="stroke: #A80036; stroke-width: 1.5;" />
        <path d="M1290,670.6406 L1290,697.6406 M1277,678.6406 L1303,678.6406 M1290,697.6406 L1277,712.6406 M1290,697.6406 L1303,712.6406 " fill="none" filter="url(#fys9oszvy5ye5)" style="stroke: #A80036; stroke-width: 1.5;" /><text fill="#000000" font-family="sans-serif" font-size="14" lengthAdjust="spacingAndGlyphs" textLength="102" x="1239" y="732.6738">Medical Director</text>
        <!--MD5=[6dcdfc8bbecb2f2054cce8805f035df2]
link GrantPermission to ReciveGrant-->
        <path d="M1103.49,1000.8026 C1101.37,1022.1486 1098.31,1052.8396 1096.04,1075.5926 " fill="none" id="GrantPermission-&gt;ReciveGrant" style="stroke: #A80036; stroke-width: 1.0; stroke-dasharray: 7.0,7.0;" />
        <polygon fill="#A80036" points="1095.54,1080.6106,1100.4132,1072.0519,1096.0361,1075.6353,1092.4527,1071.2582,1095.54,1080.6106" style="stroke: #A80036; stroke-width: 1.0;" /><text fill="#000000" font-family="sans-serif" font-size="13" lengthAdjust="spacingAndGlyphs" textLength="55" x="1102" y="1047.1357">&lt;extend&gt;</text>
        <!--MD5=[db48ff97b14e708f2e4a45b62773f7c1]
link MeetingRoom to CloseRoom-->
        <path d="M1899.99,1001.4236 C1900.87,1024.4506 1902.15,1057.9816 1903.03,1080.8556 " fill="none" id="MeetingRoom-CloseRoom" style="stroke: #A80036; stroke-width: 1.0;" />
        <!--MD5=[a9f7e0fd730e41fef76a67da7aff6299]
link InviteToMeetingRoom to ReciveInvite-->
        <path d="M1757,1000.1866 C1757,1021.4656 1757,1052.3606 1757,1075.3036 " fill="none" id="InviteToMeetingRoom-&gt;ReciveInvite" style="stroke: #A80036; stroke-width: 1.0; stroke-dasharray: 7.0,7.0;" />
        <polygon fill="#A80036" points="1757,1080.3656,1761,1071.3656,1757,1075.3656,1753,1071.3656,1757,1080.3656" style="stroke: #A80036; stroke-width: 1.0;" /><text fill="#000000" font-family="sans-serif" font-size="13" lengthAdjust="spacingAndGlyphs" textLength="55" x="1758" y="1047.1357">&lt;extend&gt;</text>
        <!--MD5=[39319b6c2da00a2fafb91dc5fb043224]
link Supervisor to Coordinator-->
        <path d="M2270.68,410.5266 C2276.72,425.6276 2283.88,442.7946 2291,458.1406 C2295.09,466.9506 2299.7,476.2236 2304.27,485.0846 " fill="none" id="Supervisor-&gt;Coordinator" style="stroke: #A80036; stroke-width: 1.0; stroke-dasharray: 7.0,7.0;" />
        <polygon fill="#A80036" points="2306.8,489.9596,2306.2121,480.1283,2304.5002,485.5199,2299.1086,483.808,2306.8,489.9596" style="stroke: #A80036; stroke-width: 1.0;" /><text fill="#000000" font-family="sans-serif" font-size="13" lengthAdjust="spacingAndGlyphs" textLength="55" x="2292" y="454.6357">&lt;extend&gt;</text>
        <!--MD5=[13e720b8bf22dd82b53d29d00be24dcb]
link Supervisor to Dispatcher-->
        <path d="M2233.99,410.1456 C2229,419.9296 2223.75,430.3806 2219,440.1406 C2211.91,454.6906 2204.4,470.6756 2197.72,485.1096 " fill="none" id="Supervisor-&gt;Dispatcher" style="stroke: #A80036; stroke-width: 1.0; stroke-dasharray: 7.0,7.0;" />
        <polygon fill="#A80036" points="2195.49,489.9406,2202.8939,483.4458,2197.5857,485.401,2195.6305,480.0928,2195.49,489.9406" style="stroke: #A80036; stroke-width: 1.0;" /><text fill="#000000" font-family="sans-serif" font-size="13" lengthAdjust="spacingAndGlyphs" textLength="55" x="2220" y="454.6357">&lt;extend&gt;</text>
        <!--MD5=[3cf2959151ffc682140aad190f327c71]
link Specialist to ER-->
        <path d="M1657.2,573.2676 C1653.95,595.9576 1649.91,624.3026 1646.55,647.7866 " fill="none" id="Specialist-&gt;ER" style="stroke: #A80036; stroke-width: 1.0; stroke-dasharray: 7.0,7.0;" />
        <polygon fill="#A80036" points="1645.8,653.0266,1651.0343,644.6838,1646.5081,648.077,1643.1149,643.5509,1645.8,653.0266" style="stroke: #A80036; stroke-width: 1.0;" /><text fill="#000000" font-family="sans-serif" font-size="13" lengthAdjust="spacingAndGlyphs" textLength="55" x="1654" y="619.6357">&lt;extend&gt;</text>
        <!--MD5=[6699f799ed5c7232dc727eb440bc4cc6]
link Protocol to Offline-->
        <path d="M1454.8,989.6066 C1434.08,1013.3236 1392.03,1061.4616 1368.99,1087.8396 " fill="none" id="Protocol-&gt;Offline" style="stroke: #A80036; stroke-width: 1.0; stroke-dasharray: 7.0,7.0;" />
        <polygon fill="#A80036" points="1365.46,1091.8796,1374.3906,1087.727,1368.7469,1088.1118,1368.3621,1082.468,1365.46,1091.8796" style="stroke: #A80036; stroke-width: 1.0;" />
        <!--MD5=[c82ce4d3f9a0489352c7a9acf8805ad6]
link Protocol to Online-->
        <path d="M1470.55,990.1046 C1476.31,1013.6216 1487.73,1060.1726 1494.21,1086.6056 " fill="none" id="Protocol-&gt;Online" style="stroke: #A80036; stroke-width: 1.0; stroke-dasharray: 7.0,7.0;" />
        <polygon fill="#A80036" points="1495.44,1091.6116,1497.1834,1081.9183,1494.2502,1086.7553,1489.4132,1083.822,1495.44,1091.6116" style="stroke: #A80036; stroke-width: 1.0;" />
        <!--MD5=[dfdacabff06845ff468c7a479416b68f]
link Online to Ops-->
        <path d="M1479.26,1121.6716 C1452.13,1140.2636 1403.31,1173.7276 1373.47,1194.1856 " fill="none" id="Online-&gt;Ops" style="stroke: #A80036; stroke-width: 1.0; stroke-dasharray: 7.0,7.0;" />
        <polygon fill="#A80036" points="1369.2,1197.1066,1378.8845,1195.315,1373.3234,1194.2787,1374.3598,1188.7175,1369.2,1197.1066" style="stroke: #A80036; stroke-width: 1.0;" />
        <!--MD5=[fa1f797b2a007678447862d188341364]
link Online to Med-->
        <path d="M1501.58,1122.9696 C1504.72,1141.0306 1510.04,1171.6116 1513.53,1191.7166 " fill="none" id="Online-&gt;Med" style="stroke: #A80036; stroke-width: 1.0; stroke-dasharray: 7.0,7.0;" />
        <polygon fill="#A80036" points="1514.43,1196.8386,1516.8315,1187.287,1513.5747,1191.9123,1508.9494,1188.6555,1514.43,1196.8386" style="stroke: #A80036; stroke-width: 1.0;" />
        <!--MD5=[36e00adda9d547800407b763e370433a]
link Med to Check-->
        <path d="M1517,1228.1806 C1517,1243.4856 1517,1267.6657 1517,1284.6233 " fill="none" id="Med-&gt;Check" style="stroke: #A80036; stroke-width: 1.0; stroke-dasharray: 7.0,7.0;" />
        <polygon fill="#A80036" points="1517,1289.6363,1521,1280.6363,1517,1284.6363,1513,1280.6363,1517,1289.6363" style="stroke: #A80036; stroke-width: 1.0;" />
        <!--MD5=[5a09b9336d7b1badde5bdbdc57b8158a]
link Telemed to LiveVideo-->
        <path d="M122.815,710.2406 C112.123,735.4806 90.1183,787.4266 77.4823,817.2556 " fill="none" id="Telemed-LiveVideo" style="stroke: #A80036; stroke-width: 1.0;" />
        <!--MD5=[09b560ea3da9a45eb59e7572d275dd60]
link Telemed to VitalSign-->
        <path d="M133.968,710.2406 C143.36,737.8406 163.617,797.3726 173.019,825.0016 " fill="none" id="Telemed-VitalSign" style="stroke: #A80036; stroke-width: 1.0;" />
        <!--MD5=[3b1dadcd7a9044100001f6b44cb0e8a9]
link VitalSign to SwitchVS-->
        <path d="M175.894,856.2716 C172.686,878.5566 166.535,921.2906 162.607,948.5846 " fill="none" id="VitalSign-SwitchVS" style="stroke: #A80036; stroke-width: 1.0;" />
        <!--MD5=[99518f066654ff0ca3f3d2798510fa93]
link AssignAmbulance to SwitchAmbulance-->
        <path d="M441,1000.8026 C441,1022.2856 441,1053.2366 441,1076.0316 " fill="none" id="AssignAmbulance-&gt;SwitchAmbulance" style="stroke: #A80036; stroke-width: 1.0; stroke-dasharray: 7.0,7.0;" />
        <polygon fill="#A80036" points="441,1081.0566,445,1072.0566,441,1076.0566,437,1072.0566,441,1081.0566" style="stroke: #A80036; stroke-width: 1.0;" />
        <!--MD5=[15f037edf9b9eb830d5ca8d6cf4e2d6b]
link CallTaker to AssignAmbulance-->
        <path d="M2143.42,105.8106 C1899.29,107.3806 276,121.4506 276,219.1406 C276,219.1406 276,219.1406 276,841.6406 C276,902.8206 346.025,940.3086 394.839,959.0086 " fill="none" id="CallTaker-&gt;AssignAmbulance" style="stroke: #A80036; stroke-width: 1.0;" />
        <polygon fill="#A80036" points="399.789,960.8686,392.7705,953.9592,395.1084,959.1103,389.9572,961.4482,399.789,960.8686" style="stroke: #A80036; stroke-width: 1.0;" />
        <!--MD5=[2411cf5240a05e3f0f5d9eb11dcb20b5]
link CallTaker to Coordinator-->
        <path d="M2204.54,113.4106 C2245.51,125.6506 2316.71,153.7306 2348,207.1406 C2399.14,294.4306 2369.06,418.6996 2346.63,484.9336 " fill="none" id="CallTaker-&gt;Coordinator" style="stroke: #A80036; stroke-width: 1.0;" />
        <polygon fill="#A80036" points="2344.9,489.9906,2351.6049,482.7765,2346.5231,485.2614,2344.0382,480.1795,2344.9,489.9906" style="stroke: #A80036; stroke-width: 1.0;" /><text fill="#000000" font-family="sans-serif" font-size="13" lengthAdjust="spacingAndGlyphs" textLength="34" x="2375" y="277.6357">เหลือง</text><text fill="#000000" font-family="sans-serif" font-size="13" lengthAdjust="spacingAndGlyphs" textLength="26" x="2379" y="293.9873">เขียว</text>
        <!--MD5=[73064949d175277479e0696cadbaf232]
link CallTaker to Dispatcher-->
        <path d="M2168.05,146.5306 C2165.66,165.0006 2163.18,187.1206 2162,207.1406 C2156.17,306.0906 2165.48,422.1706 2171.85,484.8646 " fill="none" id="CallTaker-&gt;Dispatcher" style="stroke: #A80036; stroke-width: 1.0;" />
        <polygon fill="#A80036" points="2172.38,490.0236,2175.438,480.6615,2171.8683,485.0499,2167.48,481.4802,2172.38,490.0236" style="stroke: #A80036; stroke-width: 1.0;" /><text fill="#000000" font-family="sans-serif" font-size="13" lengthAdjust="spacingAndGlyphs" textLength="21" x="2162" y="285.6357">แดง</text>
        <!--MD5=[5272508c55a89d82b7957e283d2e681d]
link Coordinator to MeetingRoom-->
        <path d="M2346.31,573.2926 C2372.36,641.5486 2411.87,780.0556 2345,865.1406 C2319.58,897.4886 2044.93,948.2536 1939.7,966.6716 " fill="none" id="Coordinator-&gt;MeetingRoom" style="stroke: #A80036; stroke-width: 1.0;" />
        <polygon fill="#A80036" points="1934.52,967.5766,1944.0726,969.974,1939.4459,966.7192,1942.7007,962.0925,1934.52,967.5766" style="stroke: #A80036; stroke-width: 1.0;" /><text fill="#000000" font-family="sans-serif" font-size="13" lengthAdjust="spacingAndGlyphs" textLength="61" x="2381" y="782.6357">Case G, Y</text>
        <!--MD5=[c026ff61d247cbc55291a5cf11e85969]
link Coordinator to CloseRoom-->
        <path d="M2366.97,541.9616 C2429.43,559.8216 2547,605.1866 2547,693.6406 C2547,693.6406 2547,693.6406 2547,975.6406 C2547,1100.1916 2077.78,1107.1786 1941,1106.5696 " fill="none" id="Coordinator-&gt;CloseRoom" style="stroke: #A80036; stroke-width: 1.0;" />
        <polygon fill="#A80036" points="1935.89,1106.5426,1944.867,1110.594,1940.8899,1106.5712,1944.9127,1102.5941,1935.89,1106.5426" style="stroke: #A80036; stroke-width: 1.0;" />
        <!--MD5=[85b3fa37b778af4b3b31d3bd47d0066b]
link Coordinator to Protocol-->
        <path d="M2331.46,573.1526 C2332.21,623.9136 2325.36,710.2786 2276,760.1406 C2096.43,941.5526 1968.06,844.9016 1718,896.1406 C1696.81,900.4816 1690.97,898.8426 1670,904.1406 C1608.13,919.7746 1538.16,945.6066 1498.64,960.9866 " fill="none" id="Coordinator-&gt;Protocol" style="stroke: #A80036; stroke-width: 1.0;" />
        <polygon fill="#A80036" points="1493.5,962.9936,1503.3393,963.4276,1498.1541,961.1662,1500.4155,955.9811,1493.5,962.9936" style="stroke: #A80036; stroke-width: 1.0;" />
        <!--MD5=[a2913435a480e3c6dc5b59cd931ee334]
link Coordinator to InviteMD-->
        <path d="M2366.53,555.5966 C2384.06,568.1596 2403.72,585.2256 2416,605.1406 C2455.04,668.4586 2445.5,694.2406 2454,768.1406 C2461.87,836.5196 2415.38,908.0566 2385.6,946.0556 " fill="none" id="Coordinator-&gt;InviteMD" style="stroke: #A80036; stroke-width: 1.0;" />
        <polygon fill="#A80036" points="2382.41,950.0746,2391.1375,945.5105,2385.5178,946.1578,2384.8705,940.5381,2382.41,950.0746" style="stroke: #A80036; stroke-width: 1.0;" />
        <!--MD5=[c77f09a8438623b12595c1375f2cecfd]
link Dispatcher to MeetingRoom-->
        <path d="M2148.94,573.3276 C2118.16,619.1786 2068.68,696.6636 2035,768.1406 C2009.3,822.6906 2024.13,846.4296 1990,896.1406 C1974.17,919.2016 1949.77,939.4656 1930.23,953.4836 " fill="none" id="Dispatcher-&gt;MeetingRoom" style="stroke: #A80036; stroke-width: 1.0;" />
        <polygon fill="#A80036" points="1925.88,956.5556,1935.5383,954.6275,1929.9631,953.6697,1930.9209,948.0946,1925.88,956.5556" style="stroke: #A80036; stroke-width: 1.0;" /><text fill="#000000" font-family="sans-serif" font-size="13" lengthAdjust="spacingAndGlyphs" textLength="43" x="2036" y="782.6357">Case R</text>
        <!--MD5=[60805e60125b7e4d340108d194850b16]
link Dispatcher to CloseRoom-->
        <path d="M2177,573.3346 C2177,605.8846 2177,652.6916 2177,693.6406 C2177,693.6406 2177,693.6406 2177,975.6406 C2177,1079.1406 2015.3,1100.6266 1940.79,1105.0326 " fill="none" id="Dispatcher-&gt;CloseRoom" style="stroke: #A80036; stroke-width: 1.0;" />
        <polygon fill="#A80036" points="1935.58,1105.3216,1944.7839,1108.8272,1940.5726,1105.0502,1944.3496,1100.839,1935.58,1105.3216" style="stroke: #A80036; stroke-width: 1.0;" />
        <!--MD5=[1568eda5cc0f546f11e3f02df203e82d]
link Dispatcher to Protocol-->
        <path d="M2142.84,560.8556 C2063.98,625.9526 1875.42,781.4646 1868,786.1406 C1739.41,867.1546 1570.2,934.8906 1499.86,961.5196 " fill="none" id="Dispatcher-&gt;Protocol" style="stroke: #A80036; stroke-width: 1.0;" />
        <polygon fill="#A80036" points="1494.97,963.3656,1504.8018,963.9449,1499.6506,961.6072,1501.9883,956.456,1494.97,963.3656" style="stroke: #A80036; stroke-width: 1.0;" />
        <!--MD5=[af390b68db2fae8715f2d86c32764def]
link Dispatcher to InviteMD-->
        <path d="M2194.07,573.3386 C2231.01,661.3876 2317.6,867.7926 2349.72,944.3696 " fill="none" id="Dispatcher-&gt;InviteMD" style="stroke: #A80036; stroke-width: 1.0;" />
        <polygon fill="#A80036" points="2351.76,949.2236,2351.9696,939.377,2349.827,944.6124,2344.5916,942.4698,2351.76,949.2236" style="stroke: #A80036; stroke-width: 1.0;" />
        <!--MD5=[57abf21f6cc8357b1216cd29ba3bc8dd]
link ER to MISLogin-->
        <path d="M1625.13,700.8916 C1571.27,720.4886 1383.21,793.9286 1264,904.1406 C1250.83,916.3196 1239.62,933.0036 1231.57,946.9716 " fill="none" id="ER-&gt;MISLogin" style="stroke: #A80036; stroke-width: 1.0;" />
        <polygon fill="#A80036" points="1228.96,951.5946,1236.8651,945.7201,1231.4161,947.2394,1229.8967,941.7904,1228.96,951.5946" style="stroke: #A80036; stroke-width: 1.0;" />
        <!--MD5=[dd75ddc79692eb4881abc289679c5eb0]
link ER to MeetingRoom-->
        <path d="M1654.81,700.4346 C1681.84,709.7856 1739.78,732.6986 1777,768.1406 C1831.25,819.7946 1869.66,900.8006 1887.59,944.0666 " fill="none" id="ER-&gt;MeetingRoom" style="stroke: #A80036; stroke-width: 1.0;" />
        <polygon fill="#A80036" points="1889.57,948.8966,1889.8553,939.0519,1887.6725,944.2707,1882.4537,942.0879,1889.57,948.8966" style="stroke: #A80036; stroke-width: 1.0;" />
        <!--MD5=[28bb78d18d9c4039fd07ad2cedc967eb]
link ER to Protocol-->
        <path d="M1625.25,719.3426 C1591.53,773.5306 1509.36,905.5776 1478.75,954.7656 " fill="none" id="ER-&gt;Protocol" style="stroke: #A80036; stroke-width: 1.0;" />
        <polygon fill="#A80036" points="1475.95,959.2616,1484.0939,953.723,1478.5861,955.013,1477.2962,949.5052,1475.95,959.2616" style="stroke: #A80036; stroke-width: 1.0;" />
        <!--MD5=[f91ed9a4c0a4916a8afbd12ca74343b8]
link Specialist to ReciveGrant-->
        <path d="M1632.84,532.0716 C1525.43,531.9356 1161.51,548.1336 1041,768.1406 C986.232,868.1226 1009.06,915.2056 1041,1024.6406 C1047.02,1045.2586 1060.01,1065.6286 1071.51,1080.8466 " fill="none" id="Specialist-&gt;ReciveGrant" style="stroke: #A80036; stroke-width: 1.0;" />
        <polygon fill="#A80036" points="1074.7,1084.9986,1072.3906,1075.4244,1071.6545,1081.0331,1066.0458,1080.2971,1074.7,1084.9986" style="stroke: #A80036; stroke-width: 1.0;" />
        <!--MD5=[ae6d7be87561fe24c220e42bdbae8f97]
link Specialist to MeetingRoom-->
        <path d="M1693.21,566.6896 C1736.63,617.4306 1816.25,717.5266 1860,816.1406 C1878.65,858.1806 1889.37,910.6586 1894.7,943.1616 " fill="none" id="Specialist-&gt;MeetingRoom" style="stroke: #A80036; stroke-width: 1.0;" />
        <polygon fill="#A80036" points="1895.5,948.2016,1898.0225,938.6813,1894.7073,943.2649,1890.1237,939.9497,1895.5,948.2016" style="stroke: #A80036; stroke-width: 1.0;" />
        <!--MD5=[6393b41e6076f631591caddc251726fd]
link Specialist to ReciveInvite-->
        <path d="M1693.1,536.8856 C1792.81,551.7786 2106,605.5696 2106,693.6406 C2106,693.6406 2106,693.6406 2106,975.6406 C2106,1008.8526 1881.4,1072.7616 1792.56,1096.7426 " fill="none" id="Specialist-&gt;ReciveInvite" style="stroke: #A80036; stroke-width: 1.0;" />
        <polygon fill="#A80036" points="1787.67,1098.0596,1797.4004,1099.5823,1792.4981,1096.7598,1795.3206,1091.8574,1787.67,1098.0596" style="stroke: #A80036; stroke-width: 1.0;" />
        <!--MD5=[fc03e660e42cea0fb5473c7fb14ea1a8]
link Paramedic to MISLogin-->
        <path d="M731.552,709.8686 C836.333,754.3786 1151.6,888.9186 1170,904.1406 C1184.34,915.9996 1196.25,933.1756 1204.62,947.4846 " fill="none" id="Paramedic-&gt;MISLogin" style="stroke: #A80036; stroke-width: 1.0;" />
        <polygon fill="#A80036" points="1207.11,951.8236,1206.0993,942.0268,1204.6211,947.4871,1199.1608,946.0089,1207.11,951.8236" style="stroke: #A80036; stroke-width: 1.0;" />
        <!--MD5=[1ba1e146088e54cd8979da42cdd04062]
link Paramedic to MeetingRoom-->
        <path d="M731.608,701.7086 C920.528,735.8206 1841.89,902.2576 1845,904.1406 C1861.22,913.9756 1874.41,930.6186 1883.69,945.1516 " fill="none" id="Paramedic-&gt;MeetingRoom" style="stroke: #A80036; stroke-width: 1.0;" />
        <polygon fill="#A80036" points="1886.45,949.5846,1885.0939,939.8296,1883.8095,945.3387,1878.3004,944.0543,1886.45,949.5846" style="stroke: #A80036; stroke-width: 1.0;" />
        <!--MD5=[fb010cc91a2b41c6b0304e090f1656e5]
link Paramedic to SwitchVS-->
        <path d="M664.458,698.2356 C606.102,703.8826 483.392,720.8276 392,768.1406 C303.194,814.1146 220.808,901.2856 182.124,945.8656 " fill="none" id="Paramedic-&gt;SwitchVS" style="stroke: #A80036; stroke-width: 1.0;" />
        <polygon fill="#A80036" points="178.742,949.7836,187.6504,945.5835,182.0088,945.9984,181.594,940.3567,178.742,949.7836" style="stroke: #A80036; stroke-width: 1.0;" />
        <!--MD5=[ba32fffafa6430a49a0cfc65700cc5ca]
link Paramedic to SwitchAmbulance-->
        <path d="M664.462,705.3606 C595.266,727.4486 437.899,788.6736 375,904.1406 C349.381,951.1706 357.122,974.1566 375,1024.6406 C382.62,1046.1586 398.606,1066.1476 412.937,1080.9446 " fill="none" id="Paramedic-&gt;SwitchAmbulance" style="stroke: #A80036; stroke-width: 1.0;" />
        <polygon fill="#A80036" points="416.538,1084.5916,413.062,1075.3766,413.0254,1081.0333,407.3687,1080.9967,416.538,1084.5916" style="stroke: #A80036; stroke-width: 1.0;" />
        <!--MD5=[23191dde4dc5d67be91171ea12bcf9dd]
link Paramedic to UpdatePatiantStatus-->
        <path d="M681.741,736.3616 C659.048,793.1956 618.436,894.9086 598.576,944.6476 " fill="none" id="Paramedic-&gt;UpdatePatiantStatus" style="stroke: #A80036; stroke-width: 1.0;" />
        <polygon fill="#A80036" points="596.72,949.2956,603.772,942.4204,598.574,944.6521,596.3423,939.454,596.72,949.2956" style="stroke: #A80036; stroke-width: 1.0;" />
        <!--MD5=[64aa5dcbdac2a3f57315b050104d28bb]
link Paramedic to Protocol-->
        <path d="M731.564,706.6376 C774.723,720.7936 851.984,746.1836 918,768.1406 C981.614,789.2986 997.954,793.3446 1061,816.1406 C1201.95,867.1046 1368.07,933.5856 1435.85,960.9896 " fill="none" id="Paramedic-&gt;Protocol" style="stroke: #A80036; stroke-width: 1.0;" />
        <polygon fill="#A80036" points="1440.56,962.8936,1433.7118,955.8154,1435.9236,961.0219,1430.717,963.2337,1440.56,962.8936" style="stroke: #A80036; stroke-width: 1.0;" />
        <!--MD5=[dd831f050c044493fa32b7c79b2ef305]
link MD to checkIn-->
        <path d="M1238.77,731.6996 C1152.54,792.3876 981.677,912.6376 918.879,956.8346 " fill="none" id="MD-&gt;checkIn" style="stroke: #A80036; stroke-width: 1.0;" />
        <polygon fill="#A80036" points="914.546,959.8836,924.2081,957.9747,918.6348,957.0059,919.6037,951.4326,914.546,959.8836" style="stroke: #A80036; stroke-width: 1.0;" />
        <!--MD5=[3948f154c6598bf838ec7e66f6f94600]
link MD to MISLogin-->
        <path d="M1279.45,736.3616 C1264.65,793.5186 1238.09,896.0656 1225.29,945.4906 " fill="none" id="MD-&gt;MISLogin" style="stroke: #A80036; stroke-width: 1.0;" />
        <polygon fill="#A80036" points="1224.02,950.3906,1230.1466,942.6793,1225.2723,945.55,1222.4016,940.6756,1224.02,950.3906" style="stroke: #A80036; stroke-width: 1.0;" />
        <!--MD5=[780da28ebf1be06832b68d4fa50a0428]
link MD to MeetingRoom-->
        <path d="M1341.03,708.4406 C1402,723.2346 1507.29,747.1976 1599,760.1406 C1622.61,763.4726 1684.27,758.3186 1706,768.1406 C1745.38,785.9416 1816.23,871.8926 1845,904.1406 C1856.97,917.5606 1869.35,933.3306 1879.23,946.4536 " fill="none" id="MD-&gt;MeetingRoom" style="stroke: #A80036; stroke-width: 1.0;" />
        <polygon fill="#A80036" points="1882.48,950.7956,1880.2844,941.1946,1879.4818,946.7943,1873.8822,945.9917,1882.48,950.7956" style="stroke: #A80036; stroke-width: 1.0;" />
        <!--MD5=[7b84873b7ea2f1f359b46b24032402f9]
link MD to ERSpecialistInfomation-->
        <path d="M1238.75,712.3936 C1149.55,742.8296 961.839,812.6126 821,904.1406 C802.643,916.0706 784.357,932.3426 770.213,946.1426 " fill="none" id="MD-&gt;ERSpecialistInfomation" style="stroke: #A80036; stroke-width: 1.0;" />
        <polygon fill="#A80036" points="766.337,949.9646,775.5549,946.496,769.8982,946.4549,769.9393,940.7982,766.337,949.9646" style="stroke: #A80036; stroke-width: 1.0;" />
        <!--MD5=[f55fcecc053e4ee2a46de842c4cfad26]
link MD to Protocol-->
        <path d="M1315.93,736.3616 C1354.82,797.4556 1426.74,910.4066 1455.08,954.9146 " fill="none" id="MD-&gt;Protocol" style="stroke: #A80036; stroke-width: 1.0;" />
        <polygon fill="#A80036" points="1457.84,959.2536,1456.3764,949.5141,1455.1528,955.0371,1449.6299,953.8136,1457.84,959.2536" style="stroke: #A80036; stroke-width: 1.0;" />
        <!--MD5=[858c63aed9326116e7d2d6abccbf98cc]
link MD to InviteToMeetingRoom-->
        <path d="M1341.09,698.7296 C1399.65,704.4866 1496.26,720.9676 1564,768.1406 C1621.07,807.8846 1605.62,846.1796 1654,896.1406 C1673.33,916.1026 1698.14,934.9326 1718.57,949.0326 " fill="none" id="MD-&gt;InviteToMeetingRoom" style="stroke: #A80036; stroke-width: 1.0;" />
        <polygon fill="#A80036" points="1722.85,951.9686,1717.6875,943.5812,1718.7257,949.142,1713.1649,950.1801,1722.85,951.9686" style="stroke: #A80036; stroke-width: 1.0;" />
        <!--MD5=[2d032cbfb510cb54f1ff16f6bcb8d217]
link MD to ReciveInvite-->
        <path d="M1341.13,720.7936 C1406.99,755.1216 1522.1,821.8816 1599,904.1406 C1641.3,949.3856 1630.3,976.2866 1669,1024.6406 C1687.03,1047.1606 1711.31,1069.1716 1729.8,1084.6316 " fill="none" id="MD-&gt;ReciveInvite" style="stroke: #A80036; stroke-width: 1.0;" />
        <polygon fill="#A80036" points="1733.89,1088.0236,1729.5077,1079.2035,1730.0384,1084.8354,1724.4065,1085.3661,1733.89,1088.0236" style="stroke: #A80036; stroke-width: 1.0;" />
        <!--MD5=[05211c8b26ed5c19b2d767f79b3c73b5]
link MD to GrantPermission-->
        <path d="M1262.6,736.4296 C1235.61,776.6846 1193.27,840.0276 1157,895.1406 C1146.07,911.7496 1133.94,930.4126 1124.25,945.3726 " fill="none" id="MD-&gt;GrantPermission" style="stroke: #A80036; stroke-width: 1.0;" />
        <polygon fill="#A80036" points="1121.33,949.8906,1129.5771,944.5068,1124.0459,945.6925,1122.8602,940.1614,1121.33,949.8906" style="stroke: #A80036; stroke-width: 1.0;" />
        <!--MD5=[2b7028a00423ae786d2837c8b44ac17e]
@startuml
Title Use case

  usecase (MIS\nLogin) as MISLogin

  rectangle {
    usecase (Grant\nPermission) as GrantPermission
    usecase (Recive\nGrant) as ReciveGrant
    GrantPermission ..> ReciveGrant:<extend>
  }
  rectangle {
    usecase (Meeting\nRoom) as MeetingRoom
    usecase (Close\nRoom) as CloseRoom
    usecase (Invite\nto Meeting Room) as InviteToMeetingRoom
    usecase (Recive\nInvite) as ReciveInvite
    MeetingRoom - - CloseRoom
    InviteToMeetingRoom ..> ReciveInvite :<extend>
  }

  rectangle {
    :Supervisor: as Supervisor
    :Coordinator: as Coordinator
    :Dispatcher: as Dispatcher
    :CallTaker: as CallTaker
    Supervisor ..> Coordinator :<extend>
    Supervisor ..> Dispatcher :<extend>
    note top of Supervisor : ถ้าสายเต็มฉันช่วยได้นะ
  }

  rectangle {
    :Specialist: as Specialist
    :ER: as ER
    Specialist ..> ER :<extend>
  }

  rectangle {
    usecase (Protocol) as Protocol
    usecase (Offline Note) as Offline
    usecase (Online Note) as Online
    usecase (Operation Note) as Ops
    usecase (Medicine Note) as Med
    usecase (Check List) as Check
    Protocol ..> Offline
    Protocol ..> Online
    Online ..> Ops
    Online ..> Med
    Med ..> Check
  }


  rectangle {
    usecase (Telemed) as Telemed
    usecase (Live\nVideo) as LiveVideo
    usecase (Vital Sign) as VitalSign
    usecase (Switch Partient\nVital Sign) as SwitchVS
    Telemed - - LiveVideo
    Telemed - - VitalSign
    VitalSign - - SwitchVS
  }

  package OIS{
    usecase (Update Patiant\nStatus) as UpdatePatiantStatus
    usecase (ER/Specialist\nInfomation) as ERSpecialistInfomation
    usecase (check in/out) as checkIn
    usecase (Assign\nAmbulance) as AssignAmbulance
    usecase (Switch\nAmbulance) as SwitchAmbulance
    AssignAmbulance ..> SwitchAmbulance
  }

  CallTaker - -> AssignAmbulance
  CallTaker - - - -> Coordinator : เหลือง\nเขียว
  CallTaker - - - -> Dispatcher : แดง

  usecase (Invite\nMedical Director) as InviteMD
  Coordinator - -> MeetingRoom: Case G, Y
  Coordinator - -> CloseRoom
  Coordinator - -> Protocol
  Coordinator - -> InviteMD

  Dispatcher - - - -> MeetingRoom: Case R
  Dispatcher - - - -> CloseRoom
  Dispatcher - - - -> Protocol
  Dispatcher - - - -> InviteMD

  ER - - -> MISLogin
  ER - - -> MeetingRoom
  ER - - -> Protocol

  Specialist - -> ReciveGrant
  Specialist - -> MeetingRoom
  Specialist - -> ReciveInvite

  Paramedic - - -> MISLogin
  Paramedic - - -> MeetingRoom
  Paramedic - - -> SwitchVS
  Paramedic - - -> SwitchAmbulance
  Paramedic - - -> UpdatePatiantStatus
  Paramedic - - -> Protocol

  :Medical Director: as MD
  MD - - -> checkIn
  MD - - -> MISLogin
  MD - - -> MeetingRoom
  MD - - -> ERSpecialistInfomation
  MD - - -> Protocol
  MD - - -> InviteToMeetingRoom
  MD - - -> ReciveInvite
  MD - - -> GrantPermission

@enduml

PlantUML version 1.2020.02(Sun Mar 01 17:22:07 ICT 2020)
(GPL source distribution)
Java Runtime: Java(TM) SE Runtime Environment
JVM: Java HotSpot(TM) 64-Bit Server VM
Java Version: 1.8.0_181-b13
Operating System: Windows 10
Default Encoding: MS874
Language: en
Country: US
-->
    </g>
</svg>