<?xml version="1.0" encoding="UTF-8" standalone="no"?><svg xmlns="http://www.w3.org/2000/svg" xmlns:xlink="http://www.w3.org/1999/xlink" contentScriptType="application/ecmascript" contentStyleType="text/css" height="272px" preserveAspectRatio="none" style="width:351px;height:272px;" version="1.1" viewBox="0 0 351 272" width="351px" zoomAndPan="magnify">
    <defs>
        <filter height="300%" id="f4eotmn0wnsw8" width="300%" x="-1" y="-1">
            <feGaussianBlur result="blurOut" stdDeviation="2.0" />
            <feColorMatrix in="blurOut" result="blurOut2" type="matrix" values="0 0 0 0 0 0 0 0 0 0 0 0 0 0 0 0 0 0 .4 0" />
            <feOffset dx="4.0" dy="4.0" in="blurOut2" result="blurOut3" />
            <feBlend in="SourceGraphic" in2="blurOut3" mode="normal" />
        </filter>
    </defs>
    <g>
        <line style="stroke: #A80036; stroke-width: 1.0; stroke-dasharray: 5.0,5.0;" x1="61" x2="61" y1="103.1875" y2="183.8906" />
        <line style="stroke: #A80036; stroke-width: 1.0; stroke-dasharray: 5.0,5.0;" x1="188" x2="188" y1="103.1875" y2="183.8906" />
        <line style="stroke: #A80036; stroke-width: 1.0; stroke-dasharray: 5.0,5.0;" x1="298" x2="298" y1="103.1875" y2="183.8906" /><text fill="#000000" font-family="sans-serif" font-size="14" lengthAdjust="spacingAndGlyphs" textLength="100" x="8" y="100.1113">Medical director</text>
        <ellipse cx="61" cy="28.5781" fill="#FEFECE" filter="url(#f4eotmn0wnsw8)" rx="8" ry="8" style="stroke: #A80036; stroke-width: 2.0;" />
        <path d="M61,36.5781 L61,63.5781 M48,44.5781 L74,44.5781 M61,63.5781 L48,78.5781 M61,63.5781 L74,78.5781 " fill="none" filter="url(#f4eotmn0wnsw8)" style="stroke: #A80036; stroke-width: 2.0;" /><text fill="#000000" font-family="sans-serif" font-size="14" lengthAdjust="spacingAndGlyphs" textLength="100" x="8" y="197.4238">Medical director</text>
        <ellipse cx="61" cy="210.5" fill="#FEFECE" filter="url(#f4eotmn0wnsw8)" rx="8" ry="8" style="stroke: #A80036; stroke-width: 2.0;" />
        <path d="M61,218.5 L61,245.5 M48,226.5 L74,226.5 M61,245.5 L48,260.5 M61,245.5 L74,260.5 " fill="none" filter="url(#f4eotmn0wnsw8)" style="stroke: #A80036; stroke-width: 2.0;" />
        <rect fill="#FEFECE" filter="url(#f4eotmn0wnsw8)" height="31.6094" style="stroke: #A80036; stroke-width: 1.5;" width="121" x="128" y="62.5781" />
        <rect fill="#FEFECE" filter="url(#f4eotmn0wnsw8)" height="31.6094" style="stroke: #A80036; stroke-width: 1.5;" width="121" x="124" y="66.5781" /><text fill="#000000" font-family="sans-serif" font-size="14" lengthAdjust="spacingAndGlyphs" textLength="107" x="131" y="88.1113">outbound Queue</text>
        <rect fill="#FEFECE" filter="url(#f4eotmn0wnsw8)" height="31.6094" style="stroke: #A80036; stroke-width: 1.5;" width="121" x="128" y="182.8906" />
        <rect fill="#FEFECE" filter="url(#f4eotmn0wnsw8)" height="31.6094" style="stroke: #A80036; stroke-width: 1.5;" width="121" x="124" y="186.8906" /><text fill="#000000" font-family="sans-serif" font-size="14" lengthAdjust="spacingAndGlyphs" textLength="107" x="131" y="208.4238">outbound Queue</text><text fill="#000000" font-family="sans-serif" font-size="14" lengthAdjust="spacingAndGlyphs" textLength="65" x="263" y="100.1113">ศูนย์สั่งการ</text>
        <ellipse cx="298.5" cy="28.5781" fill="#FEFECE" filter="url(#f4eotmn0wnsw8)" rx="8" ry="8" style="stroke: #A80036; stroke-width: 2.0;" />
        <path d="M298.5,36.5781 L298.5,63.5781 M285.5,44.5781 L311.5,44.5781 M298.5,63.5781 L285.5,78.5781 M298.5,63.5781 L311.5,78.5781 " fill="none" filter="url(#f4eotmn0wnsw8)" style="stroke: #A80036; stroke-width: 2.0;" /><text fill="#000000" font-family="sans-serif" font-size="14" lengthAdjust="spacingAndGlyphs" textLength="65" x="263" y="197.4238">ศูนย์สั่งการ</text>
        <ellipse cx="298.5" cy="210.5" fill="#FEFECE" filter="url(#f4eotmn0wnsw8)" rx="8" ry="8" style="stroke: #A80036; stroke-width: 2.0;" />
        <path d="M298.5,218.5 L298.5,245.5 M285.5,226.5 L311.5,226.5 M298.5,245.5 L285.5,260.5 M298.5,245.5 L311.5,260.5 " fill="none" filter="url(#f4eotmn0wnsw8)" style="stroke: #A80036; stroke-width: 2.0;" />
        <polygon fill="#A80036" points="176.5,131.5391,186.5,135.5391,176.5,139.5391,180.5,135.5391" style="stroke: #A80036; stroke-width: 1.0;" />
        <line style="stroke: #A80036; stroke-width: 1.0; stroke-dasharray: 2.0,2.0;" x1="61" x2="182.5" y1="135.5391" y2="135.5391" /><text fill="#000000" font-family="sans-serif" font-size="13" lengthAdjust="spacingAndGlyphs" textLength="85" x="68" y="130.6826">send message</text>
        <polygon fill="#A80036" points="286.5,161.8906,296.5,165.8906,286.5,169.8906,290.5,165.8906" style="stroke: #A80036; stroke-width: 1.0;" />
        <line style="stroke: #A80036; stroke-width: 1.0; stroke-dasharray: 2.0,2.0;" x1="188.5" x2="292.5" y1="165.8906" y2="165.8906" /><text fill="#000000" font-family="sans-serif" font-size="13" lengthAdjust="spacingAndGlyphs" textLength="85" x="195.5" y="161.0342">send message</text><text fill="#888888" font-family="sans-serif" font-size="10" lengthAdjust="spacingAndGlyphs" textLength="123" x="216" y="13.3809">medical_call_center_001</text>
        <!--MD5=[bf03c32e62b7de5499177f6403e0a2eb]
@startuml
Header medical_call_center_001
  actor "Medical director" as Medical
  collections "outbound Queue" as outbound
  outbound <- - Medical : send message
  actor "ศูนย์สั่งการ" as OIS
  OIS <- - outbound : send message
@enduml

PlantUML version 1.2020.02(Sun Mar 01 17:22:07 ICT 2020)
(GPL source distribution)
Java Runtime: Java(TM) SE Runtime Environment
JVM: Java HotSpot(TM) 64-Bit Server VM
Java Version: 1.8.0_181-b13
Operating System: Windows 10
Default Encoding: MS874
Language: en
Country: US
-->
    </g>
</svg>