<?xml version="1.0" encoding="UTF-8" standalone="no"?><svg xmlns="http://www.w3.org/2000/svg" xmlns:xlink="http://www.w3.org/1999/xlink" contentScriptType="application/ecmascript" contentStyleType="text/css" height="272px" preserveAspectRatio="none" style="width:415px;height:272px;" version="1.1" viewBox="0 0 415 272" width="415px" zoomAndPan="magnify"><defs><filter height="300%" id="f1r00iq0nxu0x" width="300%" x="-1" y="-1"><feGaussianBlur result="blurOut" stdDeviation="2.0"/><feColorMatrix in="blurOut" result="blurOut2" type="matrix" values="0 0 0 0 0 0 0 0 0 0 0 0 0 0 0 0 0 0 .4 0"/><feOffset dx="4.0" dy="4.0" in="blurOut2" result="blurOut3"/><feBlend in="SourceGraphic" in2="blurOut3" mode="normal"/></filter></defs><g><line style="stroke: #A80036; stroke-width: 1.0; stroke-dasharray: 5.0,5.0;" x1="61" x2="61" y1="103.1875" y2="183.8906"/><line style="stroke: #A80036; stroke-width: 1.0; stroke-dasharray: 5.0,5.0;" x1="220" x2="220" y1="103.1875" y2="183.8906"/><line style="stroke: #A80036; stroke-width: 1.0; stroke-dasharray: 5.0,5.0;" x1="362" x2="362" y1="103.1875" y2="183.8906"/><text fill="#000000" font-family="sans-serif" font-size="14" lengthAdjust="spacingAndGlyphs" textLength="100" x="8" y="100.1113">Medical director</text><ellipse cx="61" cy="28.5781" fill="#FEFECE" filter="url(#f1r00iq0nxu0x)" rx="8" ry="8" style="stroke: #A80036; stroke-width: 2.0;"/><path d="M61,36.5781 L61,63.5781 M48,44.5781 L74,44.5781 M61,63.5781 L48,78.5781 M61,63.5781 L74,78.5781 " fill="none" filter="url(#f1r00iq0nxu0x)" style="stroke: #A80036; stroke-width: 2.0;"/><text fill="#000000" font-family="sans-serif" font-size="14" lengthAdjust="spacingAndGlyphs" textLength="100" x="8" y="197.4238">Medical director</text><ellipse cx="61" cy="210.5" fill="#FEFECE" filter="url(#f1r00iq0nxu0x)" rx="8" ry="8" style="stroke: #A80036; stroke-width: 2.0;"/><path d="M61,218.5 L61,245.5 M48,226.5 L74,226.5 M61,245.5 L48,260.5 M61,245.5 L74,260.5 " fill="none" filter="url(#f1r00iq0nxu0x)" style="stroke: #A80036; stroke-width: 2.0;"/><rect fill="#FEFECE" filter="url(#f1r00iq0nxu0x)" height="31.6094" style="stroke: #A80036; stroke-width: 1.5;" width="185" x="128" y="62.5781"/><rect fill="#FEFECE" filter="url(#f1r00iq0nxu0x)" height="31.6094" style="stroke: #A80036; stroke-width: 1.5;" width="185" x="124" y="66.5781"/><text fill="#000000" font-family="sans-serif" font-size="14" lengthAdjust="spacingAndGlyphs" textLength="171" x="131" y="88.1113">Outbound Message Queue</text><rect fill="#FEFECE" filter="url(#f1r00iq0nxu0x)" height="31.6094" style="stroke: #A80036; stroke-width: 1.5;" width="185" x="128" y="182.8906"/><rect fill="#FEFECE" filter="url(#f1r00iq0nxu0x)" height="31.6094" style="stroke: #A80036; stroke-width: 1.5;" width="185" x="124" y="186.8906"/><text fill="#000000" font-family="sans-serif" font-size="14" lengthAdjust="spacingAndGlyphs" textLength="171" x="131" y="208.4238">Outbound Message Queue</text><text fill="#000000" font-family="sans-serif" font-size="14" lengthAdjust="spacingAndGlyphs" textLength="65" x="327" y="100.1113">ศูนย์สั่งการ</text><ellipse cx="362.5" cy="28.5781" fill="#FEFECE" filter="url(#f1r00iq0nxu0x)" rx="8" ry="8" style="stroke: #A80036; stroke-width: 2.0;"/><path d="M362.5,36.5781 L362.5,63.5781 M349.5,44.5781 L375.5,44.5781 M362.5,63.5781 L349.5,78.5781 M362.5,63.5781 L375.5,78.5781 " fill="none" filter="url(#f1r00iq0nxu0x)" style="stroke: #A80036; stroke-width: 2.0;"/><text fill="#000000" font-family="sans-serif" font-size="14" lengthAdjust="spacingAndGlyphs" textLength="65" x="327" y="197.4238">ศูนย์สั่งการ</text><ellipse cx="362.5" cy="210.5" fill="#FEFECE" filter="url(#f1r00iq0nxu0x)" rx="8" ry="8" style="stroke: #A80036; stroke-width: 2.0;"/><path d="M362.5,218.5 L362.5,245.5 M349.5,226.5 L375.5,226.5 M362.5,245.5 L349.5,260.5 M362.5,245.5 L375.5,260.5 " fill="none" filter="url(#f1r00iq0nxu0x)" style="stroke: #A80036; stroke-width: 2.0;"/><polygon fill="#A80036" points="208.5,131.5391,218.5,135.5391,208.5,139.5391,212.5,135.5391" style="stroke: #A80036; stroke-width: 1.0;"/><line style="stroke: #A80036; stroke-width: 1.0; stroke-dasharray: 2.0,2.0;" x1="61" x2="214.5" y1="135.5391" y2="135.5391"/><text fill="#000000" font-family="sans-serif" font-size="13" lengthAdjust="spacingAndGlyphs" textLength="85" x="68" y="130.6826">send message</text><polygon fill="#A80036" points="350.5,161.8906,360.5,165.8906,350.5,169.8906,354.5,165.8906" style="stroke: #A80036; stroke-width: 1.0;"/><line style="stroke: #A80036; stroke-width: 1.0; stroke-dasharray: 2.0,2.0;" x1="220.5" x2="356.5" y1="165.8906" y2="165.8906"/><text fill="#000000" font-family="sans-serif" font-size="13" lengthAdjust="spacingAndGlyphs" textLength="85" x="227.5" y="161.0342">send message</text><text fill="#888888" font-family="sans-serif" font-size="10" lengthAdjust="spacingAndGlyphs" textLength="123" x="280" y="13.3809">medical_call_center_001</text><!--MD5=[33a0522860aec9c1bc4cd22e3e2583ef]
@startuml
Header medical_call_center_001
  actor "Medical director" as Medical
  collections "Outbound Message Queue" as outbound
  outbound <- - Medical : send message
  actor "ศูนย์สั่งการ" as OIS
  OIS <- - outbound : send message
@enduml

PlantUML version 1.2020.17(Sat Sep 19 19:30:11 ICT 2020)
(MIT source distribution)
Java Runtime: Java(TM) SE Runtime Environment
JVM: Java HotSpot(TM) 64-Bit Server VM
Default Encoding: MS874
Language: en
Country: US
--></g></svg>