<?xml version="1.0" encoding="UTF-8" standalone="no"?><svg xmlns="http://www.w3.org/2000/svg" xmlns:xlink="http://www.w3.org/1999/xlink" contentScriptType="application/ecmascript" contentStyleType="text/css" height="272px" preserveAspectRatio="none" style="width:394px;height:272px;" version="1.1" viewBox="0 0 394 272" width="394px" zoomAndPan="magnify"><defs><filter height="300%" id="feowrcifg73pn" width="300%" x="-1" y="-1"><feGaussianBlur result="blurOut" stdDeviation="2.0"/><feColorMatrix in="blurOut" result="blurOut2" type="matrix" values="0 0 0 0 0 0 0 0 0 0 0 0 0 0 0 0 0 0 .4 0"/><feOffset dx="4.0" dy="4.0" in="blurOut2" result="blurOut3"/><feBlend in="SourceGraphic" in2="blurOut3" mode="normal"/></filter></defs><g><line style="stroke: #A80036; stroke-width: 1.0; stroke-dasharray: 5.0,5.0;" x1="57" x2="57" y1="103.1875" y2="183.8906"/><line style="stroke: #A80036; stroke-width: 1.0; stroke-dasharray: 5.0,5.0;" x1="202" x2="202" y1="103.1875" y2="183.8906"/><line style="stroke: #A80036; stroke-width: 1.0; stroke-dasharray: 5.0,5.0;" x1="347" x2="347" y1="103.1875" y2="183.8906"/><text fill="#000000" font-family="sans-serif" font-size="14" lengthAdjust="spacingAndGlyphs" textLength="92" x="8" y="100.1113">Other Platform</text><ellipse cx="57" cy="28.5781" fill="#FEFECE" filter="url(#feowrcifg73pn)" rx="8" ry="8" style="stroke: #A80036; stroke-width: 2.0;"/><path d="M57,36.5781 L57,63.5781 M44,44.5781 L70,44.5781 M57,63.5781 L44,78.5781 M57,63.5781 L70,78.5781 " fill="none" filter="url(#feowrcifg73pn)" style="stroke: #A80036; stroke-width: 2.0;"/><text fill="#000000" font-family="sans-serif" font-size="14" lengthAdjust="spacingAndGlyphs" textLength="92" x="8" y="197.4238">Other Platform</text><ellipse cx="57" cy="210.5" fill="#FEFECE" filter="url(#feowrcifg73pn)" rx="8" ry="8" style="stroke: #A80036; stroke-width: 2.0;"/><path d="M57,218.5 L57,245.5 M44,226.5 L70,226.5 M57,245.5 L44,260.5 M57,245.5 L70,260.5 " fill="none" filter="url(#feowrcifg73pn)" style="stroke: #A80036; stroke-width: 2.0;"/><rect fill="#FEFECE" filter="url(#feowrcifg73pn)" height="31.6094" style="stroke: #A80036; stroke-width: 1.5;" width="112" x="146" y="62.5781"/><rect fill="#FEFECE" filter="url(#feowrcifg73pn)" height="31.6094" style="stroke: #A80036; stroke-width: 1.5;" width="112" x="142" y="66.5781"/><text fill="#000000" font-family="sans-serif" font-size="14" lengthAdjust="spacingAndGlyphs" textLength="98" x="149" y="88.1113">Inbound Queue</text><rect fill="#FEFECE" filter="url(#feowrcifg73pn)" height="31.6094" style="stroke: #A80036; stroke-width: 1.5;" width="112" x="146" y="182.8906"/><rect fill="#FEFECE" filter="url(#feowrcifg73pn)" height="31.6094" style="stroke: #A80036; stroke-width: 1.5;" width="112" x="142" y="186.8906"/><text fill="#000000" font-family="sans-serif" font-size="14" lengthAdjust="spacingAndGlyphs" textLength="98" x="149" y="208.4238">Inbound Queue</text><text fill="#000000" font-family="sans-serif" font-size="14" lengthAdjust="spacingAndGlyphs" textLength="54" x="317" y="100.1113">Mis User</text><ellipse cx="347" cy="28.5781" fill="#FEFECE" filter="url(#feowrcifg73pn)" rx="8" ry="8" style="stroke: #A80036; stroke-width: 2.0;"/><path d="M347,36.5781 L347,63.5781 M334,44.5781 L360,44.5781 M347,63.5781 L334,78.5781 M347,63.5781 L360,78.5781 " fill="none" filter="url(#feowrcifg73pn)" style="stroke: #A80036; stroke-width: 2.0;"/><text fill="#000000" font-family="sans-serif" font-size="14" lengthAdjust="spacingAndGlyphs" textLength="54" x="317" y="197.4238">Mis User</text><ellipse cx="347" cy="210.5" fill="#FEFECE" filter="url(#feowrcifg73pn)" rx="8" ry="8" style="stroke: #A80036; stroke-width: 2.0;"/><path d="M347,218.5 L347,245.5 M334,226.5 L360,226.5 M347,245.5 L334,260.5 M347,245.5 L360,260.5 " fill="none" filter="url(#feowrcifg73pn)" style="stroke: #A80036; stroke-width: 2.0;"/><polygon fill="#A80036" points="190,131.5391,200,135.5391,190,139.5391,194,135.5391" style="stroke: #A80036; stroke-width: 1.0;"/><line style="stroke: #A80036; stroke-width: 1.0; stroke-dasharray: 2.0,2.0;" x1="57" x2="196" y1="135.5391" y2="135.5391"/><text fill="#000000" font-family="sans-serif" font-size="13" lengthAdjust="spacingAndGlyphs" textLength="121" x="64" y="130.6826">Notification message</text><polygon fill="#A80036" points="335,161.8906,345,165.8906,335,169.8906,339,165.8906" style="stroke: #A80036; stroke-width: 1.0;"/><line style="stroke: #A80036; stroke-width: 1.0; stroke-dasharray: 2.0,2.0;" x1="202" x2="341" y1="165.8906" y2="165.8906"/><text fill="#000000" font-family="sans-serif" font-size="13" lengthAdjust="spacingAndGlyphs" textLength="121" x="209" y="161.0342">Notification message</text><text fill="#888888" font-family="sans-serif" font-size="10" lengthAdjust="spacingAndGlyphs" textLength="115" x="267" y="13.3809">notification_system_001</text><!--MD5=[8596e29e0fd6c6cec6bf8b527d912782]
@startuml
Header notification_system_001
  actor "Other Platform" as Other
  collections "Inbound Queue" as inbound
  Other - -> inbound : Notification message
  actor "Mis User" as MIS
  inbound - -> MIS : Notification message
@enduml

PlantUML version 1.2020.17(Sat Sep 19 19:30:11 ICT 2020)
(MIT source distribution)
Java Runtime: Java(TM) SE Runtime Environment
JVM: Java HotSpot(TM) 64-Bit Server VM
Default Encoding: Cp1252
Language: en
Country: US
--></g></svg>