<?xml version="1.0" encoding="UTF-8" standalone="no"?><svg xmlns="http://www.w3.org/2000/svg" xmlns:xlink="http://www.w3.org/1999/xlink" contentScriptType="application/ecmascript" contentStyleType="text/css" height="272px" preserveAspectRatio="none" style="width:387px;height:272px;" version="1.1" viewBox="0 0 387 272" width="387px" zoomAndPan="magnify"><defs><filter height="300%" id="f51yaidfjdr77" width="300%" x="-1" y="-1"><feGaussianBlur result="blurOut" stdDeviation="2.0"/><feColorMatrix in="blurOut" result="blurOut2" type="matrix" values="0 0 0 0 0 0 0 0 0 0 0 0 0 0 0 0 0 0 .4 0"/><feOffset dx="4.0" dy="4.0" in="blurOut2" result="blurOut3"/><feBlend in="SourceGraphic" in2="blurOut3" mode="normal"/></filter></defs><g><line style="stroke: #A80036; stroke-width: 1.0; stroke-dasharray: 5.0,5.0;" x1="50" x2="50" y1="103.1875" y2="183.8906"/><line style="stroke: #A80036; stroke-width: 1.0; stroke-dasharray: 5.0,5.0;" x1="195" x2="195" y1="103.1875" y2="183.8906"/><line style="stroke: #A80036; stroke-width: 1.0; stroke-dasharray: 5.0,5.0;" x1="340.5" x2="340.5" y1="103.1875" y2="183.8906"/><text fill="#000000" font-family="sans-serif" font-size="14" lengthAdjust="spacingAndGlyphs" textLength="79" x="8" y="100.1113">OIS Platform</text><ellipse cx="50.5" cy="28.5781" fill="#FEFECE" filter="url(#f51yaidfjdr77)" rx="8" ry="8" style="stroke: #A80036; stroke-width: 2.0;"/><path d="M50.5,36.5781 L50.5,63.5781 M37.5,44.5781 L63.5,44.5781 M50.5,63.5781 L37.5,78.5781 M50.5,63.5781 L63.5,78.5781 " fill="none" filter="url(#f51yaidfjdr77)" style="stroke: #A80036; stroke-width: 2.0;"/><text fill="#000000" font-family="sans-serif" font-size="14" lengthAdjust="spacingAndGlyphs" textLength="79" x="8" y="197.4238">OIS Platform</text><ellipse cx="50.5" cy="210.5" fill="#FEFECE" filter="url(#f51yaidfjdr77)" rx="8" ry="8" style="stroke: #A80036; stroke-width: 2.0;"/><path d="M50.5,218.5 L50.5,245.5 M37.5,226.5 L63.5,226.5 M50.5,245.5 L37.5,260.5 M50.5,245.5 L63.5,260.5 " fill="none" filter="url(#f51yaidfjdr77)" style="stroke: #A80036; stroke-width: 2.0;"/><rect fill="#FEFECE" filter="url(#f51yaidfjdr77)" height="31.6094" style="stroke: #A80036; stroke-width: 1.5;" width="173" x="109" y="62.5781"/><rect fill="#FEFECE" filter="url(#f51yaidfjdr77)" height="31.6094" style="stroke: #A80036; stroke-width: 1.5;" width="173" x="105" y="66.5781"/><text fill="#000000" font-family="sans-serif" font-size="14" lengthAdjust="spacingAndGlyphs" textLength="159" x="112" y="88.1113">Inbound Message Queue</text><rect fill="#FEFECE" filter="url(#f51yaidfjdr77)" height="31.6094" style="stroke: #A80036; stroke-width: 1.5;" width="173" x="109" y="182.8906"/><rect fill="#FEFECE" filter="url(#f51yaidfjdr77)" height="31.6094" style="stroke: #A80036; stroke-width: 1.5;" width="173" x="105" y="186.8906"/><text fill="#000000" font-family="sans-serif" font-size="14" lengthAdjust="spacingAndGlyphs" textLength="159" x="112" y="208.4238">Inbound Message Queue</text><text fill="#000000" font-family="sans-serif" font-size="14" lengthAdjust="spacingAndGlyphs" textLength="54" x="310.5" y="100.1113">Mis User</text><ellipse cx="340.5" cy="28.5781" fill="#FEFECE" filter="url(#f51yaidfjdr77)" rx="8" ry="8" style="stroke: #A80036; stroke-width: 2.0;"/><path d="M340.5,36.5781 L340.5,63.5781 M327.5,44.5781 L353.5,44.5781 M340.5,63.5781 L327.5,78.5781 M340.5,63.5781 L353.5,78.5781 " fill="none" filter="url(#f51yaidfjdr77)" style="stroke: #A80036; stroke-width: 2.0;"/><text fill="#000000" font-family="sans-serif" font-size="14" lengthAdjust="spacingAndGlyphs" textLength="54" x="310.5" y="197.4238">Mis User</text><ellipse cx="340.5" cy="210.5" fill="#FEFECE" filter="url(#f51yaidfjdr77)" rx="8" ry="8" style="stroke: #A80036; stroke-width: 2.0;"/><path d="M340.5,218.5 L340.5,245.5 M327.5,226.5 L353.5,226.5 M340.5,245.5 L327.5,260.5 M340.5,245.5 L353.5,260.5 " fill="none" filter="url(#f51yaidfjdr77)" style="stroke: #A80036; stroke-width: 2.0;"/><polygon fill="#A80036" points="183.5,131.5391,193.5,135.5391,183.5,139.5391,187.5,135.5391" style="stroke: #A80036; stroke-width: 1.0;"/><line style="stroke: #A80036; stroke-width: 1.0; stroke-dasharray: 2.0,2.0;" x1="50.5" x2="189.5" y1="135.5391" y2="135.5391"/><text fill="#000000" font-family="sans-serif" font-size="13" lengthAdjust="spacingAndGlyphs" textLength="121" x="57.5" y="130.6826">Notification message</text><polygon fill="#A80036" points="328.5,161.8906,338.5,165.8906,328.5,169.8906,332.5,165.8906" style="stroke: #A80036; stroke-width: 1.0;"/><line style="stroke: #A80036; stroke-width: 1.0; stroke-dasharray: 2.0,2.0;" x1="195.5" x2="334.5" y1="165.8906" y2="165.8906"/><text fill="#000000" font-family="sans-serif" font-size="13" lengthAdjust="spacingAndGlyphs" textLength="121" x="202.5" y="161.0342">Notification message</text><text fill="#888888" font-family="sans-serif" font-size="10" lengthAdjust="spacingAndGlyphs" textLength="115" x="260.5" y="13.3809">notification_system_001</text><!--MD5=[948ddd05f6572e4364b0407c2596c3db]
@startuml
Header notification_system_001
  actor "OIS Platform" as OIS
  collections "Inbound Message Queue" as inbound
  OIS - -> inbound : Notification message
  actor "Mis User" as MIS
  inbound - -> MIS : Notification message
@enduml

PlantUML version 1.2020.17(Sat Sep 19 19:30:11 ICT 2020)
(MIT source distribution)
Java Runtime: Java(TM) SE Runtime Environment
JVM: Java HotSpot(TM) 64-Bit Server VM
Default Encoding: MS874
Language: en
Country: US
--></g></svg>