<?xml version="1.0" encoding="UTF-8" standalone="no"?><svg xmlns="http://www.w3.org/2000/svg" xmlns:xlink="http://www.w3.org/1999/xlink" contentScriptType="application/ecmascript" contentStyleType="text/css" height="272px" preserveAspectRatio="none" style="width:391px;height:272px;" version="1.1" viewBox="0 0 391 272" width="391px" zoomAndPan="magnify"><defs><filter height="300%" id="fdvb7u4vew8yh" width="300%" x="-1" y="-1"><feGaussianBlur result="blurOut" stdDeviation="2.0"/><feColorMatrix in="blurOut" result="blurOut2" type="matrix" values="0 0 0 0 0 0 0 0 0 0 0 0 0 0 0 0 0 0 .4 0"/><feOffset dx="4.0" dy="4.0" in="blurOut2" result="blurOut3"/><feBlend in="SourceGraphic" in2="blurOut3" mode="normal"/></filter></defs><g><line style="stroke: #A80036; stroke-width: 1.0; stroke-dasharray: 5.0,5.0;" x1="38" x2="38" y1="103.1875" y2="183.8906"/><line style="stroke: #A80036; stroke-width: 1.0; stroke-dasharray: 5.0,5.0;" x1="182.5" x2="182.5" y1="103.1875" y2="183.8906"/><line style="stroke: #A80036; stroke-width: 1.0; stroke-dasharray: 5.0,5.0;" x1="331.5" x2="331.5" y1="103.1875" y2="183.8906"/><text fill="#000000" font-family="sans-serif" font-size="14" lengthAdjust="spacingAndGlyphs" textLength="54" x="8" y="100.1113">Mis User</text><ellipse cx="38" cy="28.5781" fill="#FEFECE" filter="url(#fdvb7u4vew8yh)" rx="8" ry="8" style="stroke: #A80036; stroke-width: 2.0;"/><path d="M38,36.5781 L38,63.5781 M25,44.5781 L51,44.5781 M38,63.5781 L25,78.5781 M38,63.5781 L51,78.5781 " fill="none" filter="url(#fdvb7u4vew8yh)" style="stroke: #A80036; stroke-width: 2.0;"/><text fill="#000000" font-family="sans-serif" font-size="14" lengthAdjust="spacingAndGlyphs" textLength="54" x="8" y="197.4238">Mis User</text><ellipse cx="38" cy="210.5" fill="#FEFECE" filter="url(#fdvb7u4vew8yh)" rx="8" ry="8" style="stroke: #A80036; stroke-width: 2.0;"/><path d="M38,218.5 L38,245.5 M25,226.5 L51,226.5 M38,245.5 L25,260.5 M38,245.5 L51,260.5 " fill="none" filter="url(#fdvb7u4vew8yh)" style="stroke: #A80036; stroke-width: 2.0;"/><rect fill="#FEFECE" filter="url(#fdvb7u4vew8yh)" height="31.6094" style="stroke: #A80036; stroke-width: 1.5;" width="185" x="90.5" y="62.5781"/><rect fill="#FEFECE" filter="url(#fdvb7u4vew8yh)" height="31.6094" style="stroke: #A80036; stroke-width: 1.5;" width="185" x="86.5" y="66.5781"/><text fill="#000000" font-family="sans-serif" font-size="14" lengthAdjust="spacingAndGlyphs" textLength="171" x="93.5" y="88.1113">Outbound Message Queue</text><rect fill="#FEFECE" filter="url(#fdvb7u4vew8yh)" height="31.6094" style="stroke: #A80036; stroke-width: 1.5;" width="185" x="90.5" y="182.8906"/><rect fill="#FEFECE" filter="url(#fdvb7u4vew8yh)" height="31.6094" style="stroke: #A80036; stroke-width: 1.5;" width="185" x="86.5" y="186.8906"/><text fill="#000000" font-family="sans-serif" font-size="14" lengthAdjust="spacingAndGlyphs" textLength="171" x="93.5" y="208.4238">Outbound Message Queue</text><text fill="#000000" font-family="sans-serif" font-size="14" lengthAdjust="spacingAndGlyphs" textLength="79" x="289.5" y="100.1113">OIS Platform</text><ellipse cx="332" cy="28.5781" fill="#FEFECE" filter="url(#fdvb7u4vew8yh)" rx="8" ry="8" style="stroke: #A80036; stroke-width: 2.0;"/><path d="M332,36.5781 L332,63.5781 M319,44.5781 L345,44.5781 M332,63.5781 L319,78.5781 M332,63.5781 L345,78.5781 " fill="none" filter="url(#fdvb7u4vew8yh)" style="stroke: #A80036; stroke-width: 2.0;"/><text fill="#000000" font-family="sans-serif" font-size="14" lengthAdjust="spacingAndGlyphs" textLength="79" x="289.5" y="197.4238">OIS Platform</text><ellipse cx="332" cy="210.5" fill="#FEFECE" filter="url(#fdvb7u4vew8yh)" rx="8" ry="8" style="stroke: #A80036; stroke-width: 2.0;"/><path d="M332,218.5 L332,245.5 M319,226.5 L345,226.5 M332,245.5 L319,260.5 M332,245.5 L345,260.5 " fill="none" filter="url(#fdvb7u4vew8yh)" style="stroke: #A80036; stroke-width: 2.0;"/><polygon fill="#A80036" points="171,131.5391,181,135.5391,171,139.5391,175,135.5391" style="stroke: #A80036; stroke-width: 1.0;"/><line style="stroke: #A80036; stroke-width: 1.0; stroke-dasharray: 2.0,2.0;" x1="38" x2="177" y1="135.5391" y2="135.5391"/><text fill="#000000" font-family="sans-serif" font-size="13" lengthAdjust="spacingAndGlyphs" textLength="121" x="45" y="130.6826">Notification message</text><polygon fill="#A80036" points="320,161.8906,330,165.8906,320,169.8906,324,165.8906" style="stroke: #A80036; stroke-width: 1.0;"/><line style="stroke: #A80036; stroke-width: 1.0; stroke-dasharray: 2.0,2.0;" x1="183" x2="326" y1="165.8906" y2="165.8906"/><text fill="#000000" font-family="sans-serif" font-size="13" lengthAdjust="spacingAndGlyphs" textLength="121" x="190" y="161.0342">Notification message</text><text fill="#888888" font-family="sans-serif" font-size="10" lengthAdjust="spacingAndGlyphs" textLength="115" x="264.5" y="13.3809">notification_system_003</text><!--MD5=[1232a4979a5de328127484778d569e85]
@startuml
Header notification_system_003
  actor "Mis User" as MIS
  collections "Outbound Message Queue" as outbound
  MIS - -> outbound : Notification message
  actor "OIS Platform" as OIS
  outbound - -> OIS : Notification message
@enduml

PlantUML version 1.2020.17(Sat Sep 19 19:30:11 ICT 2020)
(MIT source distribution)
Java Runtime: Java(TM) SE Runtime Environment
JVM: Java HotSpot(TM) 64-Bit Server VM
Default Encoding: MS874
Language: en
Country: US
--></g></svg>