<?xml version="1.0" encoding="UTF-8" standalone="no"?><svg xmlns="http://www.w3.org/2000/svg" xmlns:xlink="http://www.w3.org/1999/xlink" contentScriptType="application/ecmascript" contentStyleType="text/css" height="97px" preserveAspectRatio="none" style="width:347px;height:97px;" version="1.1" viewBox="0 0 347 97" width="347px" zoomAndPan="magnify"><defs><filter height="300%" id="f1kv55xfaykyjv" width="300%" x="-1" y="-1"><feGaussianBlur result="blurOut" stdDeviation="2.0"/><feColorMatrix in="blurOut" result="blurOut2" type="matrix" values="0 0 0 0 0 0 0 0 0 0 0 0 0 0 0 0 0 0 .4 0"/><feOffset dx="4.0" dy="4.0" in="blurOut2" result="blurOut3"/><feBlend in="SourceGraphic" in2="blurOut3" mode="normal"/></filter></defs><g><!--MD5=[411c9672cbc43f9185df31beb613b987]
entity OIS--><ellipse cx="295.5" cy="14" fill="#FEFECE" filter="url(#f1kv55xfaykyjv)" rx="8" ry="8" style="stroke: #A80036; stroke-width: 1.5;"/><path d="M295.5,22 L295.5,49 M282.5,30 L308.5,30 M295.5,49 L282.5,64 M295.5,49 L308.5,64 " fill="none" filter="url(#f1kv55xfaykyjv)" style="stroke: #A80036; stroke-width: 1.5;"/><text fill="#000000" font-family="sans-serif" font-size="14" lengthAdjust="spacingAndGlyphs" textLength="79" x="256" y="84.0332">OIS Platform</text><!--MD5=[277af81c43435f3e1e7d98246e8611f4]
entity MIS--><ellipse cx="45.5" cy="14" fill="#FEFECE" filter="url(#f1kv55xfaykyjv)" rx="8" ry="8" style="stroke: #A80036; stroke-width: 1.5;"/><path d="M45.5,22 L45.5,49 M32.5,30 L58.5,30 M45.5,49 L32.5,64 M45.5,49 L58.5,64 " fill="none" filter="url(#f1kv55xfaykyjv)" style="stroke: #A80036; stroke-width: 1.5;"/><text fill="#000000" font-family="sans-serif" font-size="14" lengthAdjust="spacingAndGlyphs" textLength="79" x="6" y="84.0332">MIS Platform</text><!--MD5=[cf7f388c21052be49188fc12aae09f1b]
link MIS to OIS--><path d="M85.1132,46 C130.147,46 203.503,46 250.616,46 " fill="none" id="MIS-to-OIS" style="stroke: #A80036; stroke-width: 1.0;"/><polygon fill="#A80036" points="255.659,46,246.659,42,250.659,46,246.659,50,255.659,46" style="stroke: #A80036; stroke-width: 1.0;"/><text fill="#000000" font-family="sans-serif" font-size="13" lengthAdjust="spacingAndGlyphs" textLength="134" x="103.5" y="39.4951">ต้องการรายชื่อหน่วยงาน</text><!--MD5=[d4915d75e4a7d99f3a620c0a07b08831]
@startuml
  :OIS Platform : as OIS
  :MIS Platform : as MIS
  MIS -right-> OIS : ต้องการรายชื่อหน่วยงาน
@enduml

PlantUML version 1.2020.17(Sat Sep 19 19:30:11 ICT 2020)
(MIT source distribution)
Java Runtime: Java(TM) SE Runtime Environment
JVM: Java HotSpot(TM) 64-Bit Server VM
Default Encoding: MS874
Language: en
Country: US
--></g></svg>