<?xml version="1.0" encoding="UTF-8" standalone="no"?><svg xmlns="http://www.w3.org/2000/svg" xmlns:xlink="http://www.w3.org/1999/xlink" contentScriptType="application/ecmascript" contentStyleType="text/css" height="97px" preserveAspectRatio="none" style="width:315px;height:97px;" version="1.1" viewBox="0 0 315 97" width="315px" zoomAndPan="magnify"><defs><filter height="300%" id="f1j4wyi2wevjz8" width="300%" x="-1" y="-1"><feGaussianBlur result="blurOut" stdDeviation="2.0"/><feColorMatrix in="blurOut" result="blurOut2" type="matrix" values="0 0 0 0 0 0 0 0 0 0 0 0 0 0 0 0 0 0 .4 0"/><feOffset dx="4.0" dy="4.0" in="blurOut2" result="blurOut3"/><feBlend in="SourceGraphic" in2="blurOut3" mode="normal"/></filter></defs><g><!--MD5=[411c9672cbc43f9185df31beb613b987]
entity OIS--><ellipse cx="263.5" cy="14" fill="#FEFECE" filter="url(#f1j4wyi2wevjz8)" rx="8" ry="8" style="stroke: #A80036; stroke-width: 1.5;"/><path d="M263.5,22 L263.5,49 M250.5,30 L276.5,30 M263.5,49 L250.5,64 M263.5,49 L276.5,64 " fill="none" filter="url(#f1j4wyi2wevjz8)" style="stroke: #A80036; stroke-width: 1.5;"/><text fill="#000000" font-family="sans-serif" font-size="14" lengthAdjust="spacingAndGlyphs" textLength="79" x="224" y="84.0332">OIS Platform</text><!--MD5=[277af81c43435f3e1e7d98246e8611f4]
entity MIS--><ellipse cx="45.5" cy="14" fill="#FEFECE" filter="url(#f1j4wyi2wevjz8)" rx="8" ry="8" style="stroke: #A80036; stroke-width: 1.5;"/><path d="M45.5,22 L45.5,49 M32.5,30 L58.5,30 M45.5,49 L32.5,64 M45.5,49 L58.5,64 " fill="none" filter="url(#f1j4wyi2wevjz8)" style="stroke: #A80036; stroke-width: 1.5;"/><text fill="#000000" font-family="sans-serif" font-size="14" lengthAdjust="spacingAndGlyphs" textLength="79" x="6" y="84.0332">MIS Platform</text><!--MD5=[cf7f388c21052be49188fc12aae09f1b]
link MIS to OIS--><path d="M85.2311,46 C122.842,46 179.24,46 218.494,46 " fill="none" id="MIS-to-OIS" style="stroke: #A80036; stroke-width: 1.0;"/><polygon fill="#A80036" points="223.674,46,214.674,42,218.674,46,214.674,50,223.674,46" style="stroke: #A80036; stroke-width: 1.0;"/><text fill="#000000" font-family="sans-serif" font-size="13" lengthAdjust="spacingAndGlyphs" textLength="102" x="103.5" y="39.4951">ขอข้อมูลหน่วยงาน</text><!--MD5=[c1b9ce9e985504db64e0c2b9a7a95f71]
@startuml
  :OIS Platform : as OIS
  :MIS Platform : as MIS
  MIS -right-> OIS : ขอข้อมูลหน่วยงาน
@enduml

PlantUML version 1.2020.17(Sat Sep 19 19:30:11 ICT 2020)
(MIT source distribution)
Java Runtime: Java(TM) SE Runtime Environment
JVM: Java HotSpot(TM) 64-Bit Server VM
Default Encoding: MS874
Language: en
Country: US
--></g></svg>