<?xml version="1.0" encoding="UTF-8" standalone="no"?><svg xmlns="http://www.w3.org/2000/svg" xmlns:xlink="http://www.w3.org/1999/xlink" contentScriptType="application/ecmascript" contentStyleType="text/css" height="369px" preserveAspectRatio="none" style="width:737px;height:369px;" version="1.1" viewBox="0 0 737 369" width="737px" zoomAndPan="magnify">
    <defs>
        <filter height="300%" id="fo27lmica7syi" width="300%" x="-1" y="-1">
            <feGaussianBlur result="blurOut" stdDeviation="2.0" />
            <feColorMatrix in="blurOut" result="blurOut2" type="matrix" values="0 0 0 0 0 0 0 0 0 0 0 0 0 0 0 0 0 0 .4 0" />
            <feOffset dx="4.0" dy="4.0" in="blurOut2" result="blurOut3" />
            <feBlend in="SourceGraphic" in2="blurOut3" mode="normal" />
        </filter>
    </defs>
    <g><text fill="#000000" font-family="sans-serif" font-size="18" lengthAdjust="spacingAndGlyphs" text-decoration="underline" textLength="130" x="307" y="18.6855">Medical Director</text>
        <!--MD5=[e291d5aa2260f5663058080aae2b1552]
entity MD-->
        <ellipse cx="417.5" cy="40.1406" fill="#FEFECE" filter="url(#fo27lmica7syi)" rx="8" ry="8" style="stroke: #A80036; stroke-width: 1.5;" />
        <path d="M417.5,48.1406 L417.5,75.1406 M404.5,56.1406 L430.5,56.1406 M417.5,75.1406 L404.5,90.1406 M417.5,75.1406 L430.5,90.1406 " fill="none" filter="url(#fo27lmica7syi)" style="stroke: #A80036; stroke-width: 1.5;" /><text fill="#000000" font-family="sans-serif" font-size="14" lengthAdjust="spacingAndGlyphs" textLength="102" x="366.5" y="110.1738">Medical Director</text>
        <ellipse cx="555.2696" cy="201.0923" fill="#FEFECE" filter="url(#fo27lmica7syi)" rx="39.7696" ry="15.4517" style="stroke: #A80036; stroke-width: 1.5;" /><text fill="#000000" font-family="sans-serif" font-size="14" lengthAdjust="spacingAndGlyphs" textLength="52" x="529.2696" y="206.397">Protocol</text>
        <ellipse cx="529.5477" cy="332.0923" fill="#FEFECE" filter="url(#fo27lmica7syi)" rx="47.5477" ry="15.4517" style="stroke: #A80036; stroke-width: 1.5;" /><text fill="#000000" font-family="sans-serif" font-size="14" lengthAdjust="spacingAndGlyphs" textLength="63" x="498.0477" y="337.397">Operation</text>
        <ellipse cx="654.598" cy="332.0923" fill="#FEFECE" filter="url(#fo27lmica7syi)" rx="42.598" ry="15.4517" style="stroke: #A80036; stroke-width: 1.5;" /><text fill="#000000" font-family="sans-serif" font-size="14" lengthAdjust="spacingAndGlyphs" textLength="56" x="626.598" y="337.397">Medicine</text>
        <ellipse cx="578.4417" cy="71.894" fill="#FEFECE" filter="url(#fo27lmica7syi)" rx="31.4417" ry="25.7534" style="stroke: #A80036; stroke-width: 1.5;" /><text fill="#000000" font-family="sans-serif" font-size="14" lengthAdjust="spacingAndGlyphs" textLength="37" x="559.9417" y="68.7211">check</text><text fill="#000000" font-family="sans-serif" font-size="14" lengthAdjust="spacingAndGlyphs" textLength="35" x="560.9417" y="86.3305">in/out</text>
        <ellipse cx="301.6021" cy="71.9223" fill="#FEFECE" filter="url(#fo27lmica7syi)" rx="29.6021" ry="24.2817" style="stroke: #A80036; stroke-width: 1.5;" /><text fill="#000000" font-family="sans-serif" font-size="14" lengthAdjust="spacingAndGlyphs" textLength="23" x="290.1021" y="66.8413">MIS</text><text fill="#000000" font-family="sans-serif" font-size="14" lengthAdjust="spacingAndGlyphs" textLength="35" x="284.1021" y="84.4507">Login</text>
        <ellipse cx="241.4249" cy="201.3708" fill="#FEFECE" filter="url(#fo27lmica7syi)" rx="58.9249" ry="26.7302" style="stroke: #A80036; stroke-width: 1.5;" /><text fill="#000000" font-family="sans-serif" font-size="14" lengthAdjust="spacingAndGlyphs" textLength="83" x="199.9249" y="199.5732">ER/Specialist</text><text fill="#000000" font-family="sans-serif" font-size="14" lengthAdjust="spacingAndGlyphs" textLength="65" x="208.9249" y="217.1826">Infomation</text>
        <ellipse cx="372.4159" cy="201.1779" fill="#FEFECE" filter="url(#fo27lmica7syi)" rx="36.4159" ry="26.5373" style="stroke: #A80036; stroke-width: 1.5;" /><text fill="#000000" font-family="sans-serif" font-size="14" lengthAdjust="spacingAndGlyphs" textLength="50" x="347.4159" y="199.6695">Meeting</text><text fill="#000000" font-family="sans-serif" font-size="14" lengthAdjust="spacingAndGlyphs" textLength="37" x="353.9159" y="217.2789">Room</text>
        <ellipse cx="76.646" cy="200.9061" fill="#FEFECE" filter="url(#fo27lmica7syi)" rx="70.646" ry="25.2655" style="stroke: #A80036; stroke-width: 1.5;" /><text fill="#000000" font-family="sans-serif" font-size="14" lengthAdjust="spacingAndGlyphs" textLength="33" x="60.146" y="193.4225">Invite</text><text fill="#000000" font-family="sans-serif" font-size="14" lengthAdjust="spacingAndGlyphs" textLength="107" x="23.146" y="211.0319">to Meeting Room</text>
        <ellipse cx="322.2647" cy="332.0524" fill="#FEFECE" filter="url(#fo27lmica7syi)" rx="32.2647" ry="26.4118" style="stroke: #A80036; stroke-width: 1.5;" /><text fill="#000000" font-family="sans-serif" font-size="14" lengthAdjust="spacingAndGlyphs" textLength="43" x="300.7647" y="330.2787">Recive</text><text fill="#000000" font-family="sans-serif" font-size="14" lengthAdjust="spacingAndGlyphs" textLength="33" x="305.7647" y="347.8881">Invite</text>
        <ellipse cx="678.5733" cy="200.8916" fill="#FEFECE" filter="url(#fo27lmica7syi)" rx="47.5733" ry="25.7509" style="stroke: #A80036; stroke-width: 1.5;" /><text fill="#000000" font-family="sans-serif" font-size="14" lengthAdjust="spacingAndGlyphs" textLength="36" x="660.5733" y="194.1876">Grant</text><text fill="#000000" font-family="sans-serif" font-size="14" lengthAdjust="spacingAndGlyphs" textLength="69" x="644.0733" y="211.797">Permission</text>
        <path d="M12,59.1406 L12,85.4922 A0,0 0 0 0 12,85.4922 L72.5,85.4922 L76.5,175.1866 L80.5,85.4922 L141,85.4922 A0,0 0 0 0 141,85.4922 L141,69.1406 L131,59.1406 L12,59.1406 A0,0 0 0 0 12,59.1406 " fill="#FBFB77" filter="url(#fo27lmica7syi)" style="stroke: #A80036; stroke-width: 1.0;" />
        <path d="M131,59.1406 L131,69.1406 L141,69.1406 L131,59.1406 " fill="#FBFB77" style="stroke: #A80036; stroke-width: 1.0;" /><text fill="#000000" font-family="sans-serif" font-size="13" lengthAdjust="spacingAndGlyphs" textLength="108" x="18" y="77.6357">เรียกหมอท่านอื่นได้</text>
        <!--MD5=[ee56ebc6e29b0d20aa9220c2d9d56048]
link Protocol to Ops-->
        <path d="M552.517,216.9386 C547.816,240.2666 538.678,285.605 533.441,311.5888 " fill="none" id="Protocol-&gt;Ops" style="stroke: #A80036; stroke-width: 1.0; stroke-dasharray: 7.0,7.0;" />
        <polygon fill="#A80036" points="532.448,316.5152,538.1475,308.4831,533.436,311.6138,530.3053,306.9023,532.448,316.5152" style="stroke: #A80036; stroke-width: 1.0;" />
        <!--MD5=[ec52306c40759acdcc016fdf461aa808]
link Protocol to Med-->
        <path d="M566.473,216.4386 C584.536,239.9756 620.513,286.8548 640.425,312.8008 " fill="none" id="Protocol-&gt;Med" style="stroke: #A80036; stroke-width: 1.0; stroke-dasharray: 7.0,7.0;" />
        <polygon fill="#A80036" points="643.478,316.7784,641.1725,307.2032,640.4342,312.8117,634.8257,312.0734,643.478,316.7784" style="stroke: #A80036; stroke-width: 1.0;" />
        <!--MD5=[a9f7e0fd730e41fef76a67da7aff6299]
link InviteToMeetingRoom to ReciveInvite-->
        <path d="M115.479,222.5806 C164.073,248.0636 246.182,291.1201 290.999,314.6219 " fill="none" id="InviteToMeetingRoom-&gt;ReciveInvite" style="stroke: #A80036; stroke-width: 1.0; stroke-dasharray: 7.0,7.0;" />
        <polygon fill="#A80036" points="295.482,316.9726,289.3702,309.2495,291.0543,314.6499,285.6539,316.3339,295.482,316.9726" style="stroke: #A80036; stroke-width: 1.0;" /><text fill="#000000" font-family="sans-serif" font-size="13" lengthAdjust="spacingAndGlyphs" textLength="55" x="215.5" y="272.1357">&lt;extend&gt;</text>
        <!--MD5=[dd831f050c044493fa32b7c79b2ef305]
link MD to checkIn-->
        <path d="M468.884,72.1406 C492.569,72.1406 520.14,72.1406 541.705,72.1406 " fill="none" id="MD-&gt;checkIn" style="stroke: #A80036; stroke-width: 1.0;" />
        <polygon fill="#A80036" points="546.771,72.1406,537.771,68.1406,541.771,72.1406,537.771,76.1406,546.771,72.1406" style="stroke: #A80036; stroke-width: 1.0;" /><text fill="#000000" font-family="sans-serif" font-size="13" lengthAdjust="spacingAndGlyphs" textLength="37" x="489.25" y="49.6357">เข้าเวร</text><text fill="#000000" font-family="sans-serif" font-size="13" lengthAdjust="spacingAndGlyphs" textLength="42" x="486.75" y="65.9873">ออกเวร</text>
        <!--MD5=[568a38b1517a68da30ff5908ed06ab84]
reverse link MISLogin to MD-->
        <path d="M336.598,72.1406 C346.526,72.1406 356.454,72.1406 366.382,72.1406 " fill="none" id="MISLogin&lt;-MD" style="stroke: #A80036; stroke-width: 1.0;" />
        <polygon fill="#A80036" points="331.406,72.1406,340.406,76.1406,336.406,72.1406,340.406,68.1406,331.406,72.1406" style="stroke: #A80036; stroke-width: 1.0;" />
        <!--MD5=[780da28ebf1be06832b68d4fa50a0428]
link MD to MeetingRoom-->
        <path d="M403.138,113.6736 C396.658,131.9626 389.137,153.1886 383.168,170.0336 " fill="none" id="MD-&gt;MeetingRoom" style="stroke: #A80036; stroke-width: 1.0;" />
        <polygon fill="#A80036" points="381.368,175.1126,388.1443,167.9655,383.038,170.3998,380.6037,165.2935,381.368,175.1126" style="stroke: #A80036; stroke-width: 1.0;" />
        <!--MD5=[7b84873b7ea2f1f359b46b24032402f9]
link MD to ERSpecialistInfomation-->
        <path d="M366.12,110.2156 C337.154,131.1176 301.746,156.6676 276.085,175.1846 " fill="none" id="MD-&gt;ERSpecialistInfomation" style="stroke: #A80036; stroke-width: 1.0;" />
        <polygon fill="#A80036" points="271.732,178.3256,281.3709,176.3026,275.7865,175.3997,276.6894,169.8154,271.732,178.3256" style="stroke: #A80036; stroke-width: 1.0;" />
        <!--MD5=[f55fcecc053e4ee2a46de842c4cfad26]
link MD to Protocol-->
        <path d="M461.543,113.6736 C486.917,137.0246 517.494,165.1646 536.721,182.8586 " fill="none" id="MD-&gt;Protocol" style="stroke: #A80036; stroke-width: 1.0;" />
        <polygon fill="#A80036" points="540.882,186.6876,536.967,177.6503,537.2024,183.3023,531.5504,183.5377,540.882,186.6876" style="stroke: #A80036; stroke-width: 1.0;" />
        <!--MD5=[858c63aed9326116e7d2d6abccbf98cc]
link MD to InviteToMeetingRoom-->
        <path d="M366.164,104.9356 C360.302,108.0646 354.336,111.0386 348.5,113.6406 C310.047,130.7816 202.805,163.2776 135.034,183.1926 " fill="none" id="MD-&gt;InviteToMeetingRoom" style="stroke: #A80036; stroke-width: 1.0;" />
        <polygon fill="#A80036" points="130.224,184.6046,139.986,185.9097,135.0219,183.1973,137.7342,178.2331,130.224,184.6046" style="stroke: #A80036; stroke-width: 1.0;" />
        <!--MD5=[2d032cbfb510cb54f1ff16f6bcb8d217]
link MD to ReciveInvite-->
        <path d="M429.323,113.8096 C436.476,145.9496 441.607,191.2926 426.5,227.6406 C411.528,263.6628 377.252,293.6251 352.126,311.8871 " fill="none" id="MD-&gt;ReciveInvite" style="stroke: #A80036; stroke-width: 1.0;" />
        <polygon fill="#A80036" points="347.862,314.938,357.5087,312.953,351.928,312.0281,352.8529,306.4474,347.862,314.938" style="stroke: #A80036; stroke-width: 1.0;" />
        <!--MD5=[05211c8b26ed5c19b2d767f79b3c73b5]
link MD to GrantPermission-->
        <path d="M468.754,98.0806 C518.702,122.3846 593.576,158.8176 639.049,180.9446 " fill="none" id="MD-&gt;GrantPermission" style="stroke: #A80036; stroke-width: 1.0;" />
        <polygon fill="#A80036" points="643.628,183.1726,637.2839,175.6392,639.1316,180.9858,633.785,182.8335,643.628,183.1726" style="stroke: #A80036; stroke-width: 1.0;" />
        <!--MD5=[63bf1dc01aed58a56c795e5174b5a81f]
@startuml
Title __Medical Director__
  :Medical Director: as MD

  usecase (Protocol) as Protocol
  usecase (Operation) as Ops
  usecase (Medicine) as Med
  Protocol ..> Ops
  Protocol ..> Med

  usecase (check\nin/out) as checkIn
  usecase (MIS\nLogin) as MISLogin
  usecase (ER/Specialist\nInfomation) as ERSpecialistInfomation

  usecase (Meeting\nRoom) as MeetingRoom
  usecase (Invite\nto Meeting Room) as InviteToMeetingRoom
  usecase (Recive\nInvite) as ReciveInvite
  InviteToMeetingRoom ..> ReciveInvite :<extend>

  usecase (Grant\nPermission) as GrantPermission

  MD -right-> checkIn : เข้าเวร\nออกเวร
  MD -left-> MISLogin
  MD - -> MeetingRoom
  MD - -> ERSpecialistInfomation
  MD - -> Protocol
  MD - -> InviteToMeetingRoom
  note top of InviteToMeetingRoom : เรียกหมอท่านอื่นได้

  MD - -> ReciveInvite
  MD - -> GrantPermission

@enduml

PlantUML version 1.2020.02(Sun Mar 01 17:22:07 ICT 2020)
(GPL source distribution)
Java Runtime: Java(TM) SE Runtime Environment
JVM: Java HotSpot(TM) 64-Bit Server VM
Java Version: 1.8.0_261-b12
Operating System: Windows 10
Default Encoding: Cp1252
Language: en
Country: US
-->
    </g>
</svg>