<?xml version="1.0" encoding="UTF-8" standalone="no"?><svg xmlns="http://www.w3.org/2000/svg" xmlns:xlink="http://www.w3.org/1999/xlink" contentScriptType="application/ecmascript" contentStyleType="text/css" height="489px" preserveAspectRatio="none" style="width:776px;height:489px;" version="1.1" viewBox="0 0 776 489" width="776px" zoomAndPan="magnify">
    <defs>
        <filter height="300%" id="f144ojl072ksno" width="300%" x="-1" y="-1">
            <feGaussianBlur result="blurOut" stdDeviation="2.0" />
            <feColorMatrix in="blurOut" result="blurOut2" type="matrix" values="0 0 0 0 0 0 0 0 0 0 0 0 0 0 0 0 0 0 .4 0" />
            <feOffset dx="4.0" dy="4.0" in="blurOut2" result="blurOut3" />
            <feBlend in="SourceGraphic" in2="blurOut3" mode="normal" />
        </filter>
    </defs>
    <g><text fill="#000000" font-family="sans-serif" font-size="18" lengthAdjust="spacingAndGlyphs" text-decoration="underline" textLength="130" x="327" y="18.6855">Medical Director</text>
        <!--MD5=[e291d5aa2260f5663058080aae2b1552]
entity MD-->
        <ellipse cx="394.5" cy="40.1406" fill="#FEFECE" filter="url(#f144ojl072ksno)" rx="8" ry="8" style="stroke: #A80036; stroke-width: 1.5;" />
        <path d="M394.5,48.1406 L394.5,75.1406 M381.5,56.1406 L407.5,56.1406 M394.5,75.1406 L381.5,90.1406 M394.5,75.1406 L407.5,90.1406 " fill="none" filter="url(#f144ojl072ksno)" style="stroke: #A80036; stroke-width: 1.5;" /><text fill="#000000" font-family="sans-serif" font-size="14" lengthAdjust="spacingAndGlyphs" textLength="102" x="343.5" y="110.1738">Medical Director</text>
        <ellipse cx="330.2696" cy="234.0923" fill="#FEFECE" filter="url(#f144ojl072ksno)" rx="39.7696" ry="15.4517" style="stroke: #A80036; stroke-width: 1.5;" /><text fill="#000000" font-family="sans-serif" font-size="14" lengthAdjust="spacingAndGlyphs" textLength="52" x="304.2696" y="239.397">Protocol</text>
        <ellipse cx="305.3259" cy="370.0923" fill="#FEFECE" filter="url(#f144ojl072ksno)" rx="55.3259" ry="15.4517" style="stroke: #A80036; stroke-width: 1.5;" /><text fill="#000000" font-family="sans-serif" font-size="14" lengthAdjust="spacingAndGlyphs" textLength="74" x="268.3259" y="375.397">Offline Note</text>
        <ellipse cx="451.3259" cy="370.0923" fill="#FEFECE" filter="url(#f144ojl072ksno)" rx="55.3259" ry="15.4517" style="stroke: #A80036; stroke-width: 1.5;" /><text fill="#000000" font-family="sans-serif" font-size="14" lengthAdjust="spacingAndGlyphs" textLength="74" x="414.3259" y="375.397">Online Note</text>
        <ellipse cx="367.6311" cy="462.6668" fill="#FEFECE" filter="url(#f144ojl072ksno)" rx="68.1311" ry="16.0262" style="stroke: #A80036; stroke-width: 1.5;" /><text fill="#000000" font-family="sans-serif" font-size="14" lengthAdjust="spacingAndGlyphs" textLength="96" x="319.6311" y="467.9715">Operation Note</text>
        <ellipse cx="536.5964" cy="462.6599" fill="#FEFECE" filter="url(#f144ojl072ksno)" rx="65.5964" ry="15.5193" style="stroke: #A80036; stroke-width: 1.5;" /><text fill="#000000" font-family="sans-serif" font-size="14" lengthAdjust="spacingAndGlyphs" textLength="89" x="492.0964" y="467.9646">Medicine Note</text>
        <ellipse cx="555.4417" cy="71.894" fill="#FEFECE" filter="url(#f144ojl072ksno)" rx="31.4417" ry="25.7534" style="stroke: #A80036; stroke-width: 1.5;" /><text fill="#000000" font-family="sans-serif" font-size="14" lengthAdjust="spacingAndGlyphs" textLength="37" x="536.9417" y="68.7211">check</text><text fill="#000000" font-family="sans-serif" font-size="14" lengthAdjust="spacingAndGlyphs" textLength="35" x="537.9417" y="86.3305">in/out</text>
        <ellipse cx="278.6021" cy="71.9223" fill="#FEFECE" filter="url(#f144ojl072ksno)" rx="29.6021" ry="24.2817" style="stroke: #A80036; stroke-width: 1.5;" /><text fill="#000000" font-family="sans-serif" font-size="14" lengthAdjust="spacingAndGlyphs" textLength="23" x="267.1021" y="66.8413">MIS</text><text fill="#000000" font-family="sans-serif" font-size="14" lengthAdjust="spacingAndGlyphs" textLength="35" x="261.1021" y="84.4507">Login</text>
        <ellipse cx="706.4249" cy="234.3708" fill="#FEFECE" filter="url(#f144ojl072ksno)" rx="58.9249" ry="26.7302" style="stroke: #A80036; stroke-width: 1.5;" /><text fill="#000000" font-family="sans-serif" font-size="14" lengthAdjust="spacingAndGlyphs" textLength="83" x="664.9249" y="232.5732">ER/Specialist</text><text fill="#000000" font-family="sans-serif" font-size="14" lengthAdjust="spacingAndGlyphs" textLength="65" x="673.9249" y="250.1826">Infomation</text>
        <ellipse cx="218.4159" cy="234.1779" fill="#FEFECE" filter="url(#f144ojl072ksno)" rx="36.4159" ry="26.5373" style="stroke: #A80036; stroke-width: 1.5;" /><text fill="#000000" font-family="sans-serif" font-size="14" lengthAdjust="spacingAndGlyphs" textLength="50" x="193.4159" y="232.6695">Meeting</text><text fill="#000000" font-family="sans-serif" font-size="14" lengthAdjust="spacingAndGlyphs" textLength="37" x="199.9159" y="250.2789">Room</text>
        <ellipse cx="76.646" cy="233.9061" fill="#FEFECE" filter="url(#f144ojl072ksno)" rx="70.646" ry="25.2655" style="stroke: #A80036; stroke-width: 1.5;" /><text fill="#000000" font-family="sans-serif" font-size="14" lengthAdjust="spacingAndGlyphs" textLength="33" x="60.146" y="226.4225">Invite</text><text fill="#000000" font-family="sans-serif" font-size="14" lengthAdjust="spacingAndGlyphs" textLength="107" x="23.146" y="244.0319">to Meeting Room</text>
        <ellipse cx="438.2647" cy="234.0524" fill="#FEFECE" filter="url(#f144ojl072ksno)" rx="32.2647" ry="26.4118" style="stroke: #A80036; stroke-width: 1.5;" /><text fill="#000000" font-family="sans-serif" font-size="14" lengthAdjust="spacingAndGlyphs" textLength="43" x="416.7647" y="232.2787">Recive</text><text fill="#000000" font-family="sans-serif" font-size="14" lengthAdjust="spacingAndGlyphs" textLength="33" x="421.7647" y="249.8881">Invite</text>
        <ellipse cx="553.5733" cy="233.8916" fill="#FEFECE" filter="url(#f144ojl072ksno)" rx="47.5733" ry="25.7509" style="stroke: #A80036; stroke-width: 1.5;" /><text fill="#000000" font-family="sans-serif" font-size="14" lengthAdjust="spacingAndGlyphs" textLength="36" x="535.5733" y="227.1876">Grant</text><text fill="#000000" font-family="sans-serif" font-size="14" lengthAdjust="spacingAndGlyphs" textLength="69" x="519.0733" y="244.797">Permission</text>
        <path d="M12,59.1406 L12,85.4922 A0,0 0 0 0 12,85.4922 L72.5,85.4922 L76.5,208.3856 L80.5,85.4922 L141,85.4922 A0,0 0 0 0 141,85.4922 L141,69.1406 L131,59.1406 L12,59.1406 A0,0 0 0 0 12,59.1406 " fill="#FBFB77" filter="url(#f144ojl072ksno)" style="stroke: #A80036; stroke-width: 1.0;" />
        <path d="M131,59.1406 L131,69.1406 L141,69.1406 L131,59.1406 " fill="#FBFB77" style="stroke: #A80036; stroke-width: 1.0;" /><text fill="#000000" font-family="sans-serif" font-size="13" lengthAdjust="spacingAndGlyphs" textLength="108" x="18" y="77.6357">เรียกหมอท่านอื่นได้</text>
        <!--MD5=[6699f799ed5c7232dc727eb440bc4cc6]
link Protocol to Offline-->
        <path d="M327.777,249.7356 C323.269,273.9006 314.249,322.2466 309.179,349.4236 " fill="none" id="Protocol-&gt;Offline" style="stroke: #A80036; stroke-width: 1.0; stroke-dasharray: 7.0,7.0;" />
        <polygon fill="#A80036" points="308.22,354.5636,313.8028,346.4499,309.137,349.6484,305.9385,344.9827,308.22,354.5636" style="stroke: #A80036; stroke-width: 1.0;" /><text fill="#000000" font-family="sans-serif" font-size="13" lengthAdjust="spacingAndGlyphs" textLength="8" x="320.5" y="313.1357">ดู</text>
        <!--MD5=[c82ce4d3f9a0489352c7a9acf8805ad6]
link Protocol to Online-->
        <path d="M342.993,248.9766 C364.978,273.3226 410.566,323.8086 435.07,350.9456 " fill="none" id="Protocol-&gt;Online" style="stroke: #A80036; stroke-width: 1.0; stroke-dasharray: 7.0,7.0;" />
        <polygon fill="#A80036" points="438.528,354.7746,435.4632,345.4148,435.1763,351.0643,429.5267,350.7775,438.528,354.7746" style="stroke: #A80036; stroke-width: 1.0;" /><text fill="#000000" font-family="sans-serif" font-size="13" lengthAdjust="spacingAndGlyphs" textLength="51" x="410.5" y="305.1357">สั่งการได้</text><text fill="#000000" font-family="sans-serif" font-size="13" lengthAdjust="spacingAndGlyphs" textLength="50" x="411" y="321.4873">ทำบันทึก</text>
        <!--MD5=[dfdacabff06845ff468c7a479416b68f]
link Online to Ops-->
        <path d="M438.375,385.2812 C423.961,400.8104 400.753,425.8139 384.848,442.9507 " fill="none" id="Online-&gt;Ops" style="stroke: #A80036; stroke-width: 1.0; stroke-dasharray: 7.0,7.0;" />
        <polygon fill="#A80036" points="381.371,446.6964,390.4257,442.8218,384.7727,443.032,384.5625,437.379,381.371,446.6964" style="stroke: #A80036; stroke-width: 1.0;" />
        <!--MD5=[fa1f797b2a007678447862d188341364]
link Online to Med-->
        <path d="M464.781,385.2812 C479.54,400.9952 503.411,426.4106 519.518,443.5593 " fill="none" id="Online-&gt;Med" style="stroke: #A80036; stroke-width: 1.0; stroke-dasharray: 7.0,7.0;" />
        <polygon fill="#A80036" points="523.031,447.3006,519.7849,438.0021,519.6078,443.6562,513.9538,443.4791,523.031,447.3006" style="stroke: #A80036; stroke-width: 1.0;" />
        <!--MD5=[dd831f050c044493fa32b7c79b2ef305]
link MD to checkIn-->
        <path d="M445.884,72.1406 C469.569,72.1406 497.14,72.1406 518.705,72.1406 " fill="none" id="MD-&gt;checkIn" style="stroke: #A80036; stroke-width: 1.0;" />
        <polygon fill="#A80036" points="523.771,72.1406,514.771,68.1406,518.771,72.1406,514.771,76.1406,523.771,72.1406" style="stroke: #A80036; stroke-width: 1.0;" /><text fill="#000000" font-family="sans-serif" font-size="13" lengthAdjust="spacingAndGlyphs" textLength="37" x="466.25" y="49.6357">เข้าเวร</text><text fill="#000000" font-family="sans-serif" font-size="13" lengthAdjust="spacingAndGlyphs" textLength="42" x="463.75" y="65.9873">ออกเวร</text>
        <!--MD5=[568a38b1517a68da30ff5908ed06ab84]
reverse link MISLogin to MD-->
        <path d="M313.598,72.1406 C323.526,72.1406 333.454,72.1406 343.382,72.1406 " fill="none" id="MISLogin&lt;-MD" style="stroke: #A80036; stroke-width: 1.0;" />
        <polygon fill="#A80036" points="308.406,72.1406,317.406,76.1406,313.406,72.1406,317.406,68.1406,308.406,72.1406" style="stroke: #A80036; stroke-width: 1.0;" />
        <!--MD5=[780da28ebf1be06832b68d4fa50a0428]
link MD to MeetingRoom-->
        <path d="M349.632,113.9296 C316.434,144.1096 272.356,184.1806 244.707,209.3166 " fill="none" id="MD-&gt;MeetingRoom" style="stroke: #A80036; stroke-width: 1.0;" />
        <polygon fill="#A80036" points="240.75,212.9136,250.1005,209.8204,244.4501,209.5507,244.7198,203.9003,240.75,212.9136" style="stroke: #A80036; stroke-width: 1.0;" />
        <!--MD5=[7b84873b7ea2f1f359b46b24032402f9]
link MD to ERSpecialistInfomation-->
        <path d="M445.504,93.6066 C464.439,100.6646 486.24,108.1656 506.5,113.6406 C578.032,132.9726 613.1,96.7806 670.5,143.6406 C688.321,158.1886 697.382,182.8916 701.953,202.6636 " fill="none" id="MD-&gt;ERSpecialistInfomation" style="stroke: #A80036; stroke-width: 1.0;" />
        <polygon fill="#A80036" points="703.021,207.5756,705.0164,197.931,701.9581,202.6899,697.1993,199.6316,703.021,207.5756" style="stroke: #A80036; stroke-width: 1.0;" />
        <!--MD5=[f55fcecc053e4ee2a46de842c4cfad26]
link MD to Protocol-->
        <path d="M378.185,113.9296 C365.338,146.0446 348.012,189.3616 338.172,213.9616 " fill="none" id="MD-&gt;Protocol" style="stroke: #A80036; stroke-width: 1.0;" />
        <polygon fill="#A80036" points="336.307,218.6226,343.3634,211.7519,338.164,213.9802,335.9356,208.7808,336.307,218.6226" style="stroke: #A80036; stroke-width: 1.0;" />
        <!--MD5=[858c63aed9326116e7d2d6abccbf98cc]
link MD to InviteToMeetingRoom-->
        <path d="M343.147,103.9136 C337.236,107.2666 331.263,110.5736 325.5,113.6406 C256.817,150.1976 175.164,188.4216 124.577,211.5126 " fill="none" id="MD-&gt;InviteToMeetingRoom" style="stroke: #A80036; stroke-width: 1.0;" />
        <polygon fill="#A80036" points="119.78,213.6996,129.6284,213.6059,124.3295,211.6256,126.3099,206.3267,119.78,213.6996" style="stroke: #A80036; stroke-width: 1.0;" />
        <!--MD5=[2d032cbfb510cb54f1ff16f6bcb8d217]
link MD to ReciveInvite-->
        <path d="M405.717,113.9296 C413.355,141.7056 423.298,177.8596 430.222,203.0366 " fill="none" id="MD-&gt;ReciveInvite" style="stroke: #A80036; stroke-width: 1.0;" />
        <polygon fill="#A80036" points="431.564,207.9206,433.0347,198.1822,430.2384,203.0996,425.321,200.3032,431.564,207.9206" style="stroke: #A80036; stroke-width: 1.0;" /><text fill="#000000" font-family="sans-serif" font-size="13" lengthAdjust="spacingAndGlyphs" textLength="76" x="424.5" y="158.1357">รับคำเชิญจาก</text><text fill="#000000" font-family="sans-serif" font-size="13" lengthAdjust="spacingAndGlyphs" textLength="62" x="431.5" y="174.4873">Dispatcher</text>
        <!--MD5=[05211c8b26ed5c19b2d767f79b3c73b5]
link MD to GrantPermission-->
        <path d="M445.668,96.4036 C467.4,108.1916 491.757,124.1656 509.5,143.6406 C525.061,160.7216 536.356,184.3156 543.603,202.9906 " fill="none" id="MD-&gt;GrantPermission" style="stroke: #A80036; stroke-width: 1.0;" />
        <polygon fill="#A80036" points="545.54,208.1186,546.1009,198.2858,543.7728,203.4413,538.6172,201.1133,545.54,208.1186" style="stroke: #A80036; stroke-width: 1.0;" /><text fill="#000000" font-family="sans-serif" font-size="13" lengthAdjust="spacingAndGlyphs" textLength="128" x="533.5" y="166.1357">โยกสิทธิ์การอำนวยการ</text>
        <!--MD5=[495411963fd1cacd0fc269a8dccf8c62]
@startuml
Title __Medical Director__
  :Medical Director: as MD

  usecase (Protocol) as Protocol
  usecase (Offline Note) as Offline
  usecase (Online Note) as Online
  usecase (Operation Note) as Ops
  usecase (Medicine Note) as Med
  Protocol ..> Offline : ดู
  Protocol ..> Online: สั่งการได้\nทำบันทึก
  Online ..> Ops
  Online ..> Med

  usecase (check\nin/out) as checkIn
  usecase (MIS\nLogin) as MISLogin
  usecase (ER/Specialist\nInfomation) as ERSpecialistInfomation

  usecase (Meeting\nRoom) as MeetingRoom
  usecase (Invite\nto Meeting Room) as InviteToMeetingRoom
  usecase (Recive\nInvite) as ReciveInvite

  usecase (Grant\nPermission) as GrantPermission

  MD -right-> checkIn : เข้าเวร\nออกเวร
  MD -left-> MISLogin
  MD - -> MeetingRoom
  MD - -> ERSpecialistInfomation
  MD - -> Protocol
  MD - -> InviteToMeetingRoom
  note top of InviteToMeetingRoom : เรียกหมอท่านอื่นได้

  MD - -> ReciveInvite : รับคำเชิญจาก\nDispatcher
  MD - -> GrantPermission : โยกสิทธิ์การอำนวยการ

@enduml

PlantUML version 1.2020.02(Sun Mar 01 17:22:07 ICT 2020)
(GPL source distribution)
Java Runtime: Java(TM) SE Runtime Environment
JVM: Java HotSpot(TM) 64-Bit Server VM
Java Version: 1.8.0_181-b13
Operating System: Windows 10
Default Encoding: MS874
Language: en
Country: US
-->
    </g>
</svg>