<?xml version="1.0" encoding="UTF-8" standalone="no"?><svg xmlns="http://www.w3.org/2000/svg" xmlns:xlink="http://www.w3.org/1999/xlink" contentScriptType="application/ecmascript" contentStyleType="text/css" height="330px" preserveAspectRatio="none" style="width:527px;height:330px;" version="1.1" viewBox="0 0 527 330" width="527px" zoomAndPan="magnify">
    <defs>
        <filter height="300%" id="fhh7p3mp7t22" width="300%" x="-1" y="-1">
            <feGaussianBlur result="blurOut" stdDeviation="2.0" />
            <feColorMatrix in="blurOut" result="blurOut2" type="matrix" values="0 0 0 0 0 0 0 0 0 0 0 0 0 0 0 0 0 0 .4 0" />
            <feOffset dx="4.0" dy="4.0" in="blurOut2" result="blurOut3" />
            <feBlend in="SourceGraphic" in2="blurOut3" mode="normal" />
        </filter>
    </defs>
    <g><text fill="#000000" font-family="sans-serif" font-size="18" lengthAdjust="spacingAndGlyphs" text-decoration="underline" textLength="94" x="220" y="18.6855">Coordinator</text>
        <!--MD5=[dfd4219ae26b16e6e974a23a737c25b1]
entity Coordinator-->
        <ellipse cx="293.5" cy="40.1406" fill="#FEFECE" filter="url(#fhh7p3mp7t22)" rx="8" ry="8" style="stroke: #A80036; stroke-width: 1.5;" />
        <path d="M293.5,48.1406 L293.5,75.1406 M280.5,56.1406 L306.5,56.1406 M293.5,75.1406 L280.5,90.1406 M293.5,75.1406 L306.5,90.1406 " fill="none" filter="url(#fhh7p3mp7t22)" style="stroke: #A80036; stroke-width: 1.5;" /><text fill="#000000" font-family="sans-serif" font-size="14" lengthAdjust="spacingAndGlyphs" textLength="75" x="256" y="110.1738">Coordinator</text>
        <ellipse cx="115.2696" cy="201.0923" fill="#FEFECE" filter="url(#fhh7p3mp7t22)" rx="39.7696" ry="15.4517" style="stroke: #A80036; stroke-width: 1.5;" /><text fill="#000000" font-family="sans-serif" font-size="14" lengthAdjust="spacingAndGlyphs" textLength="52" x="89.2696" y="206.397">Protocol</text>
        <ellipse cx="53.5477" cy="304.0923" fill="#FEFECE" filter="url(#fhh7p3mp7t22)" rx="47.5477" ry="15.4517" style="stroke: #A80036; stroke-width: 1.5;" /><text fill="#000000" font-family="sans-serif" font-size="14" lengthAdjust="spacingAndGlyphs" textLength="63" x="22.0477" y="309.397">Operation</text>
        <ellipse cx="178.598" cy="304.0923" fill="#FEFECE" filter="url(#fhh7p3mp7t22)" rx="42.598" ry="15.4517" style="stroke: #A80036; stroke-width: 1.5;" /><text fill="#000000" font-family="sans-serif" font-size="14" lengthAdjust="spacingAndGlyphs" textLength="56" x="150.598" y="309.397">Medicine</text>
        <ellipse cx="191.6021" cy="71.9223" fill="#FEFECE" filter="url(#fhh7p3mp7t22)" rx="29.6021" ry="24.2817" style="stroke: #A80036; stroke-width: 1.5;" /><text fill="#000000" font-family="sans-serif" font-size="14" lengthAdjust="spacingAndGlyphs" textLength="23" x="180.1021" y="66.8413">MIS</text><text fill="#000000" font-family="sans-serif" font-size="14" lengthAdjust="spacingAndGlyphs" textLength="35" x="174.1021" y="84.4507">Login</text>
        <ellipse cx="441.4417" cy="71.894" fill="#FEFECE" filter="url(#fhh7p3mp7t22)" rx="31.4417" ry="25.7534" style="stroke: #A80036; stroke-width: 1.5;" /><text fill="#000000" font-family="sans-serif" font-size="14" lengthAdjust="spacingAndGlyphs" textLength="37" x="422.9417" y="68.7211">check</text><text fill="#000000" font-family="sans-serif" font-size="14" lengthAdjust="spacingAndGlyphs" textLength="35" x="423.9417" y="86.3305">in/out</text>
        <ellipse cx="227.4159" cy="201.1779" fill="#FEFECE" filter="url(#fhh7p3mp7t22)" rx="36.4159" ry="26.5373" style="stroke: #A80036; stroke-width: 1.5;" /><text fill="#000000" font-family="sans-serif" font-size="14" lengthAdjust="spacingAndGlyphs" textLength="50" x="202.4159" y="199.6695">Meeting</text><text fill="#000000" font-family="sans-serif" font-size="14" lengthAdjust="spacingAndGlyphs" textLength="37" x="208.9159" y="217.2789">Room</text>
        <ellipse cx="358.4249" cy="201.3708" fill="#FEFECE" filter="url(#fhh7p3mp7t22)" rx="58.9249" ry="26.7302" style="stroke: #A80036; stroke-width: 1.5;" /><text fill="#000000" font-family="sans-serif" font-size="14" lengthAdjust="spacingAndGlyphs" textLength="83" x="316.9249" y="199.5732">ER/Specialist</text><text fill="#000000" font-family="sans-serif" font-size="14" lengthAdjust="spacingAndGlyphs" textLength="65" x="325.9249" y="217.1826">Infomation</text>
        <ellipse cx="484.5952" cy="201.0168" fill="#FEFECE" filter="url(#fhh7p3mp7t22)" rx="31.5952" ry="25.8761" style="stroke: #A80036; stroke-width: 1.5;" /><text fill="#000000" font-family="sans-serif" font-size="14" lengthAdjust="spacingAndGlyphs" textLength="36" x="466.5952" y="197.3509">Close</text><text fill="#000000" font-family="sans-serif" font-size="14" lengthAdjust="spacingAndGlyphs" textLength="37" x="466.0952" y="214.9603">Room</text>
        <!--MD5=[ee56ebc6e29b0d20aa9220c2d9d56048]
link Protocol to Ops-->
        <path d="M106.617,216.6116 C95.7515,234.3115 77.3224,264.3331 65.2817,283.9479 " fill="none" id="Protocol-&gt;Ops" style="stroke: #A80036; stroke-width: 1.0; stroke-dasharray: 7.0,7.0;" />
        <polygon fill="#A80036" points="62.3666,288.6966,70.4838,283.1189,64.9823,284.4354,63.6658,278.9338,62.3666,288.6966" style="stroke: #A80036; stroke-width: 1.0;" />
        <!--MD5=[ec52306c40759acdcc016fdf461aa808]
link Protocol to Med-->
        <path d="M124.526,216.6116 C135.661,234.4615 154.611,264.8429 166.838,284.4443 " fill="none" id="Protocol-&gt;Med" style="stroke: #A80036; stroke-width: 1.0; stroke-dasharray: 7.0,7.0;" />
        <polygon fill="#A80036" points="169.49,288.6966,168.1211,278.9434,166.844,284.4542,161.3332,283.177,169.49,288.6966" style="stroke: #A80036; stroke-width: 1.0;" />
        <!--MD5=[5dd848c4d1376950c73c8212584afbee]
link Coordinator to checkIn-->
        <path d="M331.23,72.1406 C353.747,72.1406 382.216,72.1406 404.587,72.1406 " fill="none" id="Coordinator-&gt;checkIn" style="stroke: #A80036; stroke-width: 1.0;" />
        <polygon fill="#A80036" points="409.844,72.1406,400.844,68.1406,404.844,72.1406,400.844,76.1406,409.844,72.1406" style="stroke: #A80036; stroke-width: 1.0;" /><text fill="#000000" font-family="sans-serif" font-size="13" lengthAdjust="spacingAndGlyphs" textLength="37" x="352" y="49.6357">เข้าเวร</text><text fill="#000000" font-family="sans-serif" font-size="13" lengthAdjust="spacingAndGlyphs" textLength="42" x="349.5" y="65.9873">ออกเวร</text>
        <!--MD5=[24dab3b6d60a6475575b075bef9cf8f0]
reverse link MISLogin to Coordinator-->
        <path d="M226.484,72.1406 C236.24,72.1406 245.996,72.1406 255.751,72.1406 " fill="none" id="MISLogin&lt;-Coordinator" style="stroke: #A80036; stroke-width: 1.0;" />
        <polygon fill="#A80036" points="221.383,72.1406,230.383,76.1406,226.383,72.1406,230.383,68.1406,221.383,72.1406" style="stroke: #A80036; stroke-width: 1.0;" />
        <!--MD5=[5272508c55a89d82b7957e283d2e681d]
link Coordinator to MeetingRoom-->
        <path d="M272.436,113.6736 C262.711,132.3856 251.389,154.1726 242.542,171.1956 " fill="none" id="Coordinator-&gt;MeetingRoom" style="stroke: #A80036; stroke-width: 1.0;" />
        <polygon fill="#A80036" points="240.116,175.8636,247.8153,169.7219,242.4215,171.4269,240.7165,166.0331,240.116,175.8636" style="stroke: #A80036; stroke-width: 1.0;" />
        <!--MD5=[aab6c96682c91123151a9eb54bdbc358]
link Coordinator to ERSpecialistInfomation-->
        <path d="M314.245,113.6736 C323.686,132.1196 334.657,153.5546 343.313,170.4676 " fill="none" id="Coordinator-&gt;ERSpecialistInfomation" style="stroke: #A80036; stroke-width: 1.0;" />
        <polygon fill="#A80036" points="345.69,175.1126,345.1498,165.2786,343.4118,170.6618,338.0285,168.9238,345.69,175.1126" style="stroke: #A80036; stroke-width: 1.0;" />
        <!--MD5=[c026ff61d247cbc55291a5cf11e85969]
link Coordinator to CloseRoom-->
        <path d="M331.235,98.2316 C367.964,122.6526 422.951,159.2146 456.11,181.2636 " fill="none" id="Coordinator-&gt;CloseRoom" style="stroke: #A80036; stroke-width: 1.0;" />
        <polygon fill="#A80036" points="460.441,184.1436,455.1608,175.8298,456.2772,181.3754,450.7316,182.4918,460.441,184.1436" style="stroke: #A80036; stroke-width: 1.0;" />
        <!--MD5=[85b3fa37b778af4b3b31d3bd47d0066b]
link Coordinator to Protocol-->
        <path d="M255.708,101.1356 C249.958,105.3476 244.082,109.6236 238.5,113.6406 C203.647,138.7236 162.804,167.2836 138.056,184.4976 " fill="none" id="Coordinator-&gt;Protocol" style="stroke: #A80036; stroke-width: 1.0;" />
        <polygon fill="#A80036" points="133.927,187.3686,143.6,185.5156,138.0324,184.5146,139.0335,178.947,133.927,187.3686" style="stroke: #A80036; stroke-width: 1.0;" />
        <!--MD5=[90d519d69f625f55194bc98009f55485]
@startuml
Title __Coordinator__
  :Coordinator: as Coordinator

  usecase (Protocol) as Protocol
  usecase (Operation) as Ops
  usecase (Medicine) as Med
  Protocol ..> Ops
  Protocol ..> Med

  usecase (MIS\nLogin) as MISLogin
  usecase (check\nin/out) as checkIn
  usecase (Meeting\nRoom) as MeetingRoom
  usecase (ER/Specialist\nInfomation) as ERSpecialistInfomation
  usecase (Close\nRoom) as CloseRoom

  Coordinator -right-> checkIn : เข้าเวร\nออกเวร
  Coordinator -left-> MISLogin
  Coordinator - -> MeetingRoom
  Coordinator - -> ERSpecialistInfomation
  Coordinator - -> CloseRoom
  Coordinator - -> Protocol

@enduml

PlantUML version 1.2020.02(Sun Mar 01 17:22:07 ICT 2020)
(GPL source distribution)
Java Runtime: Java(TM) SE Runtime Environment
JVM: Java HotSpot(TM) 64-Bit Server VM
Java Version: 1.8.0_261-b12
Operating System: Windows 10
Default Encoding: Cp1252
Language: en
Country: US
-->
    </g>
</svg>