<?xml version="1.0" encoding="UTF-8" standalone="no"?><svg xmlns="http://www.w3.org/2000/svg" xmlns:xlink="http://www.w3.org/1999/xlink" contentScriptType="application/ecmascript" contentStyleType="text/css" height="347px" preserveAspectRatio="none" style="width:703px;height:347px;" version="1.1" viewBox="0 0 703 347" width="703px" zoomAndPan="magnify">
    <defs>
        <filter height="300%" id="f16wa633l4ev3f" width="300%" x="-1" y="-1">
            <feGaussianBlur result="blurOut" stdDeviation="2.0" />
            <feColorMatrix in="blurOut" result="blurOut2" type="matrix" values="0 0 0 0 0 0 0 0 0 0 0 0 0 0 0 0 0 0 .4 0" />
            <feOffset dx="4.0" dy="4.0" in="blurOut2" result="blurOut3" />
            <feBlend in="SourceGraphic" in2="blurOut3" mode="normal" />
        </filter>
    </defs>
    <g><text fill="#000000" font-family="sans-serif" font-size="18" lengthAdjust="spacingAndGlyphs" text-decoration="underline" textLength="86" x="312" y="18.6855">Dispatcher</text>
        <!--MD5=[8438b603195005c18d5011c1879083f4]
entity Dispatcher-->
        <ellipse cx="358.5" cy="40.1406" fill="#FEFECE" filter="url(#f16wa633l4ev3f)" rx="8" ry="8" style="stroke: #A80036; stroke-width: 1.5;" />
        <path d="M358.5,48.1406 L358.5,75.1406 M345.5,56.1406 L371.5,56.1406 M358.5,75.1406 L345.5,90.1406 M358.5,75.1406 L371.5,90.1406 " fill="none" filter="url(#f16wa633l4ev3f)" style="stroke: #A80036; stroke-width: 1.5;" /><text fill="#000000" font-family="sans-serif" font-size="14" lengthAdjust="spacingAndGlyphs" textLength="68" x="324.5" y="110.1738">Dispatcher</text>
        <ellipse cx="115.2696" cy="218.0923" fill="#FEFECE" filter="url(#f16wa633l4ev3f)" rx="39.7696" ry="15.4517" style="stroke: #A80036; stroke-width: 1.5;" /><text fill="#000000" font-family="sans-serif" font-size="14" lengthAdjust="spacingAndGlyphs" textLength="52" x="89.2696" y="223.397">Protocol</text>
        <ellipse cx="53.5477" cy="321.0923" fill="#FEFECE" filter="url(#f16wa633l4ev3f)" rx="47.5477" ry="15.4517" style="stroke: #A80036; stroke-width: 1.5;" /><text fill="#000000" font-family="sans-serif" font-size="14" lengthAdjust="spacingAndGlyphs" textLength="63" x="22.0477" y="326.397">Operation</text>
        <ellipse cx="178.598" cy="321.0923" fill="#FEFECE" filter="url(#f16wa633l4ev3f)" rx="42.598" ry="15.4517" style="stroke: #A80036; stroke-width: 1.5;" /><text fill="#000000" font-family="sans-serif" font-size="14" lengthAdjust="spacingAndGlyphs" textLength="56" x="150.598" y="326.397">Medicine</text>
        <ellipse cx="502.4417" cy="71.894" fill="#FEFECE" filter="url(#f16wa633l4ev3f)" rx="31.4417" ry="25.7534" style="stroke: #A80036; stroke-width: 1.5;" /><text fill="#000000" font-family="sans-serif" font-size="14" lengthAdjust="spacingAndGlyphs" textLength="37" x="483.9417" y="68.7211">check</text><text fill="#000000" font-family="sans-serif" font-size="14" lengthAdjust="spacingAndGlyphs" textLength="35" x="484.9417" y="86.3305">in/out</text>
        <ellipse cx="259.6021" cy="71.9223" fill="#FEFECE" filter="url(#f16wa633l4ev3f)" rx="29.6021" ry="24.2817" style="stroke: #A80036; stroke-width: 1.5;" /><text fill="#000000" font-family="sans-serif" font-size="14" lengthAdjust="spacingAndGlyphs" textLength="23" x="248.1021" y="66.8413">MIS</text><text fill="#000000" font-family="sans-serif" font-size="14" lengthAdjust="spacingAndGlyphs" textLength="35" x="242.1021" y="84.4507">Login</text>
        <ellipse cx="227.4159" cy="218.1779" fill="#FEFECE" filter="url(#f16wa633l4ev3f)" rx="36.4159" ry="26.5373" style="stroke: #A80036; stroke-width: 1.5;" /><text fill="#000000" font-family="sans-serif" font-size="14" lengthAdjust="spacingAndGlyphs" textLength="50" x="202.4159" y="216.6695">Meeting</text><text fill="#000000" font-family="sans-serif" font-size="14" lengthAdjust="spacingAndGlyphs" textLength="37" x="208.9159" y="234.2789">Room</text>
        <ellipse cx="358.4249" cy="218.3708" fill="#FEFECE" filter="url(#f16wa633l4ev3f)" rx="58.9249" ry="26.7302" style="stroke: #A80036; stroke-width: 1.5;" /><text fill="#000000" font-family="sans-serif" font-size="14" lengthAdjust="spacingAndGlyphs" textLength="83" x="316.9249" y="216.5732">ER/Specialist</text><text fill="#000000" font-family="sans-serif" font-size="14" lengthAdjust="spacingAndGlyphs" textLength="65" x="325.9249" y="234.1826">Infomation</text>
        <ellipse cx="484.5952" cy="218.0168" fill="#FEFECE" filter="url(#f16wa633l4ev3f)" rx="31.5952" ry="25.8761" style="stroke: #A80036; stroke-width: 1.5;" /><text fill="#000000" font-family="sans-serif" font-size="14" lengthAdjust="spacingAndGlyphs" textLength="36" x="466.5952" y="214.3509">Close</text><text fill="#000000" font-family="sans-serif" font-size="14" lengthAdjust="spacingAndGlyphs" textLength="37" x="466.0952" y="231.9603">Room</text>
        <ellipse cx="621.646" cy="217.9061" fill="#FEFECE" filter="url(#f16wa633l4ev3f)" rx="70.646" ry="25.2655" style="stroke: #A80036; stroke-width: 1.5;" /><text fill="#000000" font-family="sans-serif" font-size="14" lengthAdjust="spacingAndGlyphs" textLength="33" x="605.146" y="210.4225">Invite</text><text fill="#000000" font-family="sans-serif" font-size="14" lengthAdjust="spacingAndGlyphs" textLength="107" x="568.146" y="228.0319">to Meeting Room</text>
        <!--MD5=[ee56ebc6e29b0d20aa9220c2d9d56048]
link Protocol to Ops-->
        <path d="M106.617,233.6116 C95.7515,251.3115 77.3224,281.3331 65.2817,300.9479 " fill="none" id="Protocol-&gt;Ops" style="stroke: #A80036; stroke-width: 1.0; stroke-dasharray: 7.0,7.0;" />
        <polygon fill="#A80036" points="62.3666,305.6966,70.4838,300.1189,64.9823,301.4354,63.6658,295.9338,62.3666,305.6966" style="stroke: #A80036; stroke-width: 1.0;" />
        <!--MD5=[ec52306c40759acdcc016fdf461aa808]
link Protocol to Med-->
        <path d="M124.526,233.6116 C135.661,251.4615 154.611,281.8429 166.838,301.4443 " fill="none" id="Protocol-&gt;Med" style="stroke: #A80036; stroke-width: 1.0; stroke-dasharray: 7.0,7.0;" />
        <polygon fill="#A80036" points="169.49,305.6966,168.1211,295.9434,166.844,301.4542,161.3332,300.177,169.49,305.6966" style="stroke: #A80036; stroke-width: 1.0;" />
        <!--MD5=[2f0a8cba5a91d61a262041846568aa2e]
link Dispatcher to checkIn-->
        <path d="M392.626,72.1406 C414.493,72.1406 442.876,72.1406 465.316,72.1406 " fill="none" id="Dispatcher-&gt;checkIn" style="stroke: #A80036; stroke-width: 1.0;" />
        <polygon fill="#A80036" points="470.592,72.1406,461.592,68.1406,465.592,72.1406,461.592,76.1406,470.592,72.1406" style="stroke: #A80036; stroke-width: 1.0;" /><text fill="#000000" font-family="sans-serif" font-size="13" lengthAdjust="spacingAndGlyphs" textLength="37" x="413.25" y="49.6357">เข้าเวร</text><text fill="#000000" font-family="sans-serif" font-size="13" lengthAdjust="spacingAndGlyphs" textLength="42" x="410.75" y="65.9873">ออกเวร</text>
        <!--MD5=[7030f06f9b003a7fea23ad8575e533e6]
reverse link MISLogin to Dispatcher-->
        <path d="M294.495,72.1406 C304.473,72.1406 314.451,72.1406 324.429,72.1406 " fill="none" id="MISLogin&lt;-Dispatcher" style="stroke: #A80036; stroke-width: 1.0;" />
        <polygon fill="#A80036" points="289.277,72.1406,298.277,76.1406,294.277,72.1406,298.277,68.1406,289.277,72.1406" style="stroke: #A80036; stroke-width: 1.0;" />
        <!--MD5=[c77f09a8438623b12595c1375f2cecfd]
link Dispatcher to MeetingRoom-->
        <path d="M324.423,110.5986 C301.204,136.1226 271.081,169.2356 250.622,191.7236 " fill="none" id="Dispatcher-&gt;MeetingRoom" style="stroke: #A80036; stroke-width: 1.0;" />
        <polygon fill="#A80036" points="247.172,195.5166,256.187,191.5505,250.5364,191.8179,250.269,186.1674,247.172,195.5166" style="stroke: #A80036; stroke-width: 1.0;" />
        <!--MD5=[8c5db0d512f3aa2c073f6944be752e25]
link Dispatcher to ERSpecialistInfomation-->
        <path d="M358.5,114.0196 C358.5,137.0166 358.5,165.2566 358.5,186.3666 " fill="none" id="Dispatcher-&gt;ERSpecialistInfomation" style="stroke: #A80036; stroke-width: 1.0;" />
        <polygon fill="#A80036" points="358.5,191.5726,362.5,182.5726,358.5,186.5726,354.5,182.5726,358.5,191.5726" style="stroke: #A80036; stroke-width: 1.0;" />
        <!--MD5=[60805e60125b7e4d340108d194850b16]
link Dispatcher to CloseRoom-->
        <path d="M392.597,112.1086 C414.965,137.6716 443.538,170.3266 462.84,192.3866 " fill="none" id="Dispatcher-&gt;CloseRoom" style="stroke: #A80036; stroke-width: 1.0;" />
        <polygon fill="#A80036" points="466.333,196.3786,463.4163,186.9716,463.0403,192.6159,457.3959,192.2399,466.333,196.3786" style="stroke: #A80036; stroke-width: 1.0;" />
        <!--MD5=[1568eda5cc0f546f11e3f02df203e82d]
link Dispatcher to Protocol-->
        <path d="M324.402,100.9746 C318.549,105.3796 312.438,109.7576 306.5,113.6406 C251.52,149.5946 182.936,184.5366 144.712,203.1996 " fill="none" id="Dispatcher-&gt;Protocol" style="stroke: #A80036; stroke-width: 1.0;" />
        <polygon fill="#A80036" points="139.751,205.6136,149.5939,205.2708,144.2466,203.4251,146.0923,198.0778,139.751,205.6136" style="stroke: #A80036; stroke-width: 1.0;" />
        <!--MD5=[9304e6ed7e600334f48bb49f62366d05]
link Dispatcher to InviteToMeetingRoom-->
        <path d="M392.613,91.8186 C440.373,117.9686 527.125,165.4676 579.017,193.8796 " fill="none" id="Dispatcher-&gt;InviteToMeetingRoom" style="stroke: #A80036; stroke-width: 1.0;" />
        <polygon fill="#A80036" points="583.618,196.3996,577.645,188.5687,579.2324,193.9983,573.8028,195.5856,583.618,196.3996" style="stroke: #A80036; stroke-width: 1.0;" /><text fill="#000000" font-family="sans-serif" font-size="13" lengthAdjust="spacingAndGlyphs" textLength="66" x="515.5" y="158.1357">เรียกหมอได้</text>
        <!--MD5=[d022f79209d7106095ef44482e924665]
@startuml
Title __Dispatcher__
  :Dispatcher: as Dispatcher

  usecase (Protocol) as Protocol
  usecase (Operation) as Ops
  usecase (Medicine) as Med
  Protocol ..> Ops
  Protocol ..> Med

  usecase (check\nin/out) as checkIn
  usecase (MIS\nLogin) as MISLogin
  usecase (Meeting\nRoom) as MeetingRoom
  usecase (ER/Specialist\nInfomation) as ERSpecialistInfomation
  usecase (Close\nRoom) as CloseRoom
  usecase (Invite\nto Meeting Room) as InviteToMeetingRoom

  Dispatcher -right-> checkIn : เข้าเวร\nออกเวร
  Dispatcher -left-> MISLogin
  Dispatcher - -> MeetingRoom
  Dispatcher - -> ERSpecialistInfomation
  Dispatcher - -> CloseRoom
  Dispatcher - -> Protocol
  Dispatcher - -> InviteToMeetingRoom : เรียกหมอได้

@enduml

PlantUML version 1.2020.02(Sun Mar 01 17:22:07 ICT 2020)
(GPL source distribution)
Java Runtime: Java(TM) SE Runtime Environment
JVM: Java HotSpot(TM) 64-Bit Server VM
Java Version: 1.8.0_261-b12
Operating System: Windows 10
Default Encoding: Cp1252
Language: en
Country: US
-->
    </g>
</svg>