<?xml version="1.0" encoding="UTF-8" standalone="no"?><svg xmlns="http://www.w3.org/2000/svg" xmlns:xlink="http://www.w3.org/1999/xlink" contentScriptType="application/ecmascript" contentStyleType="text/css" height="624px" preserveAspectRatio="none" style="width:368px;height:624px;" version="1.1" viewBox="0 0 368 624" width="368px" zoomAndPan="magnify">
    <defs>
        <filter height="300%" id="f9sh2cuj23ii5" width="300%" x="-1" y="-1">
            <feGaussianBlur result="blurOut" stdDeviation="2.0" />
            <feColorMatrix in="blurOut" result="blurOut2" type="matrix" values="0 0 0 0 0 0 0 0 0 0 0 0 0 0 0 0 0 0 .4 0" />
            <feOffset dx="4.0" dy="4.0" in="blurOut2" result="blurOut3" />
            <feBlend in="SourceGraphic" in2="blurOut3" mode="normal" />
        </filter>
    </defs>
    <g><text fill="#000000" font-family="sans-serif" font-size="18" lengthAdjust="spacingAndGlyphs" text-decoration="underline" textLength="25" x="175" y="18.6855">ER</text>
        <!--MD5=[5feeba211306dae78a9255b1c0e912c7]
entity ER-->
        <ellipse cx="131.5" cy="40.1406" fill="#FEFECE" filter="url(#f9sh2cuj23ii5)" rx="8" ry="8" style="stroke: #A80036; stroke-width: 1.5;" />
        <path d="M131.5,48.1406 L131.5,75.1406 M118.5,56.1406 L144.5,56.1406 M131.5,75.1406 L118.5,90.1406 M131.5,75.1406 L144.5,90.1406 " fill="none" filter="url(#f9sh2cuj23ii5)" style="stroke: #A80036; stroke-width: 1.5;" /><text fill="#000000" font-family="sans-serif" font-size="14" lengthAdjust="spacingAndGlyphs" textLength="19" x="122" y="110.1738">ER</text>
        <ellipse cx="86.2696" cy="304.0923" fill="#FEFECE" filter="url(#f9sh2cuj23ii5)" rx="39.7696" ry="15.4517" style="stroke: #A80036; stroke-width: 1.5;" /><text fill="#000000" font-family="sans-serif" font-size="14" lengthAdjust="spacingAndGlyphs" textLength="52" x="60.2696" y="309.397">Protocol</text>
        <ellipse cx="61.3259" cy="413.0923" fill="#FEFECE" filter="url(#f9sh2cuj23ii5)" rx="55.3259" ry="15.4517" style="stroke: #A80036; stroke-width: 1.5;" /><text fill="#000000" font-family="sans-serif" font-size="14" lengthAdjust="spacingAndGlyphs" textLength="74" x="24.3259" y="418.397">Offline Note</text>
        <ellipse cx="207.3259" cy="413.0923" fill="#FEFECE" filter="url(#f9sh2cuj23ii5)" rx="55.3259" ry="15.4517" style="stroke: #A80036; stroke-width: 1.5;" /><text fill="#000000" font-family="sans-serif" font-size="14" lengthAdjust="spacingAndGlyphs" textLength="74" x="170.3259" y="418.397">Online Note</text>
        <ellipse cx="122.6311" cy="505.6668" fill="#FEFECE" filter="url(#f9sh2cuj23ii5)" rx="68.1311" ry="16.0262" style="stroke: #A80036; stroke-width: 1.5;" /><text fill="#000000" font-family="sans-serif" font-size="14" lengthAdjust="spacingAndGlyphs" textLength="96" x="74.6311" y="510.9715">Operation Note</text>
        <ellipse cx="291.5964" cy="505.6599" fill="#FEFECE" filter="url(#f9sh2cuj23ii5)" rx="65.5964" ry="15.5193" style="stroke: #A80036; stroke-width: 1.5;" /><text fill="#000000" font-family="sans-serif" font-size="14" lengthAdjust="spacingAndGlyphs" textLength="89" x="247.0964" y="510.9646">Medicine Note</text>
        <ellipse cx="291.669" cy="598.0923" fill="#FEFECE" filter="url(#f9sh2cuj23ii5)" rx="49.669" ry="15.4517" style="stroke: #A80036; stroke-width: 1.5;" /><text fill="#000000" font-family="sans-serif" font-size="14" lengthAdjust="spacingAndGlyphs" textLength="66" x="258.669" y="603.397">Check List</text>
        <ellipse cx="52.6021" cy="71.9223" fill="#FEFECE" filter="url(#f9sh2cuj23ii5)" rx="29.6021" ry="24.2817" style="stroke: #A80036; stroke-width: 1.5;" /><text fill="#000000" font-family="sans-serif" font-size="14" lengthAdjust="spacingAndGlyphs" textLength="23" x="41.1021" y="66.8413">MIS</text><text fill="#000000" font-family="sans-serif" font-size="14" lengthAdjust="spacingAndGlyphs" textLength="35" x="35.1021" y="84.4507">Login</text>
        <ellipse cx="176.4159" cy="201.1779" fill="#FEFECE" filter="url(#f9sh2cuj23ii5)" rx="36.4159" ry="26.5373" style="stroke: #A80036; stroke-width: 1.5;" /><text fill="#000000" font-family="sans-serif" font-size="14" lengthAdjust="spacingAndGlyphs" textLength="50" x="151.4159" y="199.6695">Meeting</text><text fill="#000000" font-family="sans-serif" font-size="14" lengthAdjust="spacingAndGlyphs" textLength="37" x="157.9159" y="217.2789">Room</text>
        <!--MD5=[6699f799ed5c7232dc727eb440bc4cc6]
link Protocol to Offline-->
        <path d="M83.0239,320.0186 C78.6207,338.8636 71.0188,371.4006 66.128,392.3326 " fill="none" id="Protocol-&gt;Offline" style="stroke: #A80036; stroke-width: 1.0; stroke-dasharray: 7.0,7.0;" />
        <polygon fill="#A80036" points="64.9466,397.3886,70.8909,389.5359,66.0851,392.52,63.101,387.7142,64.9466,397.3886" style="stroke: #A80036; stroke-width: 1.0;" /><text fill="#000000" font-family="sans-serif" font-size="13" lengthAdjust="spacingAndGlyphs" textLength="8" x="76.5" y="364.1357">ดู</text>
        <!--MD5=[c82ce4d3f9a0489352c7a9acf8805ad6]
link Protocol to Online-->
        <path d="M101.8247,318.6926 C123.586,337.9356 163.465,373.2006 187.522,394.4736 " fill="none" id="Protocol-&gt;Online" style="stroke: #A80036; stroke-width: 1.0; stroke-dasharray: 7.0,7.0;" />
        <polygon fill="#A80036" points="191.532,398.0196,187.4385,389.0618,187.786,394.7079,182.1398,395.0554,191.532,398.0196" style="stroke: #A80036; stroke-width: 1.0;" /><text fill="#000000" font-family="sans-serif" font-size="13" lengthAdjust="spacingAndGlyphs" textLength="8" x="154.5" y="364.1357">ดู</text>
        <!--MD5=[dfdacabff06845ff468c7a479416b68f]
link Online to Ops-->
        <path d="M194.219,428.2816 C179.633,443.8106 156.149,468.8136 140.054,485.9506 " fill="none" id="Online-&gt;Ops" style="stroke: #A80036; stroke-width: 1.0; stroke-dasharray: 7.0,7.0;" />
        <polygon fill="#A80036" points="136.536,489.6966,145.6132,485.8749,139.9591,486.0521,139.7819,480.398,136.536,489.6966" style="stroke: #A80036; stroke-width: 1.0;" />
        <!--MD5=[fa1f797b2a007678447862d188341364]
link Online to Med-->
        <path d="M220.625,428.2816 C235.21,443.9956 258.8,469.4106 274.717,486.5596 " fill="none" id="Online-&gt;Med" style="stroke: #A80036; stroke-width: 1.0; stroke-dasharray: 7.0,7.0;" />
        <polygon fill="#A80036" points="278.19,490.3006,274.9986,480.9832,274.7883,486.6361,269.1354,486.4258,278.19,490.3006" style="stroke: #A80036; stroke-width: 1.0;" />
        <!--MD5=[36e00adda9d547800407b763e370433a]
link Med to Check-->
        <path d="M291.5,521.181 C291.5,536.486 291.5,560.6657 291.5,577.6233 " fill="none" id="Med-&gt;Check" style="stroke: #A80036; stroke-width: 1.0; stroke-dasharray: 7.0,7.0;" />
        <polygon fill="#A80036" points="291.5,582.6363,295.5,573.6363,291.5,577.6363,287.5,573.6363,291.5,582.6363" style="stroke: #A80036; stroke-width: 1.0;" />
        <!--MD5=[0efa9026de5c6bcb483939ebf2ff3f41]
reverse link MISLogin to ER-->
        <path d="M87.2783,72.1406 C97.1328,72.1406 106.987,72.1406 116.842,72.1406 " fill="none" id="MISLogin&lt;-ER" style="stroke: #A80036; stroke-width: 1.0;" />
        <polygon fill="#A80036" points="82.125,72.1406,91.125,76.1406,87.125,72.1406,91.125,68.1406,82.125,72.1406" style="stroke: #A80036; stroke-width: 1.0;" />
        <!--MD5=[dd75ddc79692eb4881abc289679c5eb0]
link ER to MeetingRoom-->
        <path d="M145.862,113.6736 C152.342,131.9626 159.863,153.1886 165.832,170.0336 " fill="none" id="ER-&gt;MeetingRoom" style="stroke: #A80036; stroke-width: 1.0;" />
        <polygon fill="#A80036" points="167.632,175.1126,168.3963,165.2935,165.962,170.3998,160.8557,167.9655,167.632,175.1126" style="stroke: #A80036; stroke-width: 1.0;" />
        <!--MD5=[28bb78d18d9c4039fd07ad2cedc967eb]
link ER to Protocol-->
        <path d="M123.558,113.7306 C113.819,163.5116 97.7005,245.8936 90.358,283.4216 " fill="none" id="ER-&gt;Protocol" style="stroke: #A80036; stroke-width: 1.0;" />
        <polygon fill="#A80036" points="89.3401,288.6246,94.9937,280.5601,90.3001,283.7176,87.1425,279.0241,89.3401,288.6246" style="stroke: #A80036; stroke-width: 1.0;" />
        <!--MD5=[feb9c81a1e8fa9a8c0ec6f37ef5d9443]
@startuml
Title __ER__
  :ER: as ER

  usecase (Protocol) as Protocol
  usecase (Offline Note) as Offline
  usecase (Online Note) as Online
  usecase (Operation Note) as Ops
  usecase (Medicine Note) as Med
  usecase (Check List) as Check
  Protocol ..> Offline : ดู
  Protocol ..> Online : ดู
  Online ..> Ops
  Online ..> Med
  Med ..> Check

  usecase (MIS\nLogin) as MISLogin
  usecase (Meeting\nRoom) as MeetingRoom

  ER -left-> MISLogin
  ER - -> MeetingRoom
  ER - - -> Protocol

@enduml

PlantUML version 1.2020.02(Sun Mar 01 17:22:07 ICT 2020)
(GPL source distribution)
Java Runtime: Java(TM) SE Runtime Environment
JVM: Java HotSpot(TM) 64-Bit Server VM
Java Version: 1.8.0_181-b13
Operating System: Windows 10
Default Encoding: MS874
Language: en
Country: US
-->
    </g>
</svg>