<?xml version="1.0" encoding="UTF-8" standalone="no"?><svg xmlns="http://www.w3.org/2000/svg" xmlns:xlink="http://www.w3.org/1999/xlink" contentScriptType="application/ecmascript" contentStyleType="text/css" height="330px" preserveAspectRatio="none" style="width:686px;height:330px;" version="1.1" viewBox="0 0 686 330" width="686px" zoomAndPan="magnify">
    <defs>
        <filter height="300%" id="fby5fjspzlzku" width="300%" x="-1" y="-1">
            <feGaussianBlur result="blurOut" stdDeviation="2.0" />
            <feColorMatrix in="blurOut" result="blurOut2" type="matrix" values="0 0 0 0 0 0 0 0 0 0 0 0 0 0 0 0 0 0 .4 0" />
            <feOffset dx="4.0" dy="4.0" in="blurOut2" result="blurOut3" />
            <feBlend in="SourceGraphic" in2="blurOut3" mode="normal" />
        </filter>
    </defs>
    <g><text fill="#000000" font-family="sans-serif" font-size="18" lengthAdjust="spacingAndGlyphs" text-decoration="underline" textLength="94" x="300" y="18.6855">Coordinator</text>
        <!--MD5=[dfd4219ae26b16e6e974a23a737c25b1]
entity Coordinator-->
        <ellipse cx="358.5" cy="40.1406" fill="#FEFECE" filter="url(#fby5fjspzlzku)" rx="8" ry="8" style="stroke: #A80036; stroke-width: 1.5;" />
        <path d="M358.5,48.1406 L358.5,75.1406 M345.5,56.1406 L371.5,56.1406 M358.5,75.1406 L345.5,90.1406 M358.5,75.1406 L371.5,90.1406 " fill="none" filter="url(#fby5fjspzlzku)" style="stroke: #A80036; stroke-width: 1.5;" /><text fill="#000000" font-family="sans-serif" font-size="14" lengthAdjust="spacingAndGlyphs" textLength="75" x="321" y="110.1738">Coordinator</text>
        <ellipse cx="115.2696" cy="201.0923" fill="#FEFECE" filter="url(#fby5fjspzlzku)" rx="39.7696" ry="15.4517" style="stroke: #A80036; stroke-width: 1.5;" /><text fill="#000000" font-family="sans-serif" font-size="14" lengthAdjust="spacingAndGlyphs" textLength="52" x="89.2696" y="206.397">Protocol</text>
        <ellipse cx="53.5477" cy="304.0923" fill="#FEFECE" filter="url(#fby5fjspzlzku)" rx="47.5477" ry="15.4517" style="stroke: #A80036; stroke-width: 1.5;" /><text fill="#000000" font-family="sans-serif" font-size="14" lengthAdjust="spacingAndGlyphs" textLength="63" x="22.0477" y="309.397">Operation</text>
        <ellipse cx="178.598" cy="304.0923" fill="#FEFECE" filter="url(#fby5fjspzlzku)" rx="42.598" ry="15.4517" style="stroke: #A80036; stroke-width: 1.5;" /><text fill="#000000" font-family="sans-serif" font-size="14" lengthAdjust="spacingAndGlyphs" textLength="56" x="150.598" y="309.397">Medicine</text>
        <ellipse cx="256.6021" cy="71.9223" fill="#FEFECE" filter="url(#fby5fjspzlzku)" rx="29.6021" ry="24.2817" style="stroke: #A80036; stroke-width: 1.5;" /><text fill="#000000" font-family="sans-serif" font-size="14" lengthAdjust="spacingAndGlyphs" textLength="23" x="245.1021" y="66.8413">MIS</text><text fill="#000000" font-family="sans-serif" font-size="14" lengthAdjust="spacingAndGlyphs" textLength="35" x="239.1021" y="84.4507">Login</text>
        <ellipse cx="506.4417" cy="71.894" fill="#FEFECE" filter="url(#fby5fjspzlzku)" rx="31.4417" ry="25.7534" style="stroke: #A80036; stroke-width: 1.5;" /><text fill="#000000" font-family="sans-serif" font-size="14" lengthAdjust="spacingAndGlyphs" textLength="37" x="487.9417" y="68.7211">check</text><text fill="#000000" font-family="sans-serif" font-size="14" lengthAdjust="spacingAndGlyphs" textLength="35" x="488.9417" y="86.3305">in/out</text>
        <ellipse cx="227.4159" cy="201.1779" fill="#FEFECE" filter="url(#fby5fjspzlzku)" rx="36.4159" ry="26.5373" style="stroke: #A80036; stroke-width: 1.5;" /><text fill="#000000" font-family="sans-serif" font-size="14" lengthAdjust="spacingAndGlyphs" textLength="50" x="202.4159" y="199.6695">Meeting</text><text fill="#000000" font-family="sans-serif" font-size="14" lengthAdjust="spacingAndGlyphs" textLength="37" x="208.9159" y="217.2789">Room</text>
        <ellipse cx="358.4249" cy="201.3708" fill="#FEFECE" filter="url(#fby5fjspzlzku)" rx="58.9249" ry="26.7302" style="stroke: #A80036; stroke-width: 1.5;" /><text fill="#000000" font-family="sans-serif" font-size="14" lengthAdjust="spacingAndGlyphs" textLength="83" x="316.9249" y="199.5732">ER/Specialist</text><text fill="#000000" font-family="sans-serif" font-size="14" lengthAdjust="spacingAndGlyphs" textLength="65" x="325.9249" y="217.1826">Infomation</text>
        <ellipse cx="484.5952" cy="201.0168" fill="#FEFECE" filter="url(#fby5fjspzlzku)" rx="31.5952" ry="25.8761" style="stroke: #A80036; stroke-width: 1.5;" /><text fill="#000000" font-family="sans-serif" font-size="14" lengthAdjust="spacingAndGlyphs" textLength="36" x="466.5952" y="197.3509">Close</text><text fill="#000000" font-family="sans-serif" font-size="14" lengthAdjust="spacingAndGlyphs" textLength="37" x="466.0952" y="214.9603">Room</text>
        <ellipse cx="613.4402" cy="201.1504" fill="#FEFECE" filter="url(#fby5fjspzlzku)" rx="62.4402" ry="25.5098" style="stroke: #A80036; stroke-width: 1.5;" /><text fill="#000000" font-family="sans-serif" font-size="14" lengthAdjust="spacingAndGlyphs" textLength="93" x="566.9402" y="201.2384">Update Patiant</text><text fill="#000000" font-family="sans-serif" font-size="14" lengthAdjust="spacingAndGlyphs" textLength="40" x="593.4402" y="218.8477">Status</text>
        <!--MD5=[ee56ebc6e29b0d20aa9220c2d9d56048]
link Protocol to Ops-->
        <path d="M106.617,216.6116 C95.7515,234.3115 77.3224,264.3331 65.2817,283.9479 " fill="none" id="Protocol-&gt;Ops" style="stroke: #A80036; stroke-width: 1.0; stroke-dasharray: 7.0,7.0;" />
        <polygon fill="#A80036" points="62.3666,288.6966,70.4838,283.1189,64.9823,284.4354,63.6658,278.9338,62.3666,288.6966" style="stroke: #A80036; stroke-width: 1.0;" />
        <!--MD5=[ec52306c40759acdcc016fdf461aa808]
link Protocol to Med-->
        <path d="M124.526,216.6116 C135.661,234.4615 154.611,264.8429 166.838,284.4443 " fill="none" id="Protocol-&gt;Med" style="stroke: #A80036; stroke-width: 1.0; stroke-dasharray: 7.0,7.0;" />
        <polygon fill="#A80036" points="169.49,288.6966,168.1211,278.9434,166.844,284.4542,161.3332,283.177,169.49,288.6966" style="stroke: #A80036; stroke-width: 1.0;" />
        <!--MD5=[5dd848c4d1376950c73c8212584afbee]
link Coordinator to checkIn-->
        <path d="M396.23,72.1406 C418.747,72.1406 447.216,72.1406 469.587,72.1406 " fill="none" id="Coordinator-&gt;checkIn" style="stroke: #A80036; stroke-width: 1.0;" />
        <polygon fill="#A80036" points="474.844,72.1406,465.844,68.1406,469.844,72.1406,465.844,76.1406,474.844,72.1406" style="stroke: #A80036; stroke-width: 1.0;" /><text fill="#000000" font-family="sans-serif" font-size="13" lengthAdjust="spacingAndGlyphs" textLength="37" x="417" y="49.6357">เข้าเวร</text><text fill="#000000" font-family="sans-serif" font-size="13" lengthAdjust="spacingAndGlyphs" textLength="42" x="414.5" y="65.9873">ออกเวร</text>
        <!--MD5=[24dab3b6d60a6475575b075bef9cf8f0]
reverse link MISLogin to Coordinator-->
        <path d="M291.484,72.1406 C301.24,72.1406 310.996,72.1406 320.751,72.1406 " fill="none" id="MISLogin&lt;-Coordinator" style="stroke: #A80036; stroke-width: 1.0;" />
        <polygon fill="#A80036" points="286.383,72.1406,295.383,76.1406,291.383,72.1406,295.383,68.1406,286.383,72.1406" style="stroke: #A80036; stroke-width: 1.0;" />
        <!--MD5=[5272508c55a89d82b7957e283d2e681d]
link Coordinator to MeetingRoom-->
        <path d="M320.961,109.5336 C298.988,130.8356 271.847,157.1486 252.484,175.9196 " fill="none" id="Coordinator-&gt;MeetingRoom" style="stroke: #A80036; stroke-width: 1.0;" />
        <polygon fill="#A80036" points="248.719,179.5696,257.9653,176.1775,252.3091,176.0895,252.3971,170.4334,248.719,179.5696" style="stroke: #A80036; stroke-width: 1.0;" />
        <!--MD5=[aab6c96682c91123151a9eb54bdbc358]
link Coordinator to ERSpecialistInfomation-->
        <path d="M358.5,113.6736 C358.5,131.6986 358.5,152.5786 358.5,169.3036 " fill="none" id="Coordinator-&gt;ERSpecialistInfomation" style="stroke: #A80036; stroke-width: 1.0;" />
        <polygon fill="#A80036" points="358.5,174.3526,362.5,165.3526,358.5,169.3526,354.5,165.3526,358.5,174.3526" style="stroke: #A80036; stroke-width: 1.0;" />
        <!--MD5=[c026ff61d247cbc55291a5cf11e85969]
link Coordinator to CloseRoom-->
        <path d="M396.304,111.2446 C417.507,132.6156 443.269,158.5816 461.46,176.9176 " fill="none" id="Coordinator-&gt;CloseRoom" style="stroke: #A80036; stroke-width: 1.0;" />
        <polygon fill="#A80036" points="464.994,180.4796,461.4956,171.273,461.4728,176.9298,455.816,176.907,464.994,180.4796" style="stroke: #A80036; stroke-width: 1.0;" />
        <!--MD5=[85b3fa37b778af4b3b31d3bd47d0066b]
link Coordinator to Protocol-->
        <path d="M320.717,102.4966 C315.069,106.4306 309.219,110.2666 303.5,113.6406 C288.961,122.2176 194.447,164.8206 145.218,186.8676 " fill="none" id="Coordinator-&gt;Protocol" style="stroke: #A80036; stroke-width: 1.0;" />
        <polygon fill="#A80036" points="140.599,188.9356,150.4478,188.9099,145.1627,186.893,147.1796,181.6079,140.599,188.9356" style="stroke: #A80036; stroke-width: 1.0;" />
        <!--MD5=[6807f0b41efc8fa934e168e8a87ad31a]
link Coordinator to UpdatePatiantStatus-->
        <path d="M396.126,91.8796 C442.563,115.0076 521.362,154.2526 570.248,178.5996 " fill="none" id="Coordinator-&gt;UpdatePatiantStatus" style="stroke: #A80036; stroke-width: 1.0;" />
        <polygon fill="#A80036" points="574.884,180.9076,568.6104,173.3154,570.4082,178.679,565.0446,180.4768,574.884,180.9076" style="stroke: #A80036; stroke-width: 1.0;" />
        <!--MD5=[561d704ccaf4617b2cf8263c691161fc]
@startuml
Title __Coordinator__
  :Coordinator: as Coordinator

  usecase (Protocol) as Protocol
  usecase (Operation) as Ops
  usecase (Medicine) as Med
  Protocol ..> Ops
  Protocol ..> Med

  usecase (MIS\nLogin) as MISLogin
  usecase (check\nin/out) as checkIn
  usecase (Meeting\nRoom) as MeetingRoom
  usecase (ER/Specialist\nInfomation) as ERSpecialistInfomation
  usecase (Close\nRoom) as CloseRoom
  usecase (Update Patiant\nStatus) as UpdatePatiantStatus

  Coordinator -right-> checkIn : เข้าเวร\nออกเวร
  Coordinator -left-> MISLogin
  Coordinator - -> MeetingRoom
  Coordinator - -> ERSpecialistInfomation
  Coordinator - -> CloseRoom
  Coordinator - -> Protocol
  Coordinator - -> UpdatePatiantStatus

@enduml

PlantUML version 1.2020.02(Sun Mar 01 17:22:07 ICT 2020)
(GPL source distribution)
Java Runtime: Java(TM) SE Runtime Environment
JVM: Java HotSpot(TM) 64-Bit Server VM
Java Version: 1.8.0_261-b12
Operating System: Windows 10
Default Encoding: Cp1252
Language: en
Country: US
-->
    </g>
</svg>