<?xml version="1.0" encoding="UTF-8" standalone="no"?><svg xmlns="http://www.w3.org/2000/svg" xmlns:xlink="http://www.w3.org/1999/xlink" contentScriptType="application/ecmascript" contentStyleType="text/css" height="456px" preserveAspectRatio="none" style="width:509px;height:456px;" version="1.1" viewBox="0 0 509 456" width="509px" zoomAndPan="magnify">
    <defs>
        <filter height="300%" id="f9no5cp339iqt" width="300%" x="-1" y="-1">
            <feGaussianBlur result="blurOut" stdDeviation="2.0" />
            <feColorMatrix in="blurOut" result="blurOut2" type="matrix" values="0 0 0 0 0 0 0 0 0 0 0 0 0 0 0 0 0 0 .4 0" />
            <feOffset dx="4.0" dy="4.0" in="blurOut2" result="blurOut3" />
            <feBlend in="SourceGraphic" in2="blurOut3" mode="normal" />
        </filter>
    </defs>
    <g><text fill="#000000" font-family="sans-serif" font-size="18" lengthAdjust="spacingAndGlyphs" text-decoration="underline" textLength="94" x="211" y="18.6855">Coordinator</text>
        <!--MD5=[dfd4219ae26b16e6e974a23a737c25b1]
entity Coordinator-->
        <ellipse cx="244.5" cy="40.1406" fill="#FEFECE" filter="url(#f9no5cp339iqt)" rx="8" ry="8" style="stroke: #A80036; stroke-width: 1.5;" />
        <path d="M244.5,48.1406 L244.5,75.1406 M231.5,56.1406 L257.5,56.1406 M244.5,75.1406 L231.5,90.1406 M244.5,75.1406 L257.5,90.1406 " fill="none" filter="url(#f9no5cp339iqt)" style="stroke: #A80036; stroke-width: 1.5;" /><text fill="#000000" font-family="sans-serif" font-size="14" lengthAdjust="spacingAndGlyphs" textLength="75" x="207" y="110.1738">Coordinator</text>
        <ellipse cx="81.2696" cy="234.0923" fill="#FEFECE" filter="url(#f9no5cp339iqt)" rx="39.7696" ry="15.4517" style="stroke: #A80036; stroke-width: 1.5;" /><text fill="#000000" font-family="sans-serif" font-size="14" lengthAdjust="spacingAndGlyphs" textLength="52" x="55.2696" y="239.397">Protocol</text>
        <ellipse cx="61.3259" cy="337.0923" fill="#FEFECE" filter="url(#f9no5cp339iqt)" rx="55.3259" ry="15.4517" style="stroke: #A80036; stroke-width: 1.5;" /><text fill="#000000" font-family="sans-serif" font-size="14" lengthAdjust="spacingAndGlyphs" textLength="74" x="24.3259" y="342.397">Offline Note</text>
        <ellipse cx="207.3259" cy="337.0923" fill="#FEFECE" filter="url(#f9no5cp339iqt)" rx="55.3259" ry="15.4517" style="stroke: #A80036; stroke-width: 1.5;" /><text fill="#000000" font-family="sans-serif" font-size="14" lengthAdjust="spacingAndGlyphs" textLength="74" x="170.3259" y="342.397">Online Note</text>
        <ellipse cx="122.6311" cy="429.6668" fill="#FEFECE" filter="url(#f9no5cp339iqt)" rx="68.1311" ry="16.0262" style="stroke: #A80036; stroke-width: 1.5;" /><text fill="#000000" font-family="sans-serif" font-size="14" lengthAdjust="spacingAndGlyphs" textLength="96" x="74.6311" y="434.9715">Operation Note</text>
        <ellipse cx="291.5964" cy="429.6599" fill="#FEFECE" filter="url(#f9no5cp339iqt)" rx="65.5964" ry="15.5193" style="stroke: #A80036; stroke-width: 1.5;" /><text fill="#000000" font-family="sans-serif" font-size="14" lengthAdjust="spacingAndGlyphs" textLength="89" x="247.0964" y="434.9646">Medicine Note</text>
        <ellipse cx="193.4159" cy="234.1779" fill="#FEFECE" filter="url(#f9no5cp339iqt)" rx="36.4159" ry="26.5373" style="stroke: #A80036; stroke-width: 1.5;" /><text fill="#000000" font-family="sans-serif" font-size="14" lengthAdjust="spacingAndGlyphs" textLength="50" x="168.4159" y="232.6695">Meeting</text><text fill="#000000" font-family="sans-serif" font-size="14" lengthAdjust="spacingAndGlyphs" textLength="37" x="174.9159" y="250.2789">Room</text>
        <ellipse cx="296.5952" cy="234.0168" fill="#FEFECE" filter="url(#f9no5cp339iqt)" rx="31.5952" ry="25.8761" style="stroke: #A80036; stroke-width: 1.5;" /><text fill="#000000" font-family="sans-serif" font-size="14" lengthAdjust="spacingAndGlyphs" textLength="36" x="278.5952" y="230.3509">Close</text><text fill="#000000" font-family="sans-serif" font-size="14" lengthAdjust="spacingAndGlyphs" textLength="37" x="278.0952" y="247.9603">Room</text>
        <ellipse cx="430.5596" cy="233.9319" fill="#FEFECE" filter="url(#f9no5cp339iqt)" rx="67.5596" ry="25.2912" style="stroke: #A80036; stroke-width: 1.5;" /><text fill="#000000" font-family="sans-serif" font-size="14" lengthAdjust="spacingAndGlyphs" textLength="33" x="414.0596" y="226.4903">Invite</text><text fill="#000000" font-family="sans-serif" font-size="14" lengthAdjust="spacingAndGlyphs" textLength="102" x="379.5596" y="244.0997">Medical Director</text>
        <!--MD5=[6699f799ed5c7232dc727eb440bc4cc6]
link Protocol to Offline-->
        <path d="M78.6345,249.6116 C75.1642,267.1366 69.3021,296.7406 65.4164,316.3626 " fill="none" id="Protocol-&gt;Offline" style="stroke: #A80036; stroke-width: 1.0; stroke-dasharray: 7.0,7.0;" />
        <polygon fill="#A80036" points="64.4252,321.3686,70.0976,313.3173,65.3966,316.4639,62.25,311.763,64.4252,321.3686" style="stroke: #A80036; stroke-width: 1.0;" />
        <!--MD5=[c82ce4d3f9a0489352c7a9acf8805ad6]
link Protocol to Online-->
        <path d="M97.9723,248.3446 C120.547,266.4406 161.131,298.9716 186.054,318.9496 " fill="none" id="Protocol-&gt;Online" style="stroke: #A80036; stroke-width: 1.0; stroke-dasharray: 7.0,7.0;" />
        <polygon fill="#A80036" points="190.216,322.2856,185.6952,313.5357,186.3146,319.1585,180.6917,319.7779,190.216,322.2856" style="stroke: #A80036; stroke-width: 1.0;" />
        <!--MD5=[dfdacabff06845ff468c7a479416b68f]
link Online to Ops-->
        <path d="M194.219,352.2812 C179.633,367.8104 156.149,392.8139 140.054,409.9507 " fill="none" id="Online-&gt;Ops" style="stroke: #A80036; stroke-width: 1.0; stroke-dasharray: 7.0,7.0;" />
        <polygon fill="#A80036" points="136.536,413.6964,145.6133,409.8751,139.9592,410.052,139.7823,404.398,136.536,413.6964" style="stroke: #A80036; stroke-width: 1.0;" />
        <!--MD5=[fa1f797b2a007678447862d188341364]
link Online to Med-->
        <path d="M220.625,352.2812 C235.21,367.9952 258.8,393.4106 274.717,410.5593 " fill="none" id="Online-&gt;Med" style="stroke: #A80036; stroke-width: 1.0; stroke-dasharray: 7.0,7.0;" />
        <polygon fill="#A80036" points="278.19,414.3006,274.9986,404.9832,274.7883,410.6361,269.1354,410.4258,278.19,414.3006" style="stroke: #A80036; stroke-width: 1.0;" />
        <!--MD5=[5272508c55a89d82b7957e283d2e681d]
link Coordinator to MeetingRoom-->
        <path d="M231.499,113.9296 C222.645,141.7056 211.121,177.8596 203.096,203.0366 " fill="none" id="Coordinator-&gt;MeetingRoom" style="stroke: #A80036; stroke-width: 1.0;" />
        <polygon fill="#A80036" points="201.539,207.9206,208.0833,200.5604,203.0574,203.1568,200.4611,198.1309,201.539,207.9206" style="stroke: #A80036; stroke-width: 1.0;" />
        <!--MD5=[c026ff61d247cbc55291a5cf11e85969]
link Coordinator to CloseRoom-->
        <path d="M257.756,113.9296 C266.896,142.0526 278.828,178.7646 287.022,203.9756 " fill="none" id="Coordinator-&gt;CloseRoom" style="stroke: #A80036; stroke-width: 1.0;" />
        <polygon fill="#A80036" points="288.609,208.8586,289.6303,199.0629,287.0631,204.1036,282.0223,201.5364,288.609,208.8586" style="stroke: #A80036; stroke-width: 1.0;" />
        <!--MD5=[85b3fa37b778af4b3b31d3bd47d0066b]
link Coordinator to Protocol-->
        <path d="M206.774,92.2586 C184.545,104.7876 156.878,122.6986 136.5,143.6406 C115.981,164.7276 99.4812,194.7806 90.0836,214.1246 " fill="none" id="Coordinator-&gt;Protocol" style="stroke: #A80036; stroke-width: 1.0;" />
        <polygon fill="#A80036" points="87.8493,218.8006,95.3387,212.4046,90.005,214.2892,88.1204,208.9555,87.8493,218.8006" style="stroke: #A80036; stroke-width: 1.0;" /><text fill="#000000" font-family="sans-serif" font-size="13" lengthAdjust="spacingAndGlyphs" textLength="23" x="158.5" y="158.1357">ดูได้</text><text fill="#000000" font-family="sans-serif" font-size="13" lengthAdjust="spacingAndGlyphs" textLength="65" x="137.5" y="174.4873">ทำบันทึกได้</text>
        <!--MD5=[a2913435a480e3c6dc5b59cd931ee334]
link Coordinator to InviteMD-->
        <path d="M282.14,105.5186 C317.026,135.5286 368.252,179.5936 400.468,207.3066 " fill="none" id="Coordinator-&gt;InviteMD" style="stroke: #A80036; stroke-width: 1.0;" />
        <polygon fill="#A80036" points="404.301,210.6036,400.0846,201.7029,400.5098,207.3438,394.8689,207.7689,404.301,210.6036" style="stroke: #A80036; stroke-width: 1.0;" /><text fill="#000000" font-family="sans-serif" font-size="13" lengthAdjust="spacingAndGlyphs" textLength="26" x="400.5" y="158.1357">เรียก</text><text fill="#000000" font-family="sans-serif" font-size="13" lengthAdjust="spacingAndGlyphs" textLength="94" x="366.5" y="174.4873">Medical Director</text>
        <!--MD5=[1daaf93b52182ebed11ce0232f5d7f7e]
@startuml
Title __Coordinator__
  :Coordinator: as Coordinator

  usecase (Protocol) as Protocol
  usecase (Offline Note) as Offline
  usecase (Online Note) as Online
  usecase (Operation Note) as Ops
  usecase (Medicine Note) as Med
  Protocol ..> Offline
  Protocol ..> Online
  Online ..> Ops
  Online ..> Med

  usecase (Meeting\nRoom) as MeetingRoom
  usecase (Close\nRoom) as CloseRoom
  usecase (Invite\nMedical Director) as InviteMD

  Coordinator - -> MeetingRoom
  Coordinator - -> CloseRoom
  Coordinator - -> Protocol : ดูได้\nทำบันทึกได้
  Coordinator - -> InviteMD : เรียก\nMedical Director

@enduml

PlantUML version 1.2020.02(Sun Mar 01 17:22:07 ICT 2020)
(GPL source distribution)
Java Runtime: Java(TM) SE Runtime Environment
JVM: Java HotSpot(TM) 64-Bit Server VM
Java Version: 1.8.0_181-b13
Operating System: Windows 10
Default Encoding: MS874
Language: en
Country: US
-->
    </g>
</svg>