<?xml version="1.0" encoding="UTF-8" standalone="no"?><svg xmlns="http://www.w3.org/2000/svg" xmlns:xlink="http://www.w3.org/1999/xlink" contentScriptType="application/ecmascript" contentStyleType="text/css" height="479px" preserveAspectRatio="none" style="width:850px;height:479px;" version="1.1" viewBox="0 0 850 479" width="850px" zoomAndPan="magnify">
    <defs>
        <filter height="300%" id="f18y6njp5r2c3l" width="300%" x="-1" y="-1">
            <feGaussianBlur result="blurOut" stdDeviation="2.0" />
            <feColorMatrix in="blurOut" result="blurOut2" type="matrix" values="0 0 0 0 0 0 0 0 0 0 0 0 0 0 0 0 0 0 .4 0" />
            <feOffset dx="4.0" dy="4.0" in="blurOut2" result="blurOut3" />
            <feBlend in="SourceGraphic" in2="blurOut3" mode="normal" />
        </filter>
    </defs>
    <g><text fill="#000000" font-family="sans-serif" font-size="18" lengthAdjust="spacingAndGlyphs" text-decoration="underline" textLength="130" x="363.5" y="18.6855">Medical Director</text>
        <!--MD5=[e291d5aa2260f5663058080aae2b1552]
entity MD-->
        <ellipse cx="417.5" cy="40.1406" fill="#FEFECE" filter="url(#f18y6njp5r2c3l)" rx="8" ry="8" style="stroke: #A80036; stroke-width: 1.5;" />
        <path d="M417.5,48.1406 L417.5,75.1406 M404.5,56.1406 L430.5,56.1406 M417.5,75.1406 L404.5,90.1406 M417.5,75.1406 L430.5,90.1406 " fill="none" filter="url(#f18y6njp5r2c3l)" style="stroke: #A80036; stroke-width: 1.5;" /><text fill="#000000" font-family="sans-serif" font-size="14" lengthAdjust="spacingAndGlyphs" textLength="102" x="366.5" y="110.1738">Medical Director</text>
        <ellipse cx="555.2696" cy="218.0923" fill="#FEFECE" filter="url(#f18y6njp5r2c3l)" rx="39.7696" ry="15.4517" style="stroke: #A80036; stroke-width: 1.5;" /><text fill="#000000" font-family="sans-serif" font-size="14" lengthAdjust="spacingAndGlyphs" textLength="52" x="529.2696" y="223.397">Protocol</text>
        <ellipse cx="542.3259" cy="349.0923" fill="#FEFECE" filter="url(#f18y6njp5r2c3l)" rx="55.3259" ry="15.4517" style="stroke: #A80036; stroke-width: 1.5;" /><text fill="#000000" font-family="sans-serif" font-size="14" lengthAdjust="spacingAndGlyphs" textLength="74" x="505.3259" y="354.397">Offline Note</text>
        <ellipse cx="688.3259" cy="349.0923" fill="#FEFECE" filter="url(#f18y6njp5r2c3l)" rx="55.3259" ry="15.4517" style="stroke: #A80036; stroke-width: 1.5;" /><text fill="#000000" font-family="sans-serif" font-size="14" lengthAdjust="spacingAndGlyphs" textLength="74" x="651.3259" y="354.397">Online Note</text>
        <ellipse cx="604.6311" cy="452.6668" fill="#FEFECE" filter="url(#f18y6njp5r2c3l)" rx="68.1311" ry="16.0262" style="stroke: #A80036; stroke-width: 1.5;" /><text fill="#000000" font-family="sans-serif" font-size="14" lengthAdjust="spacingAndGlyphs" textLength="96" x="556.6311" y="457.9715">Operation Note</text>
        <ellipse cx="773.5964" cy="452.6599" fill="#FEFECE" filter="url(#f18y6njp5r2c3l)" rx="65.5964" ry="15.5193" style="stroke: #A80036; stroke-width: 1.5;" /><text fill="#000000" font-family="sans-serif" font-size="14" lengthAdjust="spacingAndGlyphs" textLength="89" x="729.0964" y="457.9646">Medicine Note</text>
        <ellipse cx="578.4417" cy="71.894" fill="#FEFECE" filter="url(#f18y6njp5r2c3l)" rx="31.4417" ry="25.7534" style="stroke: #A80036; stroke-width: 1.5;" /><text fill="#000000" font-family="sans-serif" font-size="14" lengthAdjust="spacingAndGlyphs" textLength="37" x="559.9417" y="68.7211">check</text><text fill="#000000" font-family="sans-serif" font-size="14" lengthAdjust="spacingAndGlyphs" textLength="35" x="560.9417" y="86.3305">in/out</text>
        <ellipse cx="301.6021" cy="71.9223" fill="#FEFECE" filter="url(#f18y6njp5r2c3l)" rx="29.6021" ry="24.2817" style="stroke: #A80036; stroke-width: 1.5;" /><text fill="#000000" font-family="sans-serif" font-size="14" lengthAdjust="spacingAndGlyphs" textLength="23" x="290.1021" y="66.8413">MIS</text><text fill="#000000" font-family="sans-serif" font-size="14" lengthAdjust="spacingAndGlyphs" textLength="35" x="284.1021" y="84.4507">Login</text>
        <ellipse cx="241.4249" cy="218.3708" fill="#FEFECE" filter="url(#f18y6njp5r2c3l)" rx="58.9249" ry="26.7302" style="stroke: #A80036; stroke-width: 1.5;" /><text fill="#000000" font-family="sans-serif" font-size="14" lengthAdjust="spacingAndGlyphs" textLength="83" x="199.9249" y="216.5732">ER/Specialist</text><text fill="#000000" font-family="sans-serif" font-size="14" lengthAdjust="spacingAndGlyphs" textLength="65" x="208.9249" y="234.1826">Infomation</text>
        <ellipse cx="372.4159" cy="218.1779" fill="#FEFECE" filter="url(#f18y6njp5r2c3l)" rx="36.4159" ry="26.5373" style="stroke: #A80036; stroke-width: 1.5;" /><text fill="#000000" font-family="sans-serif" font-size="14" lengthAdjust="spacingAndGlyphs" textLength="50" x="347.4159" y="216.6695">Meeting</text><text fill="#000000" font-family="sans-serif" font-size="14" lengthAdjust="spacingAndGlyphs" textLength="37" x="353.9159" y="234.2789">Room</text>
        <ellipse cx="76.646" cy="217.9061" fill="#FEFECE" filter="url(#f18y6njp5r2c3l)" rx="70.646" ry="25.2655" style="stroke: #A80036; stroke-width: 1.5;" /><text fill="#000000" font-family="sans-serif" font-size="14" lengthAdjust="spacingAndGlyphs" textLength="33" x="60.146" y="210.4225">Invite</text><text fill="#000000" font-family="sans-serif" font-size="14" lengthAdjust="spacingAndGlyphs" textLength="107" x="23.146" y="228.0319">to Meeting Room</text>
        <ellipse cx="406.2647" cy="349.0524" fill="#FEFECE" filter="url(#f18y6njp5r2c3l)" rx="32.2647" ry="26.4118" style="stroke: #A80036; stroke-width: 1.5;" /><text fill="#000000" font-family="sans-serif" font-size="14" lengthAdjust="spacingAndGlyphs" textLength="43" x="384.7647" y="347.2787">Recive</text><text fill="#000000" font-family="sans-serif" font-size="14" lengthAdjust="spacingAndGlyphs" textLength="33" x="389.7647" y="364.8881">Invite</text>
        <ellipse cx="678.5733" cy="217.8916" fill="#FEFECE" filter="url(#f18y6njp5r2c3l)" rx="47.5733" ry="25.7509" style="stroke: #A80036; stroke-width: 1.5;" /><text fill="#000000" font-family="sans-serif" font-size="14" lengthAdjust="spacingAndGlyphs" textLength="36" x="660.5733" y="211.1876">Grant</text><text fill="#000000" font-family="sans-serif" font-size="14" lengthAdjust="spacingAndGlyphs" textLength="69" x="644.0733" y="228.797">Permission</text>
        <path d="M12,59.1406 L12,85.4922 A0,0 0 0 0 12,85.4922 L72.5,85.4922 L76.5,192.5396 L80.5,85.4922 L141,85.4922 A0,0 0 0 0 141,85.4922 L141,69.1406 L131,59.1406 L12,59.1406 A0,0 0 0 0 12,59.1406 " fill="#FBFB77" filter="url(#f18y6njp5r2c3l)" style="stroke: #A80036; stroke-width: 1.0;" />
        <path d="M131,59.1406 L131,69.1406 L141,69.1406 L131,59.1406 " fill="#FBFB77" style="stroke: #A80036; stroke-width: 1.0;" /><text fill="#000000" font-family="sans-serif" font-size="13" lengthAdjust="spacingAndGlyphs" textLength="108" x="18" y="77.6357">เรียกหมอท่านอื่นได้</text>
        <!--MD5=[6699f799ed5c7232dc727eb440bc4cc6]
link Protocol to Offline-->
        <path d="M554.009,233.9386 C551.668,257.1696 547.127,302.2276 544.503,328.2626 " fill="none" id="Protocol-&gt;Offline" style="stroke: #A80036; stroke-width: 1.0; stroke-dasharray: 7.0,7.0;" />
        <polygon fill="#A80036" points="543.974,333.5156,548.8565,324.9622,544.4755,328.5408,540.8968,324.1598,543.974,333.5156" style="stroke: #A80036; stroke-width: 1.0;" />
        <!--MD5=[c82ce4d3f9a0489352c7a9acf8805ad6]
link Protocol to Online-->
        <path d="M569.733,232.9456 C594.004,256.4866 643.369,304.3666 670.179,330.3706 " fill="none" id="Protocol-&gt;Online" style="stroke: #A80036; stroke-width: 1.0; stroke-dasharray: 7.0,7.0;" />
        <polygon fill="#A80036" points="673.966,334.0436,670.2916,324.9059,670.3773,330.5621,664.7211,330.6478,673.966,334.0436" style="stroke: #A80036; stroke-width: 1.0;" />
        <!--MD5=[dfdacabff06845ff468c7a479416b68f]
link Online to Ops-->
        <path d="M676.465,364.6826 C661.704,382.5196 636.638,412.8067 620.328,432.5149 " fill="none" id="Online-&gt;Ops" style="stroke: #A80036; stroke-width: 1.0; stroke-dasharray: 7.0,7.0;" />
        <polygon fill="#A80036" points="616.786,436.795,625.606,432.4124,619.9741,432.9433,619.4432,427.3114,616.786,436.795" style="stroke: #A80036; stroke-width: 1.0;" />
        <!--MD5=[fa1f797b2a007678447862d188341364]
link Online to Med-->
        <path d="M700.678,364.6826 C715.701,382.6215 741.269,413.1533 757.765,432.8517 " fill="none" id="Online-&gt;Med" style="stroke: #A80036; stroke-width: 1.0; stroke-dasharray: 7.0,7.0;" />
        <polygon fill="#A80036" points="761.344,437.1251,758.6333,427.6566,758.1342,433.2914,752.4994,432.7923,761.344,437.1251" style="stroke: #A80036; stroke-width: 1.0;" />
        <!--MD5=[a9f7e0fd730e41fef76a67da7aff6299]
link InviteToMeetingRoom to ReciveInvite-->
        <path d="M123.081,237.3496 C190.303,263.6276 312.949,311.5706 372.393,334.8076 " fill="none" id="InviteToMeetingRoom-&gt;ReciveInvite" style="stroke: #A80036; stroke-width: 1.0; stroke-dasharray: 7.0,7.0;" />
        <polygon fill="#A80036" points="377.254,336.7086,370.3292,329.7053,372.5975,334.8874,367.4153,337.1557,377.254,336.7086" style="stroke: #A80036; stroke-width: 1.0;" /><text fill="#000000" font-family="sans-serif" font-size="13" lengthAdjust="spacingAndGlyphs" textLength="55" x="262.5" y="289.1357">&lt;extend&gt;</text>
        <!--MD5=[dd831f050c044493fa32b7c79b2ef305]
link MD to checkIn-->
        <path d="M468.884,72.1406 C492.569,72.1406 520.14,72.1406 541.705,72.1406 " fill="none" id="MD-&gt;checkIn" style="stroke: #A80036; stroke-width: 1.0;" />
        <polygon fill="#A80036" points="546.771,72.1406,537.771,68.1406,541.771,72.1406,537.771,76.1406,546.771,72.1406" style="stroke: #A80036; stroke-width: 1.0;" /><text fill="#000000" font-family="sans-serif" font-size="13" lengthAdjust="spacingAndGlyphs" textLength="37" x="489.25" y="49.6357">เข้าเวร</text><text fill="#000000" font-family="sans-serif" font-size="13" lengthAdjust="spacingAndGlyphs" textLength="42" x="486.75" y="65.9873">ออกเวร</text>
        <!--MD5=[568a38b1517a68da30ff5908ed06ab84]
reverse link MISLogin to MD-->
        <path d="M336.598,72.1406 C346.526,72.1406 356.454,72.1406 366.382,72.1406 " fill="none" id="MISLogin&lt;-MD" style="stroke: #A80036; stroke-width: 1.0;" />
        <polygon fill="#A80036" points="331.406,72.1406,340.406,76.1406,336.406,72.1406,340.406,68.1406,331.406,72.1406" style="stroke: #A80036; stroke-width: 1.0;" />
        <!--MD5=[780da28ebf1be06832b68d4fa50a0428]
link MD to MeetingRoom-->
        <path d="M404.725,114.0196 C397.46,137.2676 388.52,165.8746 381.901,187.0566 " fill="none" id="MD-&gt;MeetingRoom" style="stroke: #A80036; stroke-width: 1.0;" />
        <polygon fill="#A80036" points="380.356,192.0016,386.8583,184.6043,381.8473,187.2292,379.2224,182.2182,380.356,192.0016" style="stroke: #A80036; stroke-width: 1.0;" />
        <!--MD5=[7b84873b7ea2f1f359b46b24032402f9]
link MD to ERSpecialistInfomation-->
        <path d="M367.536,114.0196 C337.246,138.8036 299.51,169.6776 273.262,191.1536 " fill="none" id="MD-&gt;ERSpecialistInfomation" style="stroke: #A80036; stroke-width: 1.0;" />
        <polygon fill="#A80036" points="269.151,194.5166,278.6494,191.9126,273.0205,191.3501,273.583,185.7213,269.151,194.5166" style="stroke: #A80036; stroke-width: 1.0;" />
        <!--MD5=[f55fcecc053e4ee2a46de842c4cfad26]
link MD to Protocol-->
        <path d="M459.147,113.8056 C468.873,123.4916 479.126,133.8576 488.5,143.6406 C506.298,162.2156 526.074,184.0656 539.497,199.0866 " fill="none" id="MD-&gt;Protocol" style="stroke: #A80036; stroke-width: 1.0;" />
        <polygon fill="#A80036" points="543.107,203.1336,540.0991,193.7553,539.7779,199.403,534.1302,199.0819,543.107,203.1336" style="stroke: #A80036; stroke-width: 1.0;" /><text fill="#000000" font-family="sans-serif" font-size="13" lengthAdjust="spacingAndGlyphs" textLength="51" x="506.5" y="158.1357">สั่งการได้</text>
        <!--MD5=[858c63aed9326116e7d2d6abccbf98cc]
link MD to InviteToMeetingRoom-->
        <path d="M366.394,104.4016 C360.437,107.6656 354.386,110.8176 348.5,113.6406 C275.975,148.4226 188.467,179.9696 132.655,198.8546 " fill="none" id="MD-&gt;InviteToMeetingRoom" style="stroke: #A80036; stroke-width: 1.0;" />
        <polygon fill="#A80036" points="127.69,200.5296,137.4965,201.442,132.4275,198.9309,134.9386,193.8619,127.69,200.5296" style="stroke: #A80036; stroke-width: 1.0;" />
        <!--MD5=[2d032cbfb510cb54f1ff16f6bcb8d217]
link MD to ReciveInvite-->
        <path d="M423.004,113.7556 C426.914,148.5516 430.776,199.9726 426.5,244.6406 C424.12,269.4966 418.596,297.2566 413.956,317.7656 " fill="none" id="MD-&gt;ReciveInvite" style="stroke: #A80036; stroke-width: 1.0;" />
        <polygon fill="#A80036" points="412.797,322.8166,418.707,314.9381,413.9143,317.9431,410.9093,313.1504,412.797,322.8166" style="stroke: #A80036; stroke-width: 1.0;" />
        <!--MD5=[05211c8b26ed5c19b2d767f79b3c73b5]
link MD to GrantPermission-->
        <path d="M468.729,95.2556 C497.887,108.3656 534.805,125.8556 566.5,143.6406 C594.072,159.1116 623.942,178.8766 645.896,194.0136 " fill="none" id="MD-&gt;GrantPermission" style="stroke: #A80036; stroke-width: 1.0;" />
        <polygon fill="#A80036" points="650.178,196.9766,645.0522,188.5667,646.0661,194.132,640.5008,195.1458,650.178,196.9766" style="stroke: #A80036; stroke-width: 1.0;" /><text fill="#000000" font-family="sans-serif" font-size="13" lengthAdjust="spacingAndGlyphs" textLength="128" x="596.5" y="158.1357">โยกสิทธิ์การอำนวยการ</text>
        <!--MD5=[a125cd4a34a8096697517a1832ffbbf7]
@startuml
Title __Medical Director__
  :Medical Director: as MD

  usecase (Protocol) as Protocol
  usecase (Offline Note) as Offline
  usecase (Online Note) as Online
  usecase (Operation Note) as Ops
  usecase (Medicine Note) as Med
  Protocol ..> Offline
  Protocol ..> Online
  Online ..> Ops
  Online ..> Med

  usecase (check\nin/out) as checkIn
  usecase (MIS\nLogin) as MISLogin
  usecase (ER/Specialist\nInfomation) as ERSpecialistInfomation

  usecase (Meeting\nRoom) as MeetingRoom
  usecase (Invite\nto Meeting Room) as InviteToMeetingRoom
  usecase (Recive\nInvite) as ReciveInvite
  InviteToMeetingRoom ..> ReciveInvite :<extend>

  usecase (Grant\nPermission) as GrantPermission

  MD -right-> checkIn : เข้าเวร\nออกเวร
  MD -left-> MISLogin
  MD - -> MeetingRoom
  MD - -> ERSpecialistInfomation
  MD - -> Protocol : สั่งการได้
  MD - -> InviteToMeetingRoom
  note top of InviteToMeetingRoom : เรียกหมอท่านอื่นได้

  MD - -> ReciveInvite
  MD - -> GrantPermission : โยกสิทธิ์การอำนวยการ

@enduml

PlantUML version 1.2020.02(Sun Mar 01 17:22:07 ICT 2020)
(GPL source distribution)
Java Runtime: Java(TM) SE Runtime Environment
JVM: Java HotSpot(TM) 64-Bit Server VM
Java Version: 1.8.0_181-b13
Operating System: Windows 10
Default Encoding: MS874
Language: en
Country: US
-->
    </g>
</svg>