<?xml version="1.0" encoding="UTF-8" standalone="no"?><svg xmlns="http://www.w3.org/2000/svg" xmlns:xlink="http://www.w3.org/1999/xlink" contentScriptType="application/ecmascript" contentStyleType="text/css" height="379px" preserveAspectRatio="none" style="width:460px;height:379px;" version="1.1" viewBox="0 0 460 379" width="460px" zoomAndPan="magnify"><defs><filter height="300%" id="fiz1p3us8rr1q" width="300%" x="-1" y="-1"><feGaussianBlur result="blurOut" stdDeviation="2.0"/><feColorMatrix in="blurOut" result="blurOut2" type="matrix" values="0 0 0 0 0 0 0 0 0 0 0 0 0 0 0 0 0 0 .4 0"/><feOffset dx="4.0" dy="4.0" in="blurOut2" result="blurOut3"/><feBlend in="SourceGraphic" in2="blurOut3" mode="normal"/></filter></defs><g><text fill="#000000" font-family="sans-serif" font-size="18" lengthAdjust="spacingAndGlyphs" textLength="133" x="162.5" y="28.6855">Update Dispatch</text><line style="stroke: #A80036; stroke-width: 1.0; stroke-dasharray: 5.0,5.0;" x1="221" x2="221" y1="124.25" y2="291.0078"/><line style="stroke: #A80036; stroke-width: 1.0; stroke-dasharray: 5.0,5.0;" x1="374.5" x2="374.5" y1="124.25" y2="291.0078"/><text fill="#000000" font-family="sans-serif" font-size="14" lengthAdjust="spacingAndGlyphs" textLength="23" x="206.5" y="121.1738">OIS</text><ellipse cx="221" cy="49.6406" fill="#FEFECE" filter="url(#fiz1p3us8rr1q)" rx="8" ry="8" style="stroke: #A80036; stroke-width: 2.0;"/><path d="M221,57.6406 L221,84.6406 M208,65.6406 L234,65.6406 M221,84.6406 L208,99.6406 M221,84.6406 L234,99.6406 " fill="none" filter="url(#fiz1p3us8rr1q)" style="stroke: #A80036; stroke-width: 2.0;"/><text fill="#000000" font-family="sans-serif" font-size="14" lengthAdjust="spacingAndGlyphs" textLength="23" x="206.5" y="304.541">OIS</text><ellipse cx="221" cy="317.6172" fill="#FEFECE" filter="url(#fiz1p3us8rr1q)" rx="8" ry="8" style="stroke: #A80036; stroke-width: 2.0;"/><path d="M221,325.6172 L221,352.6172 M208,333.6172 L234,333.6172 M221,352.6172 L208,367.6172 M221,352.6172 L234,367.6172 " fill="none" filter="url(#fiz1p3us8rr1q)" style="stroke: #A80036; stroke-width: 2.0;"/><rect fill="#FEFECE" filter="url(#fiz1p3us8rr1q)" height="31.6094" style="stroke: #A80036; stroke-width: 1.5;" width="37" x="354.5" y="87.6406"/><text fill="#000000" font-family="sans-serif" font-size="14" lengthAdjust="spacingAndGlyphs" textLength="23" x="361.5" y="109.1738">MIS</text><rect fill="#FEFECE" filter="url(#fiz1p3us8rr1q)" height="31.6094" style="stroke: #A80036; stroke-width: 1.5;" width="37" x="354.5" y="290.0078"/><text fill="#000000" font-family="sans-serif" font-size="14" lengthAdjust="spacingAndGlyphs" textLength="23" x="361.5" y="311.541">MIS</text><polygon fill="#A80036" points="363,173.9531,373,177.9531,363,181.9531,367,177.9531" style="stroke: #A80036; stroke-width: 1.0;"/><line style="stroke: #A80036; stroke-width: 1.0;" x1="221" x2="369" y1="177.9531" y2="177.9531"/><text fill="#000000" font-family="sans-serif" font-size="13" lengthAdjust="spacingAndGlyphs" textLength="92" x="228" y="173.0967">ส่งข้อมูล Update</text><path d="M8,139.25 L8,198.25 L212,198.25 L212,149.25 L202,139.25 L8,139.25 " fill="#FBFB77" filter="url(#fiz1p3us8rr1q)" style="stroke: #A80036; stroke-width: 1.0;"/><path d="M202,139.25 L202,149.25 L212,149.25 L202,139.25 " fill="#FBFB77" style="stroke: #A80036; stroke-width: 1.0;"/><text fill="#000000" font-family="sans-serif" font-size="13" lengthAdjust="spacingAndGlyphs" textLength="129" x="14" y="157.7451">เกิดเหตุเกิดเหตุบางอย่าง</text><text fill="#000000" font-family="sans-serif" font-size="13" lengthAdjust="spacingAndGlyphs" textLength="183" x="14" y="174.0967">ที่จำเป็นต้องมีการ Update ภารกิจ</text><text fill="#000000" font-family="sans-serif" font-size="13" lengthAdjust="spacingAndGlyphs" textLength="90" x="14" y="190.4482">ที่กำลังดำเนินอยู่</text><line style="stroke: #A80036; stroke-width: 1.0;" x1="375" x2="417" y1="229.6563" y2="229.6563"/><line style="stroke: #A80036; stroke-width: 1.0;" x1="417" x2="417" y1="229.6563" y2="242.6563"/><line style="stroke: #A80036; stroke-width: 1.0;" x1="376" x2="417" y1="242.6563" y2="242.6563"/><polygon fill="#A80036" points="386,238.6563,376,242.6563,386,246.6563,382,242.6563" style="stroke: #A80036; stroke-width: 1.0;"/><text fill="#000000" font-family="sans-serif" font-size="13" lengthAdjust="spacingAndGlyphs" textLength="66" x="382" y="224.7998">update MIS</text><polygon fill="#A80036" points="232,269.0078,222,273.0078,232,277.0078,228,273.0078" style="stroke: #A80036; stroke-width: 1.0;"/><line style="stroke: #A80036; stroke-width: 1.0;" x1="226" x2="374" y1="273.0078" y2="273.0078"/><text fill="#000000" font-family="sans-serif" font-size="13" lengthAdjust="spacingAndGlyphs" textLength="130" x="238" y="268.1514">Id + Link ห้องปฏิบัติการ</text><!--MD5=[ff9f6577255f4c6e9bf2fa7bd194a477]
@startuml
Title Update Dispatch
actor OIS
  OIS -> MIS: ส่งข้อมูล Update
  note left: เกิดเหตุเกิดเหตุบางอย่าง\nที่จำเป็นต้องมีการ Update ภารกิจ\nที่กำลังดำเนินอยู่
  MIS -> MIS: update MIS
  OIS <- MIS: Id + Link ห้องปฏิบัติการ
@enduml

PlantUML version 1.2020.17(Sat Sep 19 19:30:11 ICT 2020)
(MIT source distribution)
Java Runtime: Java(TM) SE Runtime Environment
JVM: Java HotSpot(TM) 64-Bit Server VM
Default Encoding: Cp1252
Language: en
Country: US
--></g></svg>