<?xml version="1.0" encoding="UTF-8" standalone="no"?><svg xmlns="http://www.w3.org/2000/svg" xmlns:xlink="http://www.w3.org/1999/xlink" contentScriptType="application/ecmascript" contentStyleType="text/css" height="379px" preserveAspectRatio="none" style="width:421px;height:379px;" version="1.1" viewBox="0 0 421 379" width="421px" zoomAndPan="magnify">
    <defs>
        <filter height="300%" id="fqhxb8ydp406k" width="300%" x="-1" y="-1">
            <feGaussianBlur result="blurOut" stdDeviation="2.0" />
            <feColorMatrix in="blurOut" result="blurOut2" type="matrix" values="0 0 0 0 0 0 0 0 0 0 0 0 0 0 0 0 0 0 .4 0" />
            <feOffset dx="4.0" dy="4.0" in="blurOut2" result="blurOut3" />
            <feBlend in="SourceGraphic" in2="blurOut3" mode="normal" />
        </filter>
    </defs>
    <g><text fill="#000000" font-family="sans-serif" font-size="18" lengthAdjust="spacingAndGlyphs" textLength="165" x="109.25" y="28.6855">การอัพเดทข้อมูลห้อง</text><text fill="#000000" font-family="sans-serif" font-size="18" lengthAdjust="spacingAndGlyphs" text-decoration="underline" textLength="31" x="279.25" y="28.6855">MIS</text>
        <line style="stroke: #A80036; stroke-width: 1.0; stroke-dasharray: 5.0,5.0;" x1="220" x2="220" y1="124.25" y2="291.0078" />
        <line style="stroke: #A80036; stroke-width: 1.0; stroke-dasharray: 5.0,5.0;" x1="336" x2="336" y1="124.25" y2="291.0078" /><text fill="#000000" font-family="sans-serif" font-size="14" lengthAdjust="spacingAndGlyphs" textLength="79" x="178" y="121.1738">OIS Platform</text>
        <ellipse cx="220.5" cy="49.6406" fill="#FEFECE" filter="url(#fqhxb8ydp406k)" rx="8" ry="8" style="stroke: #A80036; stroke-width: 2.0;" />
        <path d="M220.5,57.6406 L220.5,84.6406 M207.5,65.6406 L233.5,65.6406 M220.5,84.6406 L207.5,99.6406 M220.5,84.6406 L233.5,99.6406 " fill="none" filter="url(#fqhxb8ydp406k)" style="stroke: #A80036; stroke-width: 2.0;" /><text fill="#000000" font-family="sans-serif" font-size="14" lengthAdjust="spacingAndGlyphs" textLength="79" x="178" y="304.541">OIS Platform</text>
        <ellipse cx="220.5" cy="317.6172" fill="#FEFECE" filter="url(#fqhxb8ydp406k)" rx="8" ry="8" style="stroke: #A80036; stroke-width: 2.0;" />
        <path d="M220.5,325.6172 L220.5,352.6172 M207.5,333.6172 L233.5,333.6172 M220.5,352.6172 L207.5,367.6172 M220.5,352.6172 L233.5,367.6172 " fill="none" filter="url(#fqhxb8ydp406k)" style="stroke: #A80036; stroke-width: 2.0;" />
        <rect fill="#FEFECE" filter="url(#fqhxb8ydp406k)" height="31.6094" style="stroke: #A80036; stroke-width: 1.5;" width="93" x="288" y="87.6406" /><text fill="#000000" font-family="sans-serif" font-size="14" lengthAdjust="spacingAndGlyphs" textLength="79" x="295" y="109.1738">MIS Platform</text>
        <rect fill="#FEFECE" filter="url(#fqhxb8ydp406k)" height="31.6094" style="stroke: #A80036; stroke-width: 1.5;" width="93" x="288" y="290.0078" /><text fill="#000000" font-family="sans-serif" font-size="14" lengthAdjust="spacingAndGlyphs" textLength="79" x="295" y="311.541">MIS Platform</text>
        <polygon fill="#A80036" points="324.5,173.9531,334.5,177.9531,324.5,181.9531,328.5,177.9531" style="stroke: #A80036; stroke-width: 1.0;" />
        <line style="stroke: #A80036; stroke-width: 1.0;" x1="220.5" x2="330.5" y1="177.9531" y2="177.9531" /><text fill="#000000" font-family="sans-serif" font-size="13" lengthAdjust="spacingAndGlyphs" textLength="92" x="227.5" y="173.0967">ส่งข้อมูล Update</text>
        <path d="M8,139.25 L8,198.25 L212,198.25 L212,149.25 L202,139.25 L8,139.25 " fill="#FBFB77" filter="url(#fqhxb8ydp406k)" style="stroke: #A80036; stroke-width: 1.0;" />
        <path d="M202,139.25 L202,149.25 L212,149.25 L202,139.25 " fill="#FBFB77" style="stroke: #A80036; stroke-width: 1.0;" /><text fill="#000000" font-family="sans-serif" font-size="13" lengthAdjust="spacingAndGlyphs" textLength="129" x="14" y="157.7451">เกิดเหตุเกิดเหตุบางอย่าง</text><text fill="#000000" font-family="sans-serif" font-size="13" lengthAdjust="spacingAndGlyphs" textLength="183" x="14" y="174.0967">ที่จำเป็นต้องมีการ Update ภารกิจ</text><text fill="#000000" font-family="sans-serif" font-size="13" lengthAdjust="spacingAndGlyphs" textLength="90" x="14" y="190.4482">ที่กำลังดำเนินอยู่</text>
        <line style="stroke: #A80036; stroke-width: 1.0;" x1="336.5" x2="378.5" y1="229.6563" y2="229.6563" />
        <line style="stroke: #A80036; stroke-width: 1.0;" x1="378.5" x2="378.5" y1="229.6563" y2="242.6563" />
        <line style="stroke: #A80036; stroke-width: 1.0;" x1="337.5" x2="378.5" y1="242.6563" y2="242.6563" />
        <polygon fill="#A80036" points="347.5,238.6563,337.5,242.6563,347.5,246.6563,343.5,242.6563" style="stroke: #A80036; stroke-width: 1.0;" /><text fill="#000000" font-family="sans-serif" font-size="13" lengthAdjust="spacingAndGlyphs" textLength="66" x="343.5" y="224.7998">update MIS</text>
        <polygon fill="#A80036" points="231.5,269.0078,221.5,273.0078,231.5,277.0078,227.5,273.0078" style="stroke: #A80036; stroke-width: 1.0;" />
        <line style="stroke: #A80036; stroke-width: 1.0;" x1="225.5" x2="335.5" y1="273.0078" y2="273.0078" /><text fill="#000000" font-family="sans-serif" font-size="13" lengthAdjust="spacingAndGlyphs" textLength="44" x="237.5" y="268.1514">200 OK</text>
        <!--MD5=[6a4abf14e1aee098ec2db3d2c80aed28]
@startuml
Title การอัพเดทข้อมูลห้อง __MIS__
actor "OIS Platform" as OIS
  OIS -> "MIS Platform": ส่งข้อมูล Update
  note left: เกิดเหตุเกิดเหตุบางอย่าง\nที่จำเป็นต้องมีการ Update ภารกิจ\nที่กำลังดำเนินอยู่
  "MIS Platform" -> "MIS Platform": update MIS
  "MIS Platform" -> OIS: 200 OK
@enduml

PlantUML version 1.2020.02(Sun Mar 01 17:22:07 ICT 2020)
(GPL source distribution)
Java Runtime: Java(TM) SE Runtime Environment
JVM: Java HotSpot(TM) 64-Bit Server VM
Java Version: 1.8.0_261-b12
Operating System: Windows 10
Default Encoding: Cp1252
Language: en
Country: US
-->
    </g>
</svg>